<svg width="102" height="204" viewBox="0 0 102 204" fill="none" xmlns="http://www.w3.org/2000/svg">
<g filter="url(#filter0_dd_545_1714)">
<circle cx="50" cy="49" r="32" fill="#B33434" fill-opacity="0.5"/>
<circle cx="50" cy="49" r="20" fill="#A23030" fill-opacity="0.75"/>
<circle cx="50" cy="49" r="10" fill="#892424"/>
<path d="M51.964 13.1623C51.1734 13.1038 50.6171 12.7369 50.4627 12.2313C50.4405 12.1683 50.4371 12.1106 50.441 12.0573C50.4563 11.8515 50.6143 11.7406 50.8206 11.7559C50.958 11.766 51.0716 11.8396 51.1634 11.9996C51.3455 12.3388 51.5753 12.5014 52.0527 12.5367C52.5224 12.5715 52.8544 12.393 52.8791 12.0615C52.8986 11.7986 52.7525 11.646 52.3286 11.5112L51.7058 11.3157C50.9403 11.0751 50.5867 10.6658 50.6292 10.0942C50.6831 9.37029 51.3489 8.93683 52.3036 9.00751C53.0292 9.06122 53.5975 9.47492 53.6769 9.95588C53.6811 10.0022 53.6859 10.0408 53.6831 10.0789C53.6695 10.2618 53.5459 10.3753 53.3397 10.36C53.206 10.3501 53.091 10.2956 53.0204 10.1601C52.8636 9.84204 52.6311 9.66391 52.2263 9.63395C51.7833 9.60115 51.4617 9.79573 51.4384 10.1082C51.4197 10.3597 51.6015 10.5493 52.018 10.6798L52.6297 10.8707C53.4592 11.1275 53.7615 11.4525 53.7173 12.0469C53.662 12.7899 52.9569 13.2358 51.964 13.1623Z" fill="white"/>
<path d="M56.9675 13.7388C56.7041 13.6713 56.5873 13.5111 56.5781 13.209L56.4765 9.92038C56.4697 9.82396 56.4767 9.75079 56.4939 9.68418C56.5473 9.47696 56.7383 9.38 56.972 9.43993C57.1723 9.4913 57.2633 9.62906 57.2571 9.86811L57.2362 12.8492L57.2511 12.853L58.707 10.2716C58.8236 10.049 59.0155 9.96411 59.2603 10.0269C59.5014 10.0887 59.6247 10.2545 59.6193 10.5056L59.6507 13.4685L59.6692 13.4732L61.0919 10.8518C61.202 10.6394 61.3447 10.5615 61.5449 10.6129C61.7786 10.6729 61.8954 10.8488 61.842 11.056C61.8248 11.1226 61.7965 11.1864 61.7467 11.2722L60.0681 14.1042C59.9196 14.358 59.7231 14.4457 59.4598 14.3781C59.1816 14.3068 59.0563 14.1484 59.0556 13.8445L58.9905 11.0741L58.9719 11.0694L57.5832 13.4668C57.4385 13.7216 57.2382 13.8083 56.9675 13.7388Z" fill="white"/>
<path d="M65.0651 11.314C64.8217 11.2113 64.7078 10.9309 64.8092 10.6916C64.9121 10.4488 65.1901 10.3421 65.4335 10.4448C65.6804 10.5489 65.7974 10.8223 65.6944 11.0651C65.593 11.3044 65.312 11.4181 65.0651 11.314ZM63.2306 15.6424C63.0014 15.5457 62.9168 15.3234 63.0197 15.0806L64.3039 12.0506C64.4083 11.8043 64.627 11.7099 64.8563 11.8066C65.0856 11.9034 65.1701 12.1257 65.0657 12.3721L63.7816 15.402C63.6786 15.6448 63.4599 15.7392 63.2306 15.6424Z" fill="white"/>
<path d="M65.4679 18.0722C65.2562 17.9489 65.1957 17.7189 65.3328 17.4846L67.6847 13.4659C67.818 13.2382 68.0413 13.1825 68.243 13.3C68.4447 13.4176 68.5091 13.6409 68.3759 13.8686L68.204 14.1622L68.2172 14.1699C68.6559 13.8901 69.2047 13.8692 69.7074 14.1621C70.5903 14.6765 70.7668 15.7085 70.1238 16.8072C69.4808 17.9059 68.4946 18.2649 67.6216 17.7563C67.1223 17.4654 66.8683 16.99 66.8959 16.4884L66.8793 16.4787L66.0471 17.9008C65.91 18.1351 65.6762 18.1935 65.4679 18.0722ZM67.7733 17.035C68.3387 17.3644 68.9629 17.1086 69.3897 16.3795C69.8145 15.6536 69.7329 14.9822 69.1674 14.6527C68.6218 14.3348 67.9767 14.5961 67.5577 15.3121C67.1348 16.0347 67.2243 16.7151 67.7733 17.035Z" fill="white"/>
<path d="M72.2386 20.8869C71.3029 20.1152 71.2444 19.0705 72.074 18.0692C72.8889 17.0856 73.9767 16.9121 74.8562 17.6376C75.6826 18.3192 75.7594 19.3839 75.0591 20.229C74.8884 20.4352 74.6727 20.4556 74.475 20.2925L72.5978 18.7442L72.5856 18.7589C72.1172 19.3244 72.1431 19.9406 72.6508 20.3594C72.9991 20.6466 73.3175 20.706 73.8196 20.5798C73.9533 20.5563 74.0451 20.5774 74.1366 20.6529C74.2901 20.7795 74.3193 20.9721 74.1875 21.1312C74.146 21.1812 74.0795 21.2255 74.0017 21.2654C73.4614 21.5038 72.8171 21.364 72.2386 20.8869ZM72.9692 18.302L74.5217 19.5825C74.9095 19.0844 74.8714 18.5127 74.4287 18.1475C73.989 17.7848 73.4018 17.8458 72.9692 18.302Z" fill="white"/>
<path d="M78.1951 25.2326L80.0946 23.7549L79.9157 23.5259C79.7838 23.3571 79.8004 23.1795 79.9604 23.055C80.1235 22.9281 80.3002 22.9554 80.4321 23.1241L80.611 23.3531L81.0821 22.9866C81.2905 22.8245 81.5307 22.846 81.6861 23.0449C81.8391 23.2408 81.8015 23.4784 81.5931 23.6405L81.122 24.007L81.4116 24.3776C81.5434 24.5463 81.5238 24.7263 81.3638 24.8508C81.2037 24.9753 81.027 24.9481 80.8952 24.7793L80.6056 24.4087L78.851 25.7737C78.5973 25.971 78.5508 26.1477 78.7164 26.3968L78.7534 26.4504C78.8812 26.6513 78.8787 26.8034 78.7247 26.9232C78.5284 27.0759 78.311 27.0028 78.0614 26.6834L78.0355 26.6503C77.6188 26.1169 77.6696 25.6414 78.1951 25.2326Z" fill="white"/>
<path d="M80.5082 30.2643C79.9288 29.2701 80.233 28.2185 81.3552 27.5674C82.4741 26.9183 83.5424 27.178 84.1199 28.1689C84.6974 29.1598 84.3952 30.2147 83.2763 30.8638C82.154 31.5149 81.0876 31.2585 80.5082 30.2643ZM81.0975 29.9224C81.4247 30.4839 82.0781 30.5866 82.8528 30.1372C83.6241 29.6897 83.856 29.069 83.5307 28.5108C83.2054 27.9526 82.55 27.8466 81.7787 28.2941C81.004 28.7435 80.7722 29.3642 81.0975 29.9224Z" fill="white"/>
<path d="M84.1152 38.2898C83.7956 37.1848 84.3566 36.244 85.5892 35.8892C86.8144 35.5365 87.8087 36.0257 88.1272 37.127C88.3427 37.8722 88.13 38.6254 87.638 38.9499C87.5818 38.99 87.5198 39.0237 87.4646 39.0396C87.2622 39.0979 87.0957 38.9907 87.0395 38.7961C86.9907 38.6273 87.0293 38.5127 87.1783 38.3665C87.4889 38.0623 87.587 37.7398 87.4691 37.3323C87.2898 36.7119 86.6542 36.4574 85.83 36.6947C84.9875 36.9372 84.606 37.4924 84.7832 38.1055C84.9074 38.535 85.1741 38.7406 85.5631 38.8314C85.7862 38.8865 85.8769 38.9518 85.9268 39.1244C85.983 39.3189 85.892 39.5002 85.6933 39.5574C85.6307 39.5754 85.5603 39.5798 85.4745 39.5727C84.8826 39.5243 84.3221 39.0057 84.1152 38.2898Z" fill="white"/>
<path d="M83.7515 42.6691C83.703 42.2902 83.8168 42.0638 84.0713 42.0313C84.2461 42.0091 84.3756 42.1158 84.4008 42.3129C84.412 42.4 84.4121 42.4308 84.4242 42.5256C84.4533 42.753 84.6083 42.9682 85.0375 43.0637L85.2789 43.11L88.6064 41.3298C88.6861 41.2888 88.7677 41.263 88.8323 41.2548C89.0564 41.2262 89.2349 41.3844 89.2655 41.6232C89.2917 41.8279 89.2194 41.9565 89.0007 42.0576L86.1224 43.4569L86.1239 43.4683L89.2629 44.1041C89.4957 44.1438 89.6015 44.2459 89.6282 44.4543C89.6583 44.6893 89.5234 44.8721 89.3031 44.9002C89.2385 44.9084 89.153 44.9039 89.0698 44.8876L85.2271 43.9717C84.2209 43.7417 83.8462 43.4082 83.7515 42.6691Z" fill="white"/>
<path d="M85.6738 49.0976C85.7035 47.9479 86.523 47.2199 87.8054 47.2529C89.0802 47.2858 89.8801 48.0517 89.8504 49.1976C89.8304 49.9729 89.3997 50.6269 88.8324 50.7881C88.7668 50.8093 88.6975 50.8228 88.64 50.8213C88.4295 50.8159 88.3032 50.6636 88.3084 50.4612C88.313 50.2855 88.3845 50.1879 88.5708 50.0934C88.9589 49.897 89.15 49.6191 89.161 49.1951C89.1777 48.5496 88.6488 48.1155 87.7913 48.0934C86.9147 48.0708 86.383 48.4852 86.3665 49.1231C86.3549 49.57 86.5469 49.8463 86.8902 50.05C87.0863 50.1698 87.153 50.2594 87.1483 50.4389C87.1431 50.6413 87.0014 50.7867 86.7947 50.7814C86.7296 50.7797 86.6611 50.7627 86.5815 50.7301C86.0319 50.5057 85.6545 49.8424 85.6738 49.0976Z" fill="white"/>
<path d="M85.385 53.3501C85.4205 53.112 85.6087 52.9661 85.8777 53.006L90.6236 53.7109C90.8925 53.7508 91.03 53.9451 90.9945 54.1832C90.959 54.4213 90.7707 54.5671 90.5018 54.5272L85.7559 53.8223C85.4869 53.7824 85.3495 53.5881 85.385 53.3501Z" fill="white"/>
<path d="M84.5237 57.7505C84.8497 56.5838 85.7824 56.1055 87.0366 56.4544C88.2686 56.7972 88.87 57.7181 88.5635 58.8148C88.2755 59.8454 87.3319 60.3484 86.2733 60.0539C86.015 59.9821 85.9086 59.7938 85.9775 59.5472L86.6316 57.2065L86.6132 57.2013C85.905 57.0043 85.3512 57.2787 85.1743 57.9117C85.053 58.346 85.1281 58.6604 85.4479 59.0667C85.5239 59.1791 85.5418 59.2713 85.5099 59.3854C85.4564 59.5768 85.2919 59.6818 85.0928 59.6263C85.0301 59.6089 84.9625 59.5663 84.8942 59.5116C84.4562 59.1161 84.3221 58.4719 84.5237 57.7505ZM87.1876 57.3651L86.6466 59.301C87.2604 59.4519 87.7684 59.1847 87.9227 58.6326C88.0759 58.0842 87.7812 57.5739 87.1876 57.3651Z" fill="white"/>
<path d="M83.1502 62.0134C83.2578 61.756 83.5483 61.6368 83.8063 61.7442C84.0643 61.8516 84.1838 62.1414 84.0761 62.3988C83.9685 62.6562 83.678 62.7755 83.42 62.6681C83.162 62.5607 83.0425 62.2709 83.1502 62.0134Z" fill="white"/>
<path d="M79.8674 68.2269C80.3141 67.5736 80.9109 67.2768 81.4269 67.3967C81.4927 67.409 81.5444 67.435 81.5887 67.4652C81.7595 67.5814 81.7766 67.7734 81.6601 67.9439C81.5824 68.0575 81.4617 68.1188 81.2769 68.1179C80.8915 68.1053 80.6354 68.2223 80.3656 68.6169C80.1002 69.0051 80.0888 69.3812 80.364 69.5685C80.5823 69.7171 80.7878 69.6674 81.1171 69.3688L81.5986 68.9288C82.1907 68.3882 82.7228 68.2879 83.1974 68.6108C83.7984 69.0199 83.841 69.812 83.3015 70.6011C82.8916 71.2008 82.2481 71.4844 81.7911 71.3121C81.7488 71.2926 81.7128 71.2774 81.6812 71.2558C81.5293 71.1525 81.4928 70.9889 81.6094 70.8185C81.6849 70.708 81.7897 70.636 81.9426 70.6429C82.2971 70.6668 82.5681 70.5552 82.7968 70.2206C83.0471 69.8545 83.0394 69.4792 82.78 69.3027C82.5712 69.1606 82.3157 69.2225 81.9939 69.5169L81.5219 69.9496C80.8837 70.5374 80.4504 70.6356 79.9569 70.2997C79.34 69.8799 79.3063 69.0476 79.8674 68.2269Z" fill="white"/>
<path d="M76.8512 72.2703C77.0415 72.0765 77.239 72.0557 77.5058 72.1989L80.4106 73.7561C80.4977 73.7985 80.5577 73.8411 80.6069 73.8892C80.7601 74.039 80.7486 74.2526 80.5798 74.4245C80.435 74.5718 80.2699 74.5816 80.0656 74.4566L77.4889 72.9475L77.4781 72.9584L78.9902 75.5075C79.125 75.7196 79.1027 75.9278 78.9257 76.1079C78.7515 76.2853 78.5459 76.3089 78.3307 76.1787L75.7437 74.7237L75.7303 74.7373L77.2937 77.2778C77.423 77.4791 77.4192 77.6413 77.2744 77.7886C77.1055 77.9605 76.8944 77.9734 76.7413 77.8236C76.6921 77.7755 76.6509 77.7191 76.6013 77.6332L74.9832 74.7664C74.8371 74.5111 74.8594 74.2975 75.0497 74.1037C75.2508 73.8991 75.4509 73.8701 75.715 74.0215L78.1519 75.351L78.1653 75.3373L76.7793 72.9383C76.6306 72.6858 76.6555 72.4694 76.8512 72.2703Z" fill="white"/>
<path d="M74.9057 80.4839C75.1163 80.3247 75.4168 80.366 75.574 80.573C75.7336 80.7832 75.6876 81.0768 75.477 81.2361C75.2634 81.3976 74.9676 81.3624 74.808 81.1523C74.6507 80.9452 74.6921 80.6455 74.9057 80.4839ZM72.0609 76.7384C72.2593 76.5884 72.4946 76.6262 72.6542 76.8363L74.6456 79.4582C74.8075 79.6713 74.7803 79.9076 74.5819 80.0576C74.3836 80.2076 74.1482 80.1698 73.9863 79.9566L71.9949 77.3348C71.8353 77.1247 71.8625 76.8884 72.0609 76.7384Z" fill="white"/>
<path d="M68.8464 77.4539C69.059 77.3321 69.289 77.3942 69.4243 77.6295L71.7464 81.6655C71.878 81.8941 71.8152 82.1151 71.6126 82.2311C71.4101 82.3471 71.1839 82.2917 71.0523 82.063L70.8826 81.7681L70.8694 81.7757C70.8941 82.2946 70.6391 82.7799 70.1343 83.0691C69.2475 83.5769 68.2627 83.2159 67.6278 82.1124C66.993 81.009 67.1719 79.9769 68.0487 79.4748C68.5501 79.1875 69.0897 79.2045 69.5121 79.478L69.5287 79.4685L68.707 78.0404C68.5716 77.8051 68.6372 77.5737 68.8464 77.4539ZM68.6001 79.9651C68.0322 80.2904 67.9438 80.9578 68.3651 81.6901C68.7845 82.4191 69.4087 82.6828 69.9766 82.3575C70.5246 82.0437 70.6187 81.3554 70.205 80.6363C69.7875 79.9106 69.1514 79.6494 68.6001 79.9651Z" fill="white"/>
<path d="M63.0252 81.9108C64.1623 81.4868 65.099 81.9574 65.5548 83.1743C66.0025 84.3697 65.6105 85.3969 64.5416 85.7954C63.5372 86.1699 62.5741 85.7051 62.1893 84.6779C62.0955 84.4274 62.1854 84.2307 62.4257 84.1411L64.7071 83.2905L64.7004 83.2726C64.443 82.5854 63.8947 82.3004 63.2778 82.5304C62.8545 82.6883 62.644 82.934 62.5031 83.4311C62.4568 83.5585 62.3927 83.6273 62.2815 83.6687C62.0949 83.7383 61.9131 83.6674 61.8407 83.4742C61.8179 83.4133 61.8126 83.3337 61.8167 83.2465C61.8792 82.6603 62.3222 82.1729 63.0252 81.9108ZM64.9059 83.8322L63.0191 84.5358C63.2582 85.1196 63.7738 85.372 64.3119 85.1713C64.8464 84.9721 65.0863 84.4339 64.9059 83.8322Z" fill="white"/>
<path d="M56.2814 84.8847L56.6116 87.2653L56.8999 87.2255C57.1123 87.1962 57.2581 87.2995 57.2859 87.5001C57.3143 87.7044 57.2021 87.8434 56.9897 87.8727L56.7014 87.9125L56.7833 88.5029C56.8195 88.7641 56.6805 88.9607 56.4302 88.9953C56.1836 89.0293 55.9964 88.8777 55.9601 88.6166L55.8782 88.0262L55.4117 88.0906C55.1993 88.1199 55.053 88.0128 55.0251 87.8122C54.9973 87.6117 55.1095 87.4727 55.3219 87.4434L55.7885 87.379L55.4835 85.1801C55.4394 84.8621 55.3094 84.7335 55.0104 84.7517L54.9454 84.7568C54.7071 84.7666 54.5763 84.6882 54.5496 84.4952C54.5154 84.2491 54.6878 84.0981 55.0899 84.0425L55.1316 84.0368C55.803 83.9441 56.1901 84.2262 56.2814 84.8847Z" fill="white"/>
<path d="M50.7247 84.3624C51.8773 84.3602 52.6371 85.1496 52.6397 86.4448C52.6423 87.7362 51.8818 88.5286 50.733 88.5309C49.5841 88.5332 48.8205 87.7438 48.818 86.4523C48.8154 85.1571 49.5721 84.3647 50.7247 84.3624ZM50.726 85.0425C50.0751 85.0438 49.6587 85.5566 49.6604 86.4507C49.6622 87.3409 50.0844 87.8521 50.7316 87.8508C51.3788 87.8495 51.799 87.3367 51.7972 86.4465C51.7955 85.5524 51.3732 85.0413 50.726 85.0425Z" fill="white"/>
<path d="M41.9306 83.4628C43.0495 83.7388 43.5861 84.6938 43.2782 85.9363C42.9721 87.1714 42.0505 87.7864 40.9353 87.5113C40.1806 87.3251 39.633 86.7649 39.5972 86.1775C39.5905 86.109 39.5922 86.0385 39.6059 85.9829C39.6565 85.7789 39.8327 85.6885 40.0297 85.7371C40.2007 85.7793 40.2809 85.8699 40.3334 86.0718C40.4422 86.4923 40.6732 86.7381 41.0858 86.8399C41.7141 86.9949 42.2526 86.5728 42.4585 85.742C42.669 84.8926 42.3776 84.2855 41.7568 84.1323C41.3218 84.025 41.0101 84.1528 40.7369 84.4435C40.5776 84.6089 40.4755 84.6546 40.3008 84.6115C40.1038 84.5629 39.9919 84.3936 40.0415 84.1933C40.0571 84.1302 40.0886 84.0671 40.1376 83.9966C40.4753 83.5092 41.2057 83.284 41.9306 83.4628Z" fill="white"/>
<path d="M38.3109 80.9605C38.6641 81.1081 38.8037 81.3196 38.7046 81.5557C38.6365 81.7179 38.4791 81.7764 38.2955 81.6996C38.2142 81.6657 38.1874 81.6504 38.0991 81.6135C37.8872 81.5249 37.6229 81.5512 37.3254 81.8743L37.1646 82.0598L37.0458 85.8251C37.0415 85.9144 37.0231 85.9979 36.998 86.0578C36.9107 86.2657 36.684 86.3409 36.4615 86.2479C36.2708 86.1682 36.1953 86.0414 36.2169 85.8019L36.4416 82.6152L36.431 82.6108L34.3095 85.0051C34.1587 85.1864 34.0172 85.2267 33.8229 85.1456C33.6039 85.0541 33.5127 84.8461 33.5984 84.6417C33.6236 84.5818 33.6703 84.5102 33.726 84.4465L36.4425 81.5842C37.1452 80.8297 37.6221 80.6727 38.3109 80.9605Z" fill="white"/>
<path d="M31.8076 79.4247C32.7899 80.0264 33.0109 81.0987 32.3399 82.1895C31.6728 83.2739 30.6077 83.581 29.6286 82.9814C28.9661 82.5756 28.6145 81.8762 28.7589 81.3056C28.7734 81.2382 28.7964 81.1716 28.8264 81.1228C28.9366 80.9437 29.132 80.9109 29.305 81.0168C29.4551 81.1088 29.5039 81.2193 29.4926 81.4276C29.4685 81.8612 29.6139 82.1654 29.9761 82.3872C30.5277 82.725 31.1691 82.4857 31.6178 81.7563C32.0766 81.0106 31.9835 80.3439 31.4385 80.0101C31.0566 79.7763 30.7207 79.8037 30.372 79.9981C30.1699 80.1075 30.0588 80.1201 29.9054 80.0262C29.7324 79.9202 29.6773 79.7251 29.7854 79.5492C29.8195 79.4939 29.8686 79.4432 29.9368 79.3908C30.4067 79.0286 31.1712 79.035 31.8076 79.4247Z" fill="white"/>
<path d="M28.2752 77.052C28.4639 77.202 28.4961 77.4376 28.3267 77.6498L25.3377 81.3949C25.1683 81.6071 24.931 81.6285 24.7422 81.4785C24.5535 81.3286 24.5213 81.093 24.6907 80.8808L27.6797 77.1357C27.8491 76.9235 28.0864 76.9021 28.2752 77.052Z" fill="white"/>
<path d="M24.8869 74.1036C25.7367 74.9685 25.6857 76.0136 24.7559 76.923C23.8426 77.8164 22.7426 77.8757 21.9437 77.0626C21.1931 76.2987 21.2281 75.2318 22.0129 74.4641C22.2043 74.2769 22.421 74.279 22.6006 74.4619L24.3055 76.1971L24.3192 76.1838C24.8442 75.6702 24.8828 75.0546 24.4218 74.5853C24.1054 74.2633 23.7949 74.1711 23.2824 74.2444C23.1469 74.2538 23.0579 74.2232 22.9748 74.1386C22.8354 73.9968 22.8265 73.8021 22.9741 73.6577C23.0206 73.6122 23.0914 73.5751 23.173 73.5435C23.7353 73.3627 24.3615 73.5688 24.8869 74.1036ZM23.8899 76.5983L22.4798 75.1631C22.042 75.6181 22.0201 76.1907 22.4222 76.5999C22.8216 77.0065 23.4119 77.0069 23.8899 76.5983Z" fill="white"/>
<path d="M21.8632 70.7778C22.0331 70.9993 21.9918 71.31 21.7698 71.4795C21.5478 71.6491 21.2365 71.6078 21.0665 71.3863C20.8966 71.1649 20.938 70.8542 21.1599 70.6846C21.3819 70.5151 21.6933 70.5564 21.8632 70.7778Z" fill="white"/>
<path d="M18.1023 64.8452C18.4475 65.5572 18.408 66.2214 18.0466 66.608C18.0031 66.6587 17.9548 66.6906 17.9065 66.7139C17.7204 66.8037 17.545 66.7228 17.455 66.5371C17.3949 66.4132 17.4018 66.2783 17.4947 66.1189C17.6977 65.7918 17.7236 65.5119 17.5152 65.0819C17.3101 64.6589 16.989 64.4616 16.6891 64.6063C16.4512 64.7211 16.392 64.9237 16.4874 65.3573L16.6297 65.9931C16.8044 66.7746 16.6265 67.285 16.1094 67.5345C15.4544 67.8506 14.7449 67.4927 14.328 66.6329C14.0112 65.9794 14.0855 65.2814 14.4629 64.9719C14.5009 64.9451 14.5321 64.9216 14.5665 64.9049C14.732 64.8251 14.8923 64.875 14.9824 65.0607C15.0408 65.1811 15.0511 65.3077 14.9689 65.4365C14.7715 65.7313 14.7334 66.0213 14.9102 66.3859C15.1036 66.7848 15.4335 66.9652 15.7162 66.8287C15.9437 66.7189 16.0172 66.467 15.9218 66.0419L15.781 65.4181C15.5882 64.5731 15.7188 64.1493 16.2566 63.8898C16.9288 63.5653 17.6688 63.951 18.1023 64.8452Z" fill="white"/>
<path d="M16.0961 60.2282C16.1691 60.4895 16.0885 60.6706 15.8308 60.8295L13.027 62.5614C12.9467 62.6155 12.8797 62.646 12.8133 62.6645C12.6068 62.7219 12.4271 62.6053 12.3623 62.3734C12.3068 62.1747 12.3808 62.0272 12.5915 61.9131L15.1895 60.4407L15.1853 60.426L12.2168 60.4584C11.9653 60.4689 11.7957 60.3455 11.7278 60.1026C11.661 59.8634 11.7432 59.6739 11.9638 59.5531L14.52 58.0448L14.5148 58.0263L11.5281 58.1075C11.2887 58.1186 11.1498 58.0342 11.0943 57.8355C11.0295 57.6036 11.1238 57.4147 11.3304 57.3573C11.3968 57.3388 11.4663 57.3314 11.5657 57.3315L14.8631 57.3662C15.1576 57.3676 15.332 57.4936 15.405 57.7549C15.4821 58.031 15.4073 58.2184 15.1438 58.371L12.7717 59.8122L12.7768 59.8306L15.5521 59.8321C15.8456 59.8298 16.021 59.9595 16.0961 60.2282Z" fill="white"/>
<path d="M9.94256 54.443C9.97519 54.7046 9.78888 54.9433 9.53047 54.9754C9.26827 55.008 9.03658 54.8211 9.00394 54.5595C8.97084 54.2941 9.14956 54.0563 9.41176 54.0238C9.67017 53.9917 9.90945 54.1776 9.94256 54.443ZM14.6166 53.8625C14.6474 54.109 14.4967 54.2933 14.2345 54.3258L10.9627 54.7321C10.6967 54.7652 10.5053 54.6234 10.4746 54.3769C10.4438 54.1305 10.5945 53.9462 10.8605 53.9132L14.1324 53.5069C14.3946 53.4743 14.5859 53.6161 14.6166 53.8625Z" fill="white"/>
<path d="M15.6051 50.6877C15.6042 50.9323 15.4351 51.0998 15.1632 51.0988L10.4991 51.0821C10.2348 51.0812 10.0746 50.9163 10.0754 50.6833C10.0763 50.4502 10.2377 50.2827 10.5019 50.2836L10.8427 50.2848L10.8428 50.2695C10.3803 50.031 10.0871 49.5676 10.0892 48.9869C10.0928 47.9667 10.8994 47.2972 12.1746 47.3017C13.4498 47.3063 14.2554 47.9778 14.2517 48.9865C14.2497 49.5634 13.9647 50.0209 13.5158 50.2485L13.5157 50.2676L15.1662 50.2735C15.4381 50.2745 15.6059 50.447 15.6051 50.6877ZM13.5501 49.217C13.5525 48.5637 13.0178 48.1529 12.1715 48.1499C11.3291 48.1469 10.7877 48.5538 10.7853 49.2072C10.7831 49.8376 11.333 50.2637 12.1639 50.2666C13.0026 50.2696 13.5479 49.8513 13.5501 49.217Z" fill="white"/>
<path d="M14.6525 43.4086C14.4522 44.6032 13.5755 45.1774 12.2914 44.963C11.0299 44.7525 10.3341 43.9003 10.5224 42.7773C10.6994 41.7221 11.5843 41.1222 12.6682 41.3031C12.9326 41.3473 13.0584 41.5232 13.0161 41.7757L12.6142 44.1724L12.6331 44.1756C13.3582 44.2966 13.8797 43.9653 13.9884 43.3171C14.063 42.8724 13.9549 42.5677 13.5937 42.1975C13.5063 42.0938 13.4787 42.004 13.4982 41.8872C13.5311 41.6912 13.6835 41.5695 13.8875 41.6035C13.9517 41.6142 14.0234 41.6494 14.0971 41.6966C14.5747 42.0436 14.7764 42.67 14.6525 43.4086ZM12.0445 44.0734L12.3769 42.0913C11.7505 42.0061 11.2738 42.3255 11.179 42.8908C11.0848 43.4523 11.4321 43.9286 12.0445 44.0734Z" fill="white"/>
<path d="M15.4416 36.0919L13.2102 35.1869L13.1006 35.4559C13.0198 35.6541 12.8573 35.7284 12.6693 35.6522C12.4777 35.5745 12.4132 35.4081 12.494 35.2099L12.6036 34.9409L12.0501 34.7164C11.8054 34.6172 11.7042 34.3988 11.7994 34.1652C11.8931 33.9351 12.1183 33.8491 12.3631 33.9484L12.9165 34.1728L13.0938 33.7374C13.1746 33.5392 13.3407 33.4664 13.5287 33.5426C13.7167 33.6189 13.7812 33.7853 13.7005 33.9835L13.5231 34.4188L15.5842 35.2548C15.8822 35.3756 16.0588 35.3277 16.1926 35.0602L16.2206 35.0015C16.3313 34.7907 16.4647 34.7169 16.6456 34.7903C16.8762 34.8838 16.9212 35.1082 16.7683 35.4834L16.7525 35.5224C16.4972 36.1489 16.0588 36.3423 15.4416 36.0919Z" fill="white"/>
<path d="M18.6643 31.5724C18.0889 32.5689 17.0235 32.8295 15.8987 32.1829C14.7772 31.5382 14.4708 30.4845 15.0443 29.4913C15.6179 28.4982 16.6852 28.2342 17.8066 28.8789C18.9315 29.5256 19.2398 30.5759 18.6643 31.5724ZM18.0737 31.2329C18.3987 30.6701 18.1625 30.0536 17.3861 29.6073C16.613 29.1628 15.958 29.2714 15.635 29.8309C15.3119 30.3904 15.5462 31.0101 16.3193 31.4546C17.0957 31.9009 17.7506 31.7924 18.0737 31.2329Z" fill="white"/>
<path d="M23.8384 24.4508C23.039 25.2794 21.9419 25.265 21.0177 24.3773C20.0991 23.4949 20.0266 22.3911 20.8233 21.5653C21.3625 21.0065 22.1226 20.8138 22.6503 21.0767C22.7131 21.1052 22.7734 21.1419 22.8147 21.1817C22.9665 21.3274 22.9567 21.5249 22.8159 21.6708C22.6938 21.7974 22.5751 21.8212 22.3736 21.7656C21.9543 21.6493 21.6253 21.7257 21.3305 22.0313C20.8817 22.4965 20.9785 23.1729 21.5965 23.7664C22.2282 24.3733 22.9009 24.4254 23.3444 23.9657C23.6551 23.6437 23.7003 23.3104 23.5847 22.9289C23.5209 22.7085 23.5323 22.5975 23.6571 22.4682C23.7979 22.3223 24.0008 22.3103 24.1498 22.4534C24.1967 22.4985 24.2357 22.5572 24.2724 22.6349C24.5263 23.1705 24.3563 23.9141 23.8384 24.4508Z" fill="white"/>
<path d="M27.8263 22.5688C27.5219 22.8006 27.2685 22.8158 27.1128 22.6123C27.0059 22.4726 27.0336 22.3073 27.1919 22.1867C27.2619 22.1334 27.2886 22.1179 27.3647 22.0599C27.5473 21.9208 27.6563 21.6792 27.524 21.2608L27.4432 21.0292L24.2317 19.0482C24.1562 18.9999 24.0929 18.9424 24.0534 18.8908C23.9163 18.7116 23.9641 18.4781 24.1558 18.332C24.3202 18.2068 24.468 18.2048 24.6653 18.343L27.3213 20.1269L27.3305 20.12L26.3089 17.091C26.2266 16.8701 26.2622 16.7277 26.4296 16.6002C26.6183 16.4564 26.8444 16.4812 26.9792 16.6574C27.0187 16.709 27.0577 16.7851 27.0851 16.8651L28.2165 20.642C28.5213 21.626 28.4198 22.1167 27.8263 22.5688Z" fill="white"/>
<path d="M32.3918 17.7155C31.3798 18.2659 30.3377 17.9232 29.7237 16.7993C29.1134 15.6822 29.3768 14.6077 30.3855 14.0591C31.0681 13.6879 31.8511 13.732 32.2751 14.141C32.3265 14.1871 32.3729 14.2402 32.4004 14.2905C32.5012 14.475 32.4324 14.6604 32.2542 14.7573C32.0995 14.8414 31.9791 14.8286 31.8037 14.7151C31.4389 14.4784 31.1021 14.4527 30.7289 14.6556C30.1606 14.9647 30.0492 15.6389 30.4598 16.3903C30.8795 17.1586 31.5053 17.41 32.0668 17.1046C32.4602 16.8907 32.6036 16.5864 32.6083 16.1878C32.6139 15.9585 32.6582 15.8561 32.8163 15.7701C32.9945 15.6732 33.1916 15.7227 33.2905 15.9038C33.3217 15.9608 33.3412 16.0285 33.3528 16.1136C33.4337 16.7006 33.0475 17.3589 32.3918 17.7155Z" fill="white"/>
<path d="M36.2193 15.8388C35.9949 15.9272 35.7741 15.8375 35.6743 15.5852L33.9123 11.1323C33.8124 10.8799 33.9122 10.664 34.1366 10.5756C34.361 10.4872 34.5818 10.5769 34.6816 10.8292L36.4437 15.2822C36.5435 15.5345 36.4437 15.7504 36.2193 15.8388Z" fill="white"/>
<path d="M40.4692 14.3827C39.2935 14.6843 38.412 14.1174 38.0879 12.8593C37.7694 11.6233 38.2682 10.6433 39.3734 10.3598C40.4119 10.0934 41.3202 10.6573 41.5939 11.7193C41.6606 11.9784 41.5504 12.1644 41.3019 12.2282L38.9431 12.8332L38.9479 12.8517C39.1309 13.5622 39.6459 13.9035 40.2838 13.7399C40.7215 13.6276 40.9568 13.4055 41.1496 12.9261C41.2092 12.8043 41.2803 12.7426 41.3952 12.7131C41.5881 12.6637 41.7614 12.7533 41.8129 12.9532C41.8291 13.0161 41.826 13.0958 41.8126 13.1821C41.6883 13.7584 41.1961 14.1963 40.4692 14.3827ZM38.8029 12.2735L40.7537 11.7731C40.5778 11.1673 40.0919 10.8619 39.5356 11.0046C38.983 11.1463 38.6873 11.6561 38.8029 12.2735Z" fill="white"/>
<path d="M44.8572 13.4379C44.58 13.4737 44.3312 13.2823 44.2953 13.0057C44.2594 12.7291 44.4512 12.4809 44.7284 12.4451C45.0057 12.4093 45.2544 12.6006 45.2903 12.8773C45.3262 13.1539 45.1344 13.4021 44.8572 13.4379Z" fill="white"/>
</g>
<g filter="url(#filter1_dd_545_1714)">
<circle cx="50" cy="153" r="32" fill="#B33434" fill-opacity="0.5"/>
<circle cx="50" cy="153" r="20" fill="#A23030" fill-opacity="0.75"/>
<circle cx="50" cy="153" r="10" fill="#892424"/>
<path d="M51.964 117.162C51.1734 117.104 50.6171 116.737 50.4627 116.231C50.4405 116.168 50.4371 116.111 50.441 116.057C50.4563 115.852 50.6143 115.741 50.8206 115.756C50.958 115.766 51.0716 115.84 51.1634 116C51.3455 116.339 51.5753 116.501 52.0527 116.537C52.5224 116.571 52.8544 116.393 52.8791 116.061C52.8986 115.799 52.7525 115.646 52.3286 115.511L51.7058 115.316C50.9403 115.075 50.5867 114.666 50.6292 114.094C50.6831 113.37 51.3489 112.937 52.3036 113.008C53.0292 113.061 53.5975 113.475 53.6769 113.956C53.6811 114.002 53.6859 114.041 53.6831 114.079C53.6695 114.262 53.5459 114.375 53.3397 114.36C53.206 114.35 53.091 114.296 53.0204 114.16C52.8636 113.842 52.6311 113.664 52.2263 113.634C51.7833 113.601 51.4617 113.796 51.4384 114.108C51.4197 114.36 51.6015 114.549 52.018 114.68L52.6297 114.871C53.4592 115.127 53.7615 115.453 53.7173 116.047C53.662 116.79 52.9569 117.236 51.964 117.162Z" fill="white"/>
<path d="M56.9675 117.739C56.7041 117.671 56.5873 117.511 56.5781 117.209L56.4765 113.92C56.4697 113.824 56.4767 113.751 56.4939 113.684C56.5473 113.477 56.7383 113.38 56.972 113.44C57.1723 113.491 57.2633 113.629 57.2571 113.868L57.2362 116.849L57.2511 116.853L58.707 114.272C58.8236 114.049 59.0155 113.964 59.2603 114.027C59.5014 114.089 59.6247 114.255 59.6193 114.506L59.6507 117.468L59.6692 117.473L61.0919 114.852C61.202 114.639 61.3447 114.562 61.5449 114.613C61.7786 114.673 61.8954 114.849 61.842 115.056C61.8248 115.123 61.7965 115.186 61.7467 115.272L60.0681 118.104C59.9196 118.358 59.7231 118.446 59.4598 118.378C59.1816 118.307 59.0563 118.148 59.0556 117.844L58.9905 115.074L58.9719 115.069L57.5832 117.467C57.4385 117.722 57.2382 117.808 56.9675 117.739Z" fill="white"/>
<path d="M65.0651 115.314C64.8217 115.211 64.7078 114.931 64.8092 114.692C64.9121 114.449 65.1901 114.342 65.4335 114.445C65.6804 114.549 65.7974 114.822 65.6944 115.065C65.593 115.304 65.312 115.418 65.0651 115.314ZM63.2306 119.642C63.0014 119.546 62.9168 119.323 63.0197 119.081L64.3039 116.051C64.4083 115.804 64.627 115.71 64.8563 115.807C65.0856 115.903 65.1701 116.126 65.0657 116.372L63.7816 119.402C63.6786 119.645 63.4599 119.739 63.2306 119.642Z" fill="white"/>
<path d="M65.4679 122.072C65.2562 121.949 65.1957 121.719 65.3328 121.485L67.6847 117.466C67.818 117.238 68.0413 117.183 68.243 117.3C68.4447 117.418 68.5091 117.641 68.3759 117.869L68.204 118.162L68.2172 118.17C68.6559 117.89 69.2047 117.869 69.7074 118.162C70.5903 118.676 70.7668 119.708 70.1238 120.807C69.4808 121.906 68.4946 122.265 67.6216 121.756C67.1223 121.465 66.8683 120.99 66.8959 120.488L66.8793 120.479L66.0471 121.901C65.91 122.135 65.6762 122.194 65.4679 122.072ZM67.7733 121.035C68.3387 121.364 68.9629 121.109 69.3897 120.379C69.8145 119.654 69.7329 118.982 69.1674 118.653C68.6218 118.335 67.9767 118.596 67.5577 119.312C67.1348 120.035 67.2243 120.715 67.7733 121.035Z" fill="white"/>
<path d="M72.2386 124.887C71.3029 124.115 71.2444 123.07 72.074 122.069C72.8889 121.086 73.9767 120.912 74.8562 121.638C75.6826 122.319 75.7594 123.384 75.0591 124.229C74.8884 124.435 74.6727 124.456 74.475 124.292L72.5978 122.744L72.5856 122.759C72.1172 123.324 72.1431 123.941 72.6508 124.359C72.9991 124.647 73.3175 124.706 73.8196 124.58C73.9533 124.556 74.0451 124.577 74.1366 124.653C74.2901 124.779 74.3193 124.972 74.1875 125.131C74.146 125.181 74.0795 125.226 74.0017 125.265C73.4614 125.504 72.8171 125.364 72.2386 124.887ZM72.9692 122.302L74.5217 123.582C74.9095 123.084 74.8714 122.513 74.4287 122.148C73.989 121.785 73.4018 121.846 72.9692 122.302Z" fill="white"/>
<path d="M78.1951 129.233L80.0946 127.755L79.9157 127.526C79.7838 127.357 79.8004 127.179 79.9604 127.055C80.1235 126.928 80.3002 126.955 80.4321 127.124L80.611 127.353L81.0821 126.987C81.2905 126.825 81.5307 126.846 81.6861 127.045C81.8391 127.241 81.8015 127.478 81.5931 127.64L81.122 128.007L81.4116 128.378C81.5434 128.546 81.5238 128.726 81.3638 128.851C81.2037 128.975 81.027 128.948 80.8952 128.779L80.6056 128.409L78.851 129.774C78.5973 129.971 78.5508 130.148 78.7164 130.397L78.7534 130.45C78.8812 130.651 78.8787 130.803 78.7247 130.923C78.5284 131.076 78.311 131.003 78.0614 130.683L78.0355 130.65C77.6188 130.117 77.6696 129.641 78.1951 129.233Z" fill="white"/>
<path d="M80.5082 134.264C79.9288 133.27 80.233 132.219 81.3552 131.567C82.4741 130.918 83.5424 131.178 84.1199 132.169C84.6974 133.16 84.3952 134.215 83.2763 134.864C82.154 135.515 81.0876 135.258 80.5082 134.264ZM81.0975 133.922C81.4247 134.484 82.0781 134.587 82.8528 134.137C83.6241 133.69 83.856 133.069 83.5307 132.511C83.2054 131.953 82.55 131.847 81.7787 132.294C81.004 132.744 80.7722 133.364 81.0975 133.922Z" fill="white"/>
<path d="M84.1152 142.29C83.7956 141.185 84.3566 140.244 85.5892 139.889C86.8144 139.536 87.8087 140.026 88.1272 141.127C88.3427 141.872 88.13 142.625 87.638 142.95C87.5818 142.99 87.5198 143.024 87.4646 143.04C87.2622 143.098 87.0957 142.991 87.0395 142.796C86.9907 142.627 87.0293 142.513 87.1783 142.366C87.4889 142.062 87.587 141.74 87.4691 141.332C87.2898 140.712 86.6542 140.457 85.83 140.695C84.9875 140.937 84.606 141.492 84.7832 142.105C84.9074 142.535 85.1741 142.741 85.5631 142.831C85.7862 142.886 85.8769 142.952 85.9268 143.124C85.983 143.319 85.892 143.5 85.6933 143.557C85.6307 143.575 85.5603 143.58 85.4745 143.573C84.8826 143.524 84.3221 143.006 84.1152 142.29Z" fill="white"/>
<path d="M83.7515 146.669C83.703 146.29 83.8168 146.064 84.0713 146.031C84.2461 146.009 84.3756 146.116 84.4008 146.313C84.412 146.4 84.4121 146.431 84.4242 146.526C84.4533 146.753 84.6083 146.968 85.0375 147.064L85.2789 147.11L88.6064 145.33C88.6861 145.289 88.7677 145.263 88.8323 145.255C89.0564 145.226 89.2349 145.384 89.2655 145.623C89.2917 145.828 89.2194 145.956 89.0007 146.058L86.1224 147.457L86.1239 147.468L89.2629 148.104C89.4957 148.144 89.6015 148.246 89.6282 148.454C89.6583 148.689 89.5234 148.872 89.3031 148.9C89.2385 148.908 89.153 148.904 89.0698 148.888L85.2271 147.972C84.2209 147.742 83.8462 147.408 83.7515 146.669Z" fill="white"/>
<path d="M85.6738 153.098C85.7035 151.948 86.523 151.22 87.8054 151.253C89.0802 151.286 89.8801 152.052 89.8504 153.198C89.8304 153.973 89.3997 154.627 88.8324 154.788C88.7668 154.809 88.6975 154.823 88.64 154.821C88.4295 154.816 88.3032 154.664 88.3084 154.461C88.313 154.285 88.3845 154.188 88.5708 154.093C88.9589 153.897 89.15 153.619 89.161 153.195C89.1777 152.55 88.6488 152.116 87.7913 152.093C86.9147 152.071 86.383 152.485 86.3665 153.123C86.3549 153.57 86.5469 153.846 86.8902 154.05C87.0863 154.17 87.153 154.259 87.1483 154.439C87.1431 154.641 87.0014 154.787 86.7947 154.781C86.7296 154.78 86.6611 154.763 86.5815 154.73C86.0319 154.506 85.6545 153.842 85.6738 153.098Z" fill="white"/>
<path d="M85.385 157.35C85.4205 157.112 85.6087 156.966 85.8777 157.006L90.6236 157.711C90.8925 157.751 91.03 157.945 90.9945 158.183C90.959 158.421 90.7707 158.567 90.5018 158.527L85.7559 157.822C85.4869 157.782 85.3495 157.588 85.385 157.35Z" fill="white"/>
<path d="M84.5237 161.751C84.8497 160.584 85.7824 160.106 87.0366 160.454C88.2686 160.797 88.87 161.718 88.5635 162.815C88.2755 163.845 87.3319 164.348 86.2733 164.054C86.015 163.982 85.9086 163.794 85.9775 163.547L86.6316 161.206L86.6132 161.201C85.905 161.004 85.3512 161.279 85.1743 161.912C85.053 162.346 85.1281 162.66 85.4479 163.067C85.5239 163.179 85.5418 163.271 85.5099 163.385C85.4564 163.577 85.2919 163.682 85.0928 163.626C85.0301 163.609 84.9625 163.566 84.8942 163.512C84.4562 163.116 84.3221 162.472 84.5237 161.751ZM87.1876 161.365L86.6466 163.301C87.2604 163.452 87.7684 163.185 87.9227 162.633C88.0759 162.084 87.7812 161.574 87.1876 161.365Z" fill="white"/>
<path d="M83.1502 166.013C83.2578 165.756 83.5483 165.637 83.8063 165.744C84.0643 165.852 84.1838 166.141 84.0761 166.399C83.9685 166.656 83.678 166.775 83.42 166.668C83.162 166.561 83.0425 166.271 83.1502 166.013Z" fill="white"/>
<path d="M79.8674 172.227C80.3141 171.574 80.9109 171.277 81.4269 171.397C81.4927 171.409 81.5444 171.435 81.5887 171.465C81.7595 171.581 81.7766 171.773 81.6601 171.944C81.5824 172.058 81.4617 172.119 81.2769 172.118C80.8915 172.105 80.6354 172.222 80.3656 172.617C80.1002 173.005 80.0888 173.381 80.364 173.569C80.5823 173.717 80.7878 173.667 81.1171 173.369L81.5986 172.929C82.1907 172.388 82.7228 172.288 83.1974 172.611C83.7984 173.02 83.841 173.812 83.3015 174.601C82.8916 175.201 82.2481 175.484 81.7911 175.312C81.7488 175.293 81.7128 175.277 81.6812 175.256C81.5293 175.152 81.4928 174.989 81.6094 174.818C81.6849 174.708 81.7897 174.636 81.9426 174.643C82.2971 174.667 82.5681 174.555 82.7968 174.221C83.0471 173.854 83.0394 173.479 82.78 173.303C82.5712 173.161 82.3157 173.223 81.9939 173.517L81.5219 173.95C80.8837 174.537 80.4504 174.636 79.9569 174.3C79.34 173.88 79.3063 173.048 79.8674 172.227Z" fill="white"/>
<path d="M76.8512 176.27C77.0415 176.077 77.239 176.056 77.5058 176.199L80.4106 177.756C80.4977 177.798 80.5577 177.841 80.6069 177.889C80.7601 178.039 80.7486 178.253 80.5798 178.424C80.435 178.572 80.2699 178.582 80.0656 178.457L77.4889 176.947L77.4781 176.958L78.9902 179.507C79.125 179.72 79.1027 179.928 78.9257 180.108C78.7515 180.285 78.5459 180.309 78.3307 180.179L75.7437 178.724L75.7303 178.737L77.2937 181.278C77.423 181.479 77.4192 181.641 77.2744 181.789C77.1055 181.96 76.8944 181.973 76.7413 181.824C76.6921 181.775 76.6509 181.719 76.6013 181.633L74.9832 178.766C74.8371 178.511 74.8594 178.297 75.0497 178.104C75.2508 177.899 75.4509 177.87 75.715 178.022L78.1519 179.351L78.1653 179.337L76.7793 176.938C76.6306 176.686 76.6555 176.469 76.8512 176.27Z" fill="white"/>
<path d="M74.9057 184.484C75.1163 184.325 75.4168 184.366 75.574 184.573C75.7336 184.783 75.6876 185.077 75.477 185.236C75.2634 185.398 74.9676 185.362 74.808 185.152C74.6507 184.945 74.6921 184.645 74.9057 184.484ZM72.0609 180.738C72.2593 180.588 72.4946 180.626 72.6542 180.836L74.6456 183.458C74.8075 183.671 74.7803 183.908 74.5819 184.058C74.3836 184.208 74.1482 184.17 73.9863 183.957L71.9949 181.335C71.8353 181.125 71.8625 180.888 72.0609 180.738Z" fill="white"/>
<path d="M68.8464 181.454C69.059 181.332 69.289 181.394 69.4243 181.629L71.7464 185.665C71.878 185.894 71.8152 186.115 71.6126 186.231C71.4101 186.347 71.1839 186.292 71.0523 186.063L70.8826 185.768L70.8694 185.776C70.8941 186.295 70.6391 186.78 70.1343 187.069C69.2475 187.577 68.2627 187.216 67.6278 186.112C66.993 185.009 67.1719 183.977 68.0487 183.475C68.5501 183.188 69.0897 183.204 69.5121 183.478L69.5287 183.469L68.707 182.04C68.5716 181.805 68.6372 181.574 68.8464 181.454ZM68.6001 183.965C68.0322 184.29 67.9438 184.958 68.3651 185.69C68.7845 186.419 69.4087 186.683 69.9766 186.358C70.5246 186.044 70.6187 185.355 70.205 184.636C69.7875 183.911 69.1514 183.649 68.6001 183.965Z" fill="white"/>
<path d="M63.0252 185.911C64.1623 185.487 65.099 185.957 65.5548 187.174C66.0025 188.37 65.6105 189.397 64.5416 189.795C63.5372 190.17 62.5741 189.705 62.1893 188.678C62.0955 188.427 62.1854 188.231 62.4257 188.141L64.7071 187.29L64.7004 187.273C64.443 186.585 63.8947 186.3 63.2778 186.53C62.8545 186.688 62.644 186.934 62.5031 187.431C62.4568 187.558 62.3927 187.627 62.2815 187.669C62.0949 187.738 61.9131 187.667 61.8407 187.474C61.8179 187.413 61.8126 187.334 61.8167 187.247C61.8792 186.66 62.3222 186.173 63.0252 185.911ZM64.9059 187.832L63.0191 188.536C63.2582 189.12 63.7738 189.372 64.3119 189.171C64.8464 188.972 65.0863 188.434 64.9059 187.832Z" fill="white"/>
<path d="M56.2814 188.885L56.6116 191.265L56.8999 191.226C57.1123 191.196 57.2581 191.299 57.2859 191.5C57.3143 191.704 57.2021 191.843 56.9897 191.873L56.7014 191.913L56.7833 192.503C56.8195 192.764 56.6805 192.961 56.4302 192.995C56.1836 193.029 55.9964 192.878 55.9601 192.617L55.8782 192.026L55.4117 192.091C55.1993 192.12 55.053 192.013 55.0251 191.812C54.9973 191.612 55.1095 191.473 55.3219 191.443L55.7885 191.379L55.4835 189.18C55.4394 188.862 55.3094 188.734 55.0104 188.752L54.9454 188.757C54.7071 188.767 54.5763 188.688 54.5496 188.495C54.5154 188.249 54.6878 188.098 55.0899 188.043L55.1316 188.037C55.803 187.944 56.1901 188.226 56.2814 188.885Z" fill="white"/>
<path d="M50.7247 188.362C51.8773 188.36 52.6371 189.15 52.6397 190.445C52.6423 191.736 51.8818 192.529 50.733 192.531C49.5841 192.533 48.8205 191.744 48.818 190.452C48.8154 189.157 49.5721 188.365 50.7247 188.362ZM50.726 189.043C50.0751 189.044 49.6587 189.557 49.6604 190.451C49.6622 191.341 50.0844 191.852 50.7316 191.851C51.3788 191.85 51.799 191.337 51.7972 190.446C51.7955 189.552 51.3732 189.041 50.726 189.043Z" fill="white"/>
<path d="M41.9306 187.463C43.0495 187.739 43.5861 188.694 43.2782 189.936C42.9721 191.171 42.0505 191.786 40.9353 191.511C40.1806 191.325 39.633 190.765 39.5972 190.178C39.5905 190.109 39.5922 190.039 39.6059 189.983C39.6565 189.779 39.8327 189.689 40.0297 189.737C40.2007 189.779 40.2809 189.87 40.3334 190.072C40.4422 190.492 40.6732 190.738 41.0858 190.84C41.7141 190.995 42.2526 190.573 42.4585 189.742C42.669 188.893 42.3776 188.285 41.7568 188.132C41.3218 188.025 41.0101 188.153 40.7369 188.444C40.5776 188.609 40.4755 188.655 40.3008 188.611C40.1038 188.563 39.9919 188.394 40.0415 188.193C40.0571 188.13 40.0886 188.067 40.1376 187.997C40.4753 187.509 41.2057 187.284 41.9306 187.463Z" fill="white"/>
<path d="M38.3109 184.96C38.6641 185.108 38.8037 185.32 38.7046 185.556C38.6365 185.718 38.4791 185.776 38.2955 185.7C38.2142 185.666 38.1874 185.65 38.0991 185.613C37.8872 185.525 37.6229 185.551 37.3254 185.874L37.1646 186.06L37.0458 189.825C37.0415 189.914 37.0231 189.998 36.998 190.058C36.9107 190.266 36.684 190.341 36.4615 190.248C36.2708 190.168 36.1953 190.041 36.2169 189.802L36.4416 186.615L36.431 186.611L34.3095 189.005C34.1587 189.186 34.0172 189.227 33.8229 189.146C33.6039 189.054 33.5127 188.846 33.5984 188.642C33.6236 188.582 33.6703 188.51 33.726 188.447L36.4425 185.584C37.1452 184.83 37.6221 184.673 38.3109 184.96Z" fill="white"/>
<path d="M31.8076 183.425C32.7899 184.026 33.0109 185.099 32.3399 186.19C31.6728 187.274 30.6077 187.581 29.6286 186.981C28.9661 186.576 28.6145 185.876 28.7589 185.306C28.7734 185.238 28.7964 185.172 28.8264 185.123C28.9366 184.944 29.132 184.911 29.305 185.017C29.4551 185.109 29.5039 185.219 29.4926 185.428C29.4685 185.861 29.6139 186.165 29.9761 186.387C30.5277 186.725 31.1691 186.486 31.6178 185.756C32.0766 185.011 31.9835 184.344 31.4385 184.01C31.0566 183.776 30.7207 183.804 30.372 183.998C30.1699 184.107 30.0588 184.12 29.9054 184.026C29.7324 183.92 29.6773 183.725 29.7854 183.549C29.8195 183.494 29.8686 183.443 29.9368 183.391C30.4067 183.029 31.1712 183.035 31.8076 183.425Z" fill="white"/>
<path d="M28.2752 181.052C28.4639 181.202 28.4961 181.438 28.3267 181.65L25.3377 185.395C25.1683 185.607 24.931 185.628 24.7422 185.479C24.5535 185.329 24.5213 185.093 24.6907 184.881L27.6797 181.136C27.8491 180.923 28.0864 180.902 28.2752 181.052Z" fill="white"/>
<path d="M24.8869 178.104C25.7367 178.968 25.6857 180.014 24.7559 180.923C23.8426 181.816 22.7426 181.876 21.9437 181.063C21.1931 180.299 21.2281 179.232 22.0129 178.464C22.2043 178.277 22.421 178.279 22.6006 178.462L24.3055 180.197L24.3192 180.184C24.8442 179.67 24.8828 179.055 24.4218 178.585C24.1054 178.263 23.7949 178.171 23.2824 178.244C23.1469 178.254 23.0579 178.223 22.9748 178.139C22.8354 177.997 22.8265 177.802 22.9741 177.658C23.0206 177.612 23.0914 177.575 23.173 177.544C23.7353 177.363 24.3615 177.569 24.8869 178.104ZM23.8899 180.598L22.4798 179.163C22.042 179.618 22.0201 180.191 22.4222 180.6C22.8216 181.006 23.4119 181.007 23.8899 180.598Z" fill="white"/>
<path d="M21.8632 174.778C22.0331 174.999 21.9918 175.31 21.7698 175.48C21.5478 175.649 21.2365 175.608 21.0665 175.386C20.8966 175.165 20.938 174.854 21.1599 174.685C21.3819 174.515 21.6933 174.556 21.8632 174.778Z" fill="white"/>
<path d="M18.1023 168.845C18.4475 169.557 18.408 170.221 18.0466 170.608C18.0031 170.659 17.9548 170.691 17.9065 170.714C17.7204 170.804 17.545 170.723 17.455 170.537C17.3949 170.413 17.4018 170.278 17.4947 170.119C17.6977 169.792 17.7236 169.512 17.5152 169.082C17.3101 168.659 16.989 168.462 16.6891 168.606C16.4512 168.721 16.392 168.924 16.4874 169.357L16.6297 169.993C16.8044 170.775 16.6265 171.285 16.1094 171.535C15.4544 171.851 14.7449 171.493 14.328 170.633C14.0112 169.979 14.0855 169.281 14.4629 168.972C14.5009 168.945 14.5321 168.922 14.5665 168.905C14.732 168.825 14.8923 168.875 14.9824 169.061C15.0408 169.181 15.0511 169.308 14.9689 169.437C14.7715 169.731 14.7334 170.021 14.9102 170.386C15.1036 170.785 15.4335 170.965 15.7162 170.829C15.9437 170.719 16.0172 170.467 15.9218 170.042L15.781 169.418C15.5882 168.573 15.7188 168.149 16.2566 167.89C16.9288 167.565 17.6688 167.951 18.1023 168.845Z" fill="white"/>
<path d="M16.0961 164.228C16.1691 164.489 16.0885 164.671 15.8308 164.83L13.027 166.561C12.9467 166.615 12.8797 166.646 12.8133 166.664C12.6068 166.722 12.4271 166.605 12.3623 166.373C12.3068 166.175 12.3808 166.027 12.5915 165.913L15.1895 164.441L15.1853 164.426L12.2168 164.458C11.9653 164.469 11.7957 164.346 11.7278 164.103C11.661 163.863 11.7432 163.674 11.9638 163.553L14.52 162.045L14.5148 162.026L11.5281 162.107C11.2887 162.119 11.1498 162.034 11.0943 161.835C11.0295 161.604 11.1238 161.415 11.3304 161.357C11.3968 161.339 11.4663 161.331 11.5657 161.332L14.8631 161.366C15.1576 161.368 15.332 161.494 15.405 161.755C15.4821 162.031 15.4073 162.218 15.1438 162.371L12.7717 163.812L12.7768 163.831L15.5521 163.832C15.8456 163.83 16.021 163.96 16.0961 164.228Z" fill="white"/>
<path d="M9.94256 158.443C9.97519 158.705 9.78888 158.943 9.53047 158.975C9.26827 159.008 9.03658 158.821 9.00394 158.56C8.97084 158.294 9.14956 158.056 9.41176 158.024C9.67017 157.992 9.90945 158.178 9.94256 158.443ZM14.6166 157.863C14.6474 158.109 14.4967 158.293 14.2345 158.326L10.9627 158.732C10.6967 158.765 10.5053 158.623 10.4746 158.377C10.4438 158.13 10.5945 157.946 10.8605 157.913L14.1324 157.507C14.3946 157.474 14.5859 157.616 14.6166 157.863Z" fill="white"/>
<path d="M15.6051 154.688C15.6042 154.932 15.4351 155.1 15.1632 155.099L10.4991 155.082C10.2348 155.081 10.0746 154.916 10.0754 154.683C10.0763 154.45 10.2377 154.283 10.5019 154.284L10.8427 154.285L10.8428 154.27C10.3803 154.031 10.0871 153.568 10.0892 152.987C10.0928 151.967 10.8994 151.297 12.1746 151.302C13.4498 151.306 14.2554 151.978 14.2517 152.986C14.2497 153.563 13.9647 154.021 13.5158 154.249L13.5157 154.268L15.1662 154.274C15.4381 154.274 15.6059 154.447 15.6051 154.688ZM13.5501 153.217C13.5525 152.564 13.0178 152.153 12.1715 152.15C11.3291 152.147 10.7877 152.554 10.7853 153.207C10.7831 153.838 11.333 154.264 12.1639 154.267C13.0026 154.27 13.5479 153.851 13.5501 153.217Z" fill="white"/>
<path d="M14.6525 147.409C14.4522 148.603 13.5755 149.177 12.2914 148.963C11.0299 148.752 10.3341 147.9 10.5224 146.777C10.6994 145.722 11.5843 145.122 12.6682 145.303C12.9326 145.347 13.0584 145.523 13.0161 145.776L12.6142 148.172L12.6331 148.176C13.3582 148.297 13.8797 147.965 13.9884 147.317C14.063 146.872 13.9549 146.568 13.5937 146.198C13.5063 146.094 13.4787 146.004 13.4982 145.887C13.5311 145.691 13.6835 145.569 13.8875 145.604C13.9517 145.614 14.0234 145.649 14.0971 145.697C14.5747 146.044 14.7764 146.67 14.6525 147.409ZM12.0445 148.073L12.3769 146.091C11.7505 146.006 11.2738 146.326 11.179 146.891C11.0848 147.452 11.4321 147.929 12.0445 148.073Z" fill="white"/>
<path d="M15.4416 140.092L13.2102 139.187L13.1006 139.456C13.0198 139.654 12.8573 139.728 12.6693 139.652C12.4777 139.574 12.4132 139.408 12.494 139.21L12.6036 138.941L12.0501 138.716C11.8054 138.617 11.7042 138.399 11.7994 138.165C11.8931 137.935 12.1183 137.849 12.3631 137.948L12.9165 138.173L13.0938 137.737C13.1746 137.539 13.3407 137.466 13.5287 137.543C13.7167 137.619 13.7812 137.785 13.7005 137.983L13.5231 138.419L15.5842 139.255C15.8822 139.376 16.0588 139.328 16.1926 139.06L16.2206 139.001C16.3313 138.791 16.4647 138.717 16.6456 138.79C16.8762 138.884 16.9212 139.108 16.7683 139.483L16.7525 139.522C16.4972 140.149 16.0588 140.342 15.4416 140.092Z" fill="white"/>
<path d="M18.6643 135.572C18.0889 136.569 17.0235 136.83 15.8987 136.183C14.7772 135.538 14.4708 134.485 15.0443 133.491C15.6179 132.498 16.6852 132.234 17.8066 132.879C18.9315 133.526 19.2398 134.576 18.6643 135.572ZM18.0737 135.233C18.3987 134.67 18.1625 134.054 17.3861 133.607C16.613 133.163 15.958 133.271 15.635 133.831C15.3119 134.39 15.5462 135.01 16.3193 135.455C17.0957 135.901 17.7506 135.792 18.0737 135.233Z" fill="white"/>
<path d="M23.8384 128.451C23.039 129.279 21.9419 129.265 21.0177 128.377C20.0991 127.495 20.0266 126.391 20.8233 125.565C21.3625 125.007 22.1226 124.814 22.6503 125.077C22.7131 125.105 22.7734 125.142 22.8147 125.182C22.9665 125.327 22.9567 125.525 22.8159 125.671C22.6938 125.797 22.5751 125.821 22.3736 125.766C21.9543 125.649 21.6253 125.726 21.3305 126.031C20.8817 126.496 20.9785 127.173 21.5965 127.766C22.2282 128.373 22.9009 128.425 23.3444 127.966C23.6551 127.644 23.7003 127.31 23.5847 126.929C23.5209 126.709 23.5323 126.598 23.6571 126.468C23.7979 126.322 24.0008 126.31 24.1498 126.453C24.1967 126.498 24.2357 126.557 24.2724 126.635C24.5263 127.17 24.3563 127.914 23.8384 128.451Z" fill="white"/>
<path d="M27.8263 126.569C27.5219 126.801 27.2685 126.816 27.1128 126.612C27.0059 126.473 27.0336 126.307 27.1919 126.187C27.2619 126.133 27.2886 126.118 27.3647 126.06C27.5473 125.921 27.6563 125.679 27.524 125.261L27.4432 125.029L24.2317 123.048C24.1562 123 24.0929 122.942 24.0534 122.891C23.9163 122.712 23.9641 122.478 24.1558 122.332C24.3202 122.207 24.468 122.205 24.6653 122.343L27.3213 124.127L27.3305 124.12L26.3089 121.091C26.2266 120.87 26.2622 120.728 26.4296 120.6C26.6183 120.456 26.8444 120.481 26.9792 120.657C27.0187 120.709 27.0577 120.785 27.0851 120.865L28.2165 124.642C28.5213 125.626 28.4198 126.117 27.8263 126.569Z" fill="white"/>
<path d="M32.3918 121.715C31.3798 122.266 30.3377 121.923 29.7237 120.799C29.1134 119.682 29.3768 118.608 30.3855 118.059C31.0681 117.688 31.8511 117.732 32.2751 118.141C32.3265 118.187 32.3729 118.24 32.4004 118.29C32.5012 118.475 32.4324 118.66 32.2542 118.757C32.0995 118.841 31.9791 118.829 31.8037 118.715C31.4389 118.478 31.1021 118.453 30.7289 118.656C30.1606 118.965 30.0492 119.639 30.4598 120.39C30.8795 121.159 31.5053 121.41 32.0668 121.105C32.4602 120.891 32.6036 120.586 32.6083 120.188C32.6139 119.959 32.6582 119.856 32.8163 119.77C32.9945 119.673 33.1916 119.723 33.2905 119.904C33.3217 119.961 33.3412 120.029 33.3528 120.114C33.4337 120.701 33.0475 121.359 32.3918 121.715Z" fill="white"/>
<path d="M36.2193 119.839C35.9949 119.927 35.7741 119.838 35.6743 119.585L33.9123 115.132C33.8124 114.88 33.9122 114.664 34.1366 114.576C34.361 114.487 34.5818 114.577 34.6816 114.829L36.4437 119.282C36.5435 119.534 36.4437 119.75 36.2193 119.839Z" fill="white"/>
<path d="M40.4692 118.383C39.2935 118.684 38.412 118.117 38.0879 116.859C37.7694 115.623 38.2682 114.643 39.3734 114.36C40.4119 114.093 41.3202 114.657 41.5939 115.719C41.6606 115.978 41.5504 116.164 41.3019 116.228L38.9431 116.833L38.9479 116.852C39.1309 117.562 39.6459 117.904 40.2838 117.74C40.7215 117.628 40.9568 117.406 41.1496 116.926C41.2092 116.804 41.2803 116.743 41.3952 116.713C41.5881 116.664 41.7614 116.753 41.8129 116.953C41.8291 117.016 41.826 117.096 41.8126 117.182C41.6883 117.758 41.1961 118.196 40.4692 118.383ZM38.8029 116.273L40.7537 115.773C40.5778 115.167 40.0919 114.862 39.5356 115.005C38.983 115.146 38.6873 115.656 38.8029 116.273Z" fill="white"/>
<path d="M44.8572 117.438C44.58 117.474 44.3312 117.282 44.2953 117.006C44.2594 116.729 44.4512 116.481 44.7284 116.445C45.0057 116.409 45.2544 116.601 45.2903 116.877C45.3262 117.154 45.1344 117.402 44.8572 117.438Z" fill="white"/>
</g>
<defs>
<filter id="filter0_dd_545_1714" x="0" y="0" width="102" height="100" filterUnits="userSpaceOnUse" color-interpolation-filters="sRGB">
<feFlood flood-opacity="0" result="BackgroundImageFix"/>
<feColorMatrix in="SourceAlpha" type="matrix" values="0 0 0 0 0 0 0 0 0 0 0 0 0 0 0 0 0 0 127 0" result="hardAlpha"/>
<feOffset dx="-3" dy="-3"/>
<feGaussianBlur stdDeviation="3"/>
<feComposite in2="hardAlpha" operator="out"/>
<feColorMatrix type="matrix" values="0 0 0 0 1 0 0 0 0 1 0 0 0 0 1 0 0 0 0.12 0"/>
<feBlend mode="normal" in2="BackgroundImageFix" result="effect1_dropShadow_545_1714"/>
<feColorMatrix in="SourceAlpha" type="matrix" values="0 0 0 0 0 0 0 0 0 0 0 0 0 0 0 0 0 0 127 0" result="hardAlpha"/>
<feOffset dx="3" dy="3"/>
<feGaussianBlur stdDeviation="4"/>
<feComposite in2="hardAlpha" operator="out"/>
<feColorMatrix type="matrix" values="0 0 0 0 1 0 0 0 0 1 0 0 0 0 1 0 0 0 0.12 0"/>
<feBlend mode="normal" in2="effect1_dropShadow_545_1714" result="effect2_dropShadow_545_1714"/>
<feBlend mode="normal" in="SourceGraphic" in2="effect2_dropShadow_545_1714" result="shape"/>
</filter>
<filter id="filter1_dd_545_1714" x="0" y="104" width="102" height="100" filterUnits="userSpaceOnUse" color-interpolation-filters="sRGB">
<feFlood flood-opacity="0" result="BackgroundImageFix"/>
<feColorMatrix in="SourceAlpha" type="matrix" values="0 0 0 0 0 0 0 0 0 0 0 0 0 0 0 0 0 0 127 0" result="hardAlpha"/>
<feOffset dx="-3" dy="-3"/>
<feGaussianBlur stdDeviation="3"/>
<feComposite in2="hardAlpha" operator="out"/>
<feColorMatrix type="matrix" values="0 0 0 0 1 0 0 0 0 1 0 0 0 0 1 0 0 0 0.12 0"/>
<feBlend mode="normal" in2="BackgroundImageFix" result="effect1_dropShadow_545_1714"/>
<feColorMatrix in="SourceAlpha" type="matrix" values="0 0 0 0 0 0 0 0 0 0 0 0 0 0 0 0 0 0 127 0" result="hardAlpha"/>
<feOffset dx="3" dy="3"/>
<feGaussianBlur stdDeviation="4"/>
<feComposite in2="hardAlpha" operator="out"/>
<feColorMatrix type="matrix" values="0 0 0 0 1 0 0 0 0 1 0 0 0 0 1 0 0 0 0.12 0"/>
<feBlend mode="normal" in2="effect1_dropShadow_545_1714" result="effect2_dropShadow_545_1714"/>
<feBlend mode="normal" in="SourceGraphic" in2="effect2_dropShadow_545_1714" result="shape"/>
</filter>
</defs>
</svg>
