<svg width="402" height="874" viewBox="0 0 402 874" fill="none" xmlns="http://www.w3.org/2000/svg">
<g clip-path="url(#clip0_332_1108)">
<rect width="402" height="874" fill="#454545"/>
<g filter="url(#filter0_dd_332_1108)">
<circle cx="201" cy="437" r="145.5" stroke="#454545" stroke-width="19" shape-rendering="crispEdges"/>
</g>
<g filter="url(#filter1_ii_332_1108)">
<circle cx="201" cy="437" r="136" fill="#454545"/>
</g>
<g filter="url(#filter2_i_332_1108)">
<circle cx="128" cy="502" r="10" fill="#C73535"/>
</g>
<g clip-path="url(#clip1_332_1108)">
<g filter="url(#filter3_d_332_1108)">
<path d="M200 283.5C200 282.672 200.672 282 201.5 282C202.328 282 203 282.672 203 283.5V292.5C203 293.328 202.328 294 201.5 294C200.672 294 200 293.328 200 292.5V283.5Z" fill="#C8C8CA"/>
</g>
<g clip-path="url(#clip2_332_1108)">
<g filter="url(#filter4_d_332_1108)">
<path d="M159.822 289.119C159.608 288.318 160.083 287.496 160.883 287.282C161.683 287.067 162.506 287.542 162.72 288.342L165.05 297.036C165.264 297.836 164.789 298.658 163.989 298.873C163.189 299.087 162.366 298.612 162.152 297.812L159.822 289.119Z" fill="#C8C8CA"/>
</g>
</g>
<g clip-path="url(#clip3_332_1108)">
<g filter="url(#filter5_d_332_1108)">
<path d="M122.951 304.815C122.537 304.098 122.783 303.18 123.5 302.766C124.218 302.352 125.135 302.598 125.549 303.315L130.049 311.109C130.463 311.827 130.218 312.744 129.5 313.158C128.783 313.573 127.865 313.327 127.451 312.609L122.951 304.815Z" fill="#C8C8CA"/>
</g>
</g>
<g clip-path="url(#clip4_332_1108)">
<g filter="url(#filter6_d_332_1108)">
<path d="M91.3986 329.52C90.8128 328.934 90.8128 327.984 91.3986 327.398C91.9843 326.813 92.9341 326.813 93.5199 327.398L99.8838 333.762C100.47 334.348 100.47 335.298 99.8838 335.884C99.298 336.47 98.3483 336.47 97.7625 335.884L91.3986 329.52Z" fill="#C8C8CA"/>
</g>
</g>
<g clip-path="url(#clip5_332_1108)">
<g filter="url(#filter7_d_332_1108)">
<path d="M67.3152 361.549C66.5977 361.135 66.3519 360.217 66.7661 359.5C67.1803 358.783 68.0977 358.537 68.8152 358.951L76.6094 363.451C77.3268 363.865 77.5726 364.783 77.1584 365.5C76.7442 366.217 75.8268 366.463 75.1094 366.049L67.3152 361.549Z" fill="#C8C8CA"/>
</g>
</g>
<g clip-path="url(#clip6_332_1108)">
<g filter="url(#filter8_d_332_1108)">
<path d="M52.3423 398.72C51.5421 398.506 51.0672 397.683 51.2817 396.883C51.4961 396.083 52.3186 395.608 53.1188 395.822L61.8121 398.152C62.6123 398.366 63.0872 399.189 62.8728 399.989C62.6584 400.789 61.8359 401.264 61.0357 401.05L52.3423 398.72Z" fill="#C8C8CA"/>
</g>
</g>
<g clip-path="url(#clip7_332_1108)">
<g filter="url(#filter9_d_332_1108)">
<path d="M47.5 439C46.6716 439 46 438.328 46 437.5C46 436.672 46.6716 436 47.5 436L56.5 436C57.3284 436 58 436.672 58 437.5C58 438.328 57.3284 439 56.5 439L47.5 439Z" fill="#C8C8CA"/>
</g>
</g>
<g clip-path="url(#clip8_332_1108)">
<g filter="url(#filter10_d_332_1108)">
<path d="M53.1186 478.178C52.3184 478.392 51.4959 477.917 51.2814 477.117C51.067 476.317 51.5419 475.494 52.3421 475.28L61.0354 472.95C61.8356 472.736 62.6581 473.211 62.8726 474.011C63.087 474.811 62.6121 475.634 61.8119 475.848L53.1186 478.178Z" fill="#C8C8CA"/>
</g>
</g>
<g clip-path="url(#clip9_332_1108)">
<g filter="url(#filter11_d_332_1108)">
<path d="M68.8152 515.049C68.0977 515.463 67.1803 515.217 66.7661 514.5C66.3519 513.783 66.5977 512.865 67.3152 512.451L75.1094 507.951C75.8268 507.537 76.7442 507.783 77.1584 508.5C77.5726 509.217 77.3268 510.135 76.6094 510.549L68.8152 515.049Z" fill="#C8C8CA"/>
</g>
</g>
<g clip-path="url(#clip10_332_1108)">
<g filter="url(#filter12_d_332_1108)">
<path d="M93.8734 546.248C93.0924 547.029 91.8261 547.029 91.045 546.248C90.264 545.467 90.264 544.201 91.045 543.42L100.945 533.52C101.726 532.739 102.992 532.739 103.773 533.52C104.554 534.301 104.554 535.567 103.773 536.348L93.8734 546.248Z" fill="#C8C8CA"/>
</g>
</g>
<g clip-path="url(#clip11_332_1108)">
<g filter="url(#filter13_d_332_1108)">
<path d="M125.549 570.685C125.135 571.402 124.217 571.648 123.5 571.234C122.783 570.82 122.537 569.902 122.951 569.185L127.451 561.391C127.865 560.673 128.783 560.427 129.5 560.842C130.217 561.256 130.463 562.173 130.049 562.891L125.549 570.685Z" fill="#C8C8CA"/>
</g>
</g>
<g clip-path="url(#clip12_332_1108)">
<g filter="url(#filter14_d_332_1108)">
<path d="M162.72 585.658C162.506 586.458 161.683 586.933 160.883 586.719C160.083 586.504 159.608 585.682 159.822 584.881L162.152 576.188C162.366 575.388 163.189 574.913 163.989 575.127C164.789 575.342 165.264 576.164 165.05 576.965L162.72 585.658Z" fill="#C8C8CA"/>
</g>
</g>
<g clip-path="url(#clip13_332_1108)">
<g filter="url(#filter15_d_332_1108)">
<path d="M203 590.5C203 591.328 202.328 592 201.5 592C200.672 592 200 591.328 200 590.5L200 581.5C200 580.672 200.672 580 201.5 580C202.328 580 203 580.672 203 581.5L203 590.5Z" fill="#C8C8CA"/>
</g>
</g>
<g clip-path="url(#clip14_332_1108)">
<g filter="url(#filter16_d_332_1108)">
<path d="M242.178 584.881C242.392 585.682 241.917 586.504 241.117 586.719C240.317 586.933 239.494 586.458 239.28 585.658L236.95 576.965C236.736 576.164 237.211 575.342 238.011 575.127C238.811 574.913 239.634 575.388 239.848 576.188L242.178 584.881Z" fill="#C8C8CA"/>
</g>
</g>
<g clip-path="url(#clip15_332_1108)">
<g filter="url(#filter17_d_332_1108)">
<path d="M279.049 569.185C279.463 569.902 279.217 570.82 278.5 571.234C277.783 571.648 276.865 571.402 276.451 570.685L271.951 562.891C271.537 562.173 271.783 561.256 272.5 560.842C273.217 560.427 274.135 560.673 274.549 561.391L279.049 569.185Z" fill="#C8C8CA"/>
</g>
</g>
<g clip-path="url(#clip16_332_1108)">
<g filter="url(#filter18_d_332_1108)">
<path d="M310.602 544.48C311.187 545.066 311.187 546.016 310.602 546.602C310.016 547.187 309.066 547.187 308.48 546.602L302.116 540.238C301.531 539.652 301.531 538.702 302.116 538.116C302.702 537.53 303.652 537.53 304.238 538.116L310.602 544.48Z" fill="#C8C8CA"/>
</g>
</g>
<g clip-path="url(#clip17_332_1108)">
<g filter="url(#filter19_d_332_1108)">
<path d="M334.685 512.451C335.402 512.865 335.648 513.783 335.234 514.5C334.82 515.217 333.902 515.463 333.185 515.049L325.391 510.549C324.673 510.135 324.427 509.217 324.842 508.5C325.256 507.783 326.173 507.537 326.891 507.951L334.685 512.451Z" fill="#C8C8CA"/>
</g>
</g>
<g clip-path="url(#clip18_332_1108)">
<g filter="url(#filter20_d_332_1108)">
<path d="M349.658 475.28C350.458 475.494 350.933 476.317 350.718 477.117C350.504 477.917 349.682 478.392 348.881 478.178L340.188 475.848C339.388 475.634 338.913 474.811 339.127 474.011C339.342 473.211 340.164 472.736 340.964 472.95L349.658 475.28Z" fill="#C8C8CA"/>
</g>
</g>
<g clip-path="url(#clip19_332_1108)">
<g filter="url(#filter21_d_332_1108)">
<path d="M354.5 435C355.328 435 356 435.672 356 436.5C356 437.328 355.328 438 354.5 438L345.5 438C344.672 438 344 437.328 344 436.5C344 435.672 344.672 435 345.5 435L354.5 435Z" fill="#C8C8CA"/>
</g>
</g>
<g clip-path="url(#clip20_332_1108)">
<g filter="url(#filter22_d_332_1108)">
<path d="M348.881 395.822C349.682 395.608 350.504 396.083 350.719 396.883C350.933 397.683 350.458 398.506 349.658 398.72L340.965 401.05C340.164 401.264 339.342 400.789 339.127 399.989C338.913 399.189 339.388 398.366 340.188 398.152L348.881 395.822Z" fill="#C8C8CA"/>
</g>
</g>
<g clip-path="url(#clip21_332_1108)">
<g filter="url(#filter23_d_332_1108)">
<path d="M333.185 358.951C333.902 358.537 334.82 358.783 335.234 359.5C335.648 360.217 335.402 361.135 334.685 361.549L326.891 366.049C326.173 366.463 325.256 366.217 324.842 365.5C324.427 364.783 324.673 363.865 325.391 363.451L333.185 358.951Z" fill="#C8C8CA"/>
</g>
</g>
<g clip-path="url(#clip22_332_1108)">
<g filter="url(#filter24_d_332_1108)">
<path d="M308.48 327.398C309.066 326.813 310.016 326.813 310.602 327.398C311.187 327.984 311.187 328.934 310.602 329.52L304.238 335.884C303.652 336.47 302.702 336.47 302.116 335.884C301.53 335.298 301.53 334.348 302.116 333.762L308.48 327.398Z" fill="#C8C8CA"/>
</g>
</g>
<g clip-path="url(#clip23_332_1108)">
<g filter="url(#filter25_d_332_1108)">
<path d="M276.451 303.315C276.865 302.598 277.783 302.352 278.5 302.766C279.218 303.18 279.463 304.098 279.049 304.815L274.549 312.609C274.135 313.327 273.218 313.573 272.5 313.158C271.783 312.744 271.537 311.827 271.951 311.109L276.451 303.315Z" fill="#C8C8CA"/>
</g>
</g>
<g clip-path="url(#clip24_332_1108)">
<g filter="url(#filter26_d_332_1108)">
<path d="M239.28 288.342C239.494 287.542 240.317 287.067 241.117 287.281C241.917 287.496 242.392 288.318 242.178 289.119L239.848 297.812C239.634 298.612 238.811 299.087 238.011 298.873C237.211 298.658 236.736 297.836 236.951 297.035L239.28 288.342Z" fill="#C8C8CA"/>
</g>
</g>
</g>
<path d="M62.2666 26.4731C62.9085 26.4731 63.5173 26.5921 64.0928 26.8301C64.6683 27.0625 65.1774 27.4277 65.6201 27.9258C66.0684 28.4183 66.4198 29.0519 66.6743 29.8267C66.9289 30.5959 67.0562 31.5228 67.0562 32.6074V32.624C67.0562 33.9688 66.8625 35.1198 66.4751 36.0771C66.0877 37.0345 65.5316 37.7705 64.8066 38.2852C64.0872 38.7943 63.2267 39.0488 62.2251 39.0488C61.4891 39.0488 60.825 38.916 60.2329 38.6504C59.6463 38.3792 59.1593 38.0085 58.772 37.5381C58.3901 37.0622 58.1328 36.5199 58 35.9111L57.9834 35.8198H60.0835L60.1167 35.9028C60.2218 36.1795 60.3713 36.423 60.5649 36.6333C60.7642 36.8436 61.0021 37.0068 61.2788 37.123C61.561 37.2337 61.8765 37.2891 62.2251 37.2891C62.856 37.2891 63.3706 37.1037 63.769 36.7329C64.173 36.3566 64.4746 35.8558 64.6738 35.2305C64.8786 34.5996 64.9948 33.9023 65.0225 33.1387C65.028 33.0557 65.0308 32.9754 65.0308 32.8979C65.0308 32.8149 65.0308 32.7347 65.0308 32.6572L64.6572 30.6567C64.6572 30.203 64.5521 29.7907 64.3418 29.4199C64.1315 29.0492 63.8465 28.7559 63.4868 28.54C63.1326 28.3242 62.7314 28.2163 62.2832 28.2163C61.8516 28.2163 61.4559 28.3215 61.0962 28.5317C60.7365 28.742 60.4487 29.0298 60.2329 29.395C60.0171 29.7547 59.9092 30.1587 59.9092 30.6069V30.6235C59.9092 31.0884 60.0116 31.5007 60.2163 31.8604C60.4211 32.2145 60.7005 32.494 61.0547 32.6987C61.4089 32.9035 61.8128 33.0059 62.2666 33.0059C62.7204 33.0059 63.1271 32.9062 63.4868 32.707C63.8465 32.5078 64.1315 32.2311 64.3418 31.877C64.5521 31.5228 64.6572 31.1216 64.6572 30.6733V30.6567H65.1553V32.8647H64.8647C64.7209 33.1802 64.5078 33.4735 64.2256 33.7446C63.9434 34.0158 63.5947 34.2344 63.1797 34.4004C62.7702 34.5664 62.2887 34.6494 61.7354 34.6494C60.9717 34.6494 60.2965 34.4779 59.71 34.1348C59.1234 33.7917 58.6613 33.3213 58.3237 32.7236C57.9917 32.126 57.8257 31.4508 57.8257 30.6982V30.6816C57.8257 29.8682 58.0138 29.146 58.3901 28.5151C58.772 27.8787 59.2977 27.3807 59.9673 27.021C60.6424 26.6558 61.4089 26.4731 62.2666 26.4731ZM70.8247 37.1396C70.4484 37.1396 70.133 37.0151 69.8784 36.7661C69.6294 36.5116 69.5049 36.2017 69.5049 35.8364C69.5049 35.4657 69.6294 35.1558 69.8784 34.9067C70.133 34.6522 70.4484 34.5249 70.8247 34.5249C71.2065 34.5249 71.522 34.6522 71.771 34.9067C72.02 35.1558 72.1445 35.4657 72.1445 35.8364C72.1445 36.2017 72.02 36.5116 71.771 36.7661C71.522 37.0151 71.2065 37.1396 70.8247 37.1396ZM70.8247 30.9805C70.4484 30.9805 70.133 30.856 69.8784 30.6069C69.6294 30.3524 69.5049 30.0425 69.5049 29.6772C69.5049 29.3065 69.6294 28.9966 69.8784 28.7476C70.133 28.493 70.4484 28.3657 70.8247 28.3657C71.2065 28.3657 71.522 28.493 71.771 28.7476C72.02 28.9966 72.1445 29.3065 72.1445 29.6772C72.1445 30.0425 72.02 30.3524 71.771 30.6069C71.522 30.856 71.2065 30.9805 70.8247 30.9805ZM80.4038 38.75V36.4507H74.5435V34.6992C74.8589 34.1624 75.1743 33.6229 75.4897 33.0806C75.8107 32.5382 76.1344 31.9987 76.4609 31.4619C76.793 30.9196 77.1222 30.3856 77.4487 29.8599C77.7808 29.3286 78.11 28.8057 78.4365 28.291C78.7686 27.7708 79.1006 27.2645 79.4326 26.772H82.4458V34.6826H84.0645V36.4507H82.4458V38.75H80.4038ZM76.5356 34.7324H80.437V28.4819H80.3125C80.069 28.8582 79.8172 29.2456 79.5571 29.644C79.3026 30.0425 79.0452 30.4492 78.7852 30.8643C78.5251 31.2793 78.2677 31.6971 78.0132 32.1177C77.7586 32.5327 77.5068 32.9505 77.2578 33.3711C77.0088 33.7861 76.7681 34.1984 76.5356 34.6079V34.7324ZM89.02 38.75V28.8804H88.8706L85.8906 30.9805V28.9717L89.02 26.772H91.1533V38.75H89.02Z" fill="#F2F2F7"/>
<path fill-rule="evenodd" clip-rule="evenodd" d="M308.865 27.533C308.865 26.9 308.388 26.3868 307.798 26.3868H306.732C306.143 26.3868 305.665 26.9 305.665 27.533V37.467C305.665 38.1 306.143 38.6132 306.732 38.6132H307.798C308.388 38.6132 308.865 38.1 308.865 37.467V27.533ZM301.431 28.8321H302.498C303.087 28.8321 303.564 29.3576 303.564 30.0058V37.4395C303.564 38.0877 303.087 38.6132 302.498 38.6132H301.431C300.842 38.6132 300.364 38.0877 300.364 37.4395V30.0058C300.364 29.3576 300.842 28.8321 301.431 28.8321ZM297.099 31.4811H296.033C295.444 31.4811 294.966 32.0133 294.966 32.6698V37.4245C294.966 38.081 295.444 38.6132 296.033 38.6132H297.099C297.688 38.6132 298.166 38.081 298.166 37.4245V32.6698C298.166 32.0133 297.688 31.4811 297.099 31.4811ZM291.798 33.9264H290.732C290.143 33.9264 289.665 34.451 289.665 35.0981V37.4415C289.665 38.0886 290.143 38.6132 290.732 38.6132H291.798C292.388 38.6132 292.865 38.0886 292.865 37.4415V35.0981C292.865 34.451 292.388 33.9264 291.798 33.9264Z" fill="#F2F2F7"/>
<path fill-rule="evenodd" clip-rule="evenodd" d="M324.436 28.8022C326.924 28.8023 329.316 29.7243 331.118 31.3778C331.254 31.5055 331.471 31.5039 331.604 31.3742L332.902 30.1107C332.97 30.045 333.007 29.9559 333.007 29.8632C333.006 29.7705 332.967 29.6819 332.899 29.6169C328.168 25.2422 320.704 25.2422 315.973 29.6169C315.905 29.6819 315.866 29.7705 315.865 29.8632C315.864 29.9558 315.902 30.0449 315.97 30.1107L317.268 31.3742C317.401 31.5041 317.618 31.5057 317.754 31.3778C319.557 29.7242 321.949 28.8022 324.436 28.8022ZM324.433 33.0224C325.79 33.0223 327.099 33.5341 328.105 34.4582C328.241 34.5894 328.456 34.5865 328.588 34.4518L329.876 33.1325C329.944 33.0633 329.981 32.9694 329.98 32.8719C329.979 32.7743 329.94 32.6812 329.871 32.6134C326.807 29.7226 322.062 29.7226 318.998 32.6134C318.929 32.6812 318.889 32.7744 318.889 32.8719C318.888 32.9695 318.925 33.0634 318.993 33.1325L320.28 34.4518C320.413 34.5865 320.627 34.5894 320.763 34.4582C321.769 33.5347 323.077 33.023 324.433 33.0224ZM326.957 35.816C326.959 35.9213 326.922 36.0229 326.855 36.0967L324.678 38.5514C324.615 38.6236 324.528 38.6642 324.437 38.6642C324.346 38.6642 324.259 38.6236 324.195 38.5514L322.018 36.0967C321.951 36.0229 321.914 35.9212 321.916 35.8159C321.918 35.7105 321.959 35.6108 322.029 35.5402C323.419 34.2263 325.455 34.2263 326.845 35.5402C326.915 35.6108 326.956 35.7106 326.957 35.816Z" fill="#F2F2F7"/>
<rect opacity="0.35" x="340.507" y="26.5" width="24" height="12" rx="3.8" stroke="#F2F2F7"/>
<path opacity="0.4" d="M366.007 30.5V34.5755C366.812 34.2303 367.335 33.4273 367.335 32.5377C367.335 31.6481 366.812 30.8452 366.007 30.5Z" fill="#F2F2F7"/>
<rect x="342.007" y="28" width="21" height="9" rx="2.5" fill="#F2F2F7"/>
<rect width="144" height="5" rx="2.5" transform="matrix(-1 0 0 1 273 861)" fill="white"/>
</g>
<defs>
<filter id="filter0_dd_332_1108" x="34" y="268" width="340" height="342" filterUnits="userSpaceOnUse" color-interpolation-filters="sRGB">
<feFlood flood-opacity="0" result="BackgroundImageFix"/>
<feColorMatrix in="SourceAlpha" type="matrix" values="0 0 0 0 0 0 0 0 0 0 0 0 0 0 0 0 0 0 127 0" result="hardAlpha"/>
<feOffset dx="-6" dy="-8"/>
<feGaussianBlur stdDeviation="3"/>
<feComposite in2="hardAlpha" operator="out"/>
<feColorMatrix type="matrix" values="0 0 0 0 0 0 0 0 0 0 0 0 0 0 0 0 0 0 0.1 0"/>
<feBlend mode="normal" in2="BackgroundImageFix" result="effect1_dropShadow_332_1108"/>
<feColorMatrix in="SourceAlpha" type="matrix" values="0 0 0 0 0 0 0 0 0 0 0 0 0 0 0 0 0 0 127 0" result="hardAlpha"/>
<feOffset dx="6" dy="6"/>
<feGaussianBlur stdDeviation="6"/>
<feComposite in2="hardAlpha" operator="out"/>
<feColorMatrix type="matrix" values="0 0 0 0 0 0 0 0 0 0 0 0 0 0 0 0 0 0 0.1 0"/>
<feBlend mode="normal" in2="effect1_dropShadow_332_1108" result="effect2_dropShadow_332_1108"/>
<feBlend mode="normal" in="SourceGraphic" in2="effect2_dropShadow_332_1108" result="shape"/>
</filter>
<filter id="filter1_ii_332_1108" x="57" y="293" width="288" height="288" filterUnits="userSpaceOnUse" color-interpolation-filters="sRGB">
<feFlood flood-opacity="0" result="BackgroundImageFix"/>
<feBlend mode="normal" in="SourceGraphic" in2="BackgroundImageFix" result="shape"/>
<feColorMatrix in="SourceAlpha" type="matrix" values="0 0 0 0 0 0 0 0 0 0 0 0 0 0 0 0 0 0 127 0" result="hardAlpha"/>
<feOffset dx="-8" dy="-8"/>
<feGaussianBlur stdDeviation="6"/>
<feComposite in2="hardAlpha" operator="arithmetic" k2="-1" k3="1"/>
<feColorMatrix type="matrix" values="0 0 0 0 0 0 0 0 0 0 0 0 0 0 0 0 0 0 0.1 0"/>
<feBlend mode="normal" in2="shape" result="effect1_innerShadow_332_1108"/>
<feColorMatrix in="SourceAlpha" type="matrix" values="0 0 0 0 0 0 0 0 0 0 0 0 0 0 0 0 0 0 127 0" result="hardAlpha"/>
<feOffset dx="8" dy="8"/>
<feGaussianBlur stdDeviation="4.75"/>
<feComposite in2="hardAlpha" operator="arithmetic" k2="-1" k3="1"/>
<feColorMatrix type="matrix" values="0 0 0 0 0 0 0 0 0 0 0 0 0 0 0 0 0 0 0.25 0"/>
<feBlend mode="normal" in2="effect1_innerShadow_332_1108" result="effect2_innerShadow_332_1108"/>
</filter>
<filter id="filter2_i_332_1108" x="118" y="492" width="22" height="23" filterUnits="userSpaceOnUse" color-interpolation-filters="sRGB">
<feFlood flood-opacity="0" result="BackgroundImageFix"/>
<feBlend mode="normal" in="SourceGraphic" in2="BackgroundImageFix" result="shape"/>
<feColorMatrix in="SourceAlpha" type="matrix" values="0 0 0 0 0 0 0 0 0 0 0 0 0 0 0 0 0 0 127 0" result="hardAlpha"/>
<feOffset dx="2" dy="3"/>
<feGaussianBlur stdDeviation="2"/>
<feComposite in2="hardAlpha" operator="arithmetic" k2="-1" k3="1"/>
<feColorMatrix type="matrix" values="0 0 0 0 0 0 0 0 0 0 0 0 0 0 0 0 0 0 0.4 0"/>
<feBlend mode="normal" in2="shape" result="effect1_innerShadow_332_1108"/>
</filter>
<filter id="filter3_d_332_1108" x="198" y="281" width="7" height="16" filterUnits="userSpaceOnUse" color-interpolation-filters="sRGB">
<feFlood flood-opacity="0" result="BackgroundImageFix"/>
<feColorMatrix in="SourceAlpha" type="matrix" values="0 0 0 0 0 0 0 0 0 0 0 0 0 0 0 0 0 0 127 0" result="hardAlpha"/>
<feOffset dy="1"/>
<feGaussianBlur stdDeviation="1"/>
<feComposite in2="hardAlpha" operator="out"/>
<feColorMatrix type="matrix" values="0 0 0 0 0 0 0 0 0 0 0 0 0 0 0 0 0 0 0.3 0"/>
<feBlend mode="normal" in2="BackgroundImageFix" result="effect1_dropShadow_332_1108"/>
<feBlend mode="normal" in="SourceGraphic" in2="effect1_dropShadow_332_1108" result="shape"/>
</filter>
<filter id="filter4_d_332_1108" x="157.771" y="286.23" width="9.33008" height="15.6941" filterUnits="userSpaceOnUse" color-interpolation-filters="sRGB">
<feFlood flood-opacity="0" result="BackgroundImageFix"/>
<feColorMatrix in="SourceAlpha" type="matrix" values="0 0 0 0 0 0 0 0 0 0 0 0 0 0 0 0 0 0 127 0" result="hardAlpha"/>
<feOffset dy="1"/>
<feGaussianBlur stdDeviation="1"/>
<feComposite in2="hardAlpha" operator="out"/>
<feColorMatrix type="matrix" values="0 0 0 0 0 0 0 0 0 0 0 0 0 0 0 0 0 0 0.3 0"/>
<feBlend mode="normal" in2="BackgroundImageFix" result="effect1_dropShadow_332_1108"/>
<feBlend mode="normal" in="SourceGraphic" in2="effect1_dropShadow_332_1108" result="shape"/>
</filter>
<filter id="filter5_d_332_1108" x="120.75" y="301.565" width="11.5005" height="14.7947" filterUnits="userSpaceOnUse" color-interpolation-filters="sRGB">
<feFlood flood-opacity="0" result="BackgroundImageFix"/>
<feColorMatrix in="SourceAlpha" type="matrix" values="0 0 0 0 0 0 0 0 0 0 0 0 0 0 0 0 0 0 127 0" result="hardAlpha"/>
<feOffset dy="1"/>
<feGaussianBlur stdDeviation="1"/>
<feComposite in2="hardAlpha" operator="out"/>
<feColorMatrix type="matrix" values="0 0 0 0 0 0 0 0 0 0 0 0 0 0 0 0 0 0 0.3 0"/>
<feBlend mode="normal" in2="BackgroundImageFix" result="effect1_dropShadow_332_1108"/>
<feBlend mode="normal" in="SourceGraphic" in2="effect1_dropShadow_332_1108" result="shape"/>
</filter>
<filter id="filter6_d_332_1108" x="88.9592" y="325.959" width="13.3639" height="13.364" filterUnits="userSpaceOnUse" color-interpolation-filters="sRGB">
<feFlood flood-opacity="0" result="BackgroundImageFix"/>
<feColorMatrix in="SourceAlpha" type="matrix" values="0 0 0 0 0 0 0 0 0 0 0 0 0 0 0 0 0 0 127 0" result="hardAlpha"/>
<feOffset dy="1"/>
<feGaussianBlur stdDeviation="1"/>
<feComposite in2="hardAlpha" operator="out"/>
<feColorMatrix type="matrix" values="0 0 0 0 0 0 0 0 0 0 0 0 0 0 0 0 0 0 0.3 0"/>
<feBlend mode="normal" in2="BackgroundImageFix" result="effect1_dropShadow_332_1108"/>
<feBlend mode="normal" in="SourceGraphic" in2="effect1_dropShadow_332_1108" result="shape"/>
</filter>
<filter id="filter7_d_332_1108" x="64.5649" y="357.75" width="14.7947" height="11.5005" filterUnits="userSpaceOnUse" color-interpolation-filters="sRGB">
<feFlood flood-opacity="0" result="BackgroundImageFix"/>
<feColorMatrix in="SourceAlpha" type="matrix" values="0 0 0 0 0 0 0 0 0 0 0 0 0 0 0 0 0 0 127 0" result="hardAlpha"/>
<feOffset dy="1"/>
<feGaussianBlur stdDeviation="1"/>
<feComposite in2="hardAlpha" operator="out"/>
<feColorMatrix type="matrix" values="0 0 0 0 0 0 0 0 0 0 0 0 0 0 0 0 0 0 0.3 0"/>
<feBlend mode="normal" in2="BackgroundImageFix" result="effect1_dropShadow_332_1108"/>
<feBlend mode="normal" in="SourceGraphic" in2="effect1_dropShadow_332_1108" result="shape"/>
</filter>
<filter id="filter8_d_332_1108" x="49.2302" y="394.771" width="15.694" height="9.33014" filterUnits="userSpaceOnUse" color-interpolation-filters="sRGB">
<feFlood flood-opacity="0" result="BackgroundImageFix"/>
<feColorMatrix in="SourceAlpha" type="matrix" values="0 0 0 0 0 0 0 0 0 0 0 0 0 0 0 0 0 0 127 0" result="hardAlpha"/>
<feOffset dy="1"/>
<feGaussianBlur stdDeviation="1"/>
<feComposite in2="hardAlpha" operator="out"/>
<feColorMatrix type="matrix" values="0 0 0 0 0 0 0 0 0 0 0 0 0 0 0 0 0 0 0.3 0"/>
<feBlend mode="normal" in2="BackgroundImageFix" result="effect1_dropShadow_332_1108"/>
<feBlend mode="normal" in="SourceGraphic" in2="effect1_dropShadow_332_1108" result="shape"/>
</filter>
<filter id="filter9_d_332_1108" x="44" y="435" width="16" height="7" filterUnits="userSpaceOnUse" color-interpolation-filters="sRGB">
<feFlood flood-opacity="0" result="BackgroundImageFix"/>
<feColorMatrix in="SourceAlpha" type="matrix" values="0 0 0 0 0 0 0 0 0 0 0 0 0 0 0 0 0 0 127 0" result="hardAlpha"/>
<feOffset dy="1"/>
<feGaussianBlur stdDeviation="1"/>
<feComposite in2="hardAlpha" operator="out"/>
<feColorMatrix type="matrix" values="0 0 0 0 0 0 0 0 0 0 0 0 0 0 0 0 0 0 0.3 0"/>
<feBlend mode="normal" in2="BackgroundImageFix" result="effect1_dropShadow_332_1108"/>
<feBlend mode="normal" in="SourceGraphic" in2="effect1_dropShadow_332_1108" result="shape"/>
</filter>
<filter id="filter10_d_332_1108" x="49.23" y="471.899" width="15.6941" height="9.33014" filterUnits="userSpaceOnUse" color-interpolation-filters="sRGB">
<feFlood flood-opacity="0" result="BackgroundImageFix"/>
<feColorMatrix in="SourceAlpha" type="matrix" values="0 0 0 0 0 0 0 0 0 0 0 0 0 0 0 0 0 0 127 0" result="hardAlpha"/>
<feOffset dy="1"/>
<feGaussianBlur stdDeviation="1"/>
<feComposite in2="hardAlpha" operator="out"/>
<feColorMatrix type="matrix" values="0 0 0 0 0 0 0 0 0 0 0 0 0 0 0 0 0 0 0.3 0"/>
<feBlend mode="normal" in2="BackgroundImageFix" result="effect1_dropShadow_332_1108"/>
<feBlend mode="normal" in="SourceGraphic" in2="effect1_dropShadow_332_1108" result="shape"/>
</filter>
<filter id="filter11_d_332_1108" x="64.5649" y="506.75" width="14.7947" height="11.5005" filterUnits="userSpaceOnUse" color-interpolation-filters="sRGB">
<feFlood flood-opacity="0" result="BackgroundImageFix"/>
<feColorMatrix in="SourceAlpha" type="matrix" values="0 0 0 0 0 0 0 0 0 0 0 0 0 0 0 0 0 0 127 0" result="hardAlpha"/>
<feOffset dy="1"/>
<feGaussianBlur stdDeviation="1"/>
<feComposite in2="hardAlpha" operator="out"/>
<feColorMatrix type="matrix" values="0 0 0 0 0 0 0 0 0 0 0 0 0 0 0 0 0 0 0.3 0"/>
<feBlend mode="normal" in2="BackgroundImageFix" result="effect1_dropShadow_332_1108"/>
<feBlend mode="normal" in="SourceGraphic" in2="effect1_dropShadow_332_1108" result="shape"/>
</filter>
<filter id="filter12_d_332_1108" x="88.4592" y="531.934" width="17.8995" height="17.8995" filterUnits="userSpaceOnUse" color-interpolation-filters="sRGB">
<feFlood flood-opacity="0" result="BackgroundImageFix"/>
<feColorMatrix in="SourceAlpha" type="matrix" values="0 0 0 0 0 0 0 0 0 0 0 0 0 0 0 0 0 0 127 0" result="hardAlpha"/>
<feOffset dy="1"/>
<feGaussianBlur stdDeviation="1"/>
<feComposite in2="hardAlpha" operator="out"/>
<feColorMatrix type="matrix" values="0 0 0 0 0 0 0 0 0 0 0 0 0 0 0 0 0 0 0.3 0"/>
<feBlend mode="normal" in2="BackgroundImageFix" result="effect1_dropShadow_332_1108"/>
<feBlend mode="normal" in="SourceGraphic" in2="effect1_dropShadow_332_1108" result="shape"/>
</filter>
<filter id="filter13_d_332_1108" x="120.75" y="559.64" width="11.5005" height="14.7947" filterUnits="userSpaceOnUse" color-interpolation-filters="sRGB">
<feFlood flood-opacity="0" result="BackgroundImageFix"/>
<feColorMatrix in="SourceAlpha" type="matrix" values="0 0 0 0 0 0 0 0 0 0 0 0 0 0 0 0 0 0 127 0" result="hardAlpha"/>
<feOffset dy="1"/>
<feGaussianBlur stdDeviation="1"/>
<feComposite in2="hardAlpha" operator="out"/>
<feColorMatrix type="matrix" values="0 0 0 0 0 0 0 0 0 0 0 0 0 0 0 0 0 0 0.3 0"/>
<feBlend mode="normal" in2="BackgroundImageFix" result="effect1_dropShadow_332_1108"/>
<feBlend mode="normal" in="SourceGraphic" in2="effect1_dropShadow_332_1108" result="shape"/>
</filter>
<filter id="filter14_d_332_1108" x="157.771" y="574.076" width="9.33008" height="15.6941" filterUnits="userSpaceOnUse" color-interpolation-filters="sRGB">
<feFlood flood-opacity="0" result="BackgroundImageFix"/>
<feColorMatrix in="SourceAlpha" type="matrix" values="0 0 0 0 0 0 0 0 0 0 0 0 0 0 0 0 0 0 127 0" result="hardAlpha"/>
<feOffset dy="1"/>
<feGaussianBlur stdDeviation="1"/>
<feComposite in2="hardAlpha" operator="out"/>
<feColorMatrix type="matrix" values="0 0 0 0 0 0 0 0 0 0 0 0 0 0 0 0 0 0 0.3 0"/>
<feBlend mode="normal" in2="BackgroundImageFix" result="effect1_dropShadow_332_1108"/>
<feBlend mode="normal" in="SourceGraphic" in2="effect1_dropShadow_332_1108" result="shape"/>
</filter>
<filter id="filter15_d_332_1108" x="198" y="579" width="7" height="16" filterUnits="userSpaceOnUse" color-interpolation-filters="sRGB">
<feFlood flood-opacity="0" result="BackgroundImageFix"/>
<feColorMatrix in="SourceAlpha" type="matrix" values="0 0 0 0 0 0 0 0 0 0 0 0 0 0 0 0 0 0 127 0" result="hardAlpha"/>
<feOffset dy="1"/>
<feGaussianBlur stdDeviation="1"/>
<feComposite in2="hardAlpha" operator="out"/>
<feColorMatrix type="matrix" values="0 0 0 0 0 0 0 0 0 0 0 0 0 0 0 0 0 0 0.3 0"/>
<feBlend mode="normal" in2="BackgroundImageFix" result="effect1_dropShadow_332_1108"/>
<feBlend mode="normal" in="SourceGraphic" in2="effect1_dropShadow_332_1108" result="shape"/>
</filter>
<filter id="filter16_d_332_1108" x="234.899" y="574.076" width="9.33008" height="15.6941" filterUnits="userSpaceOnUse" color-interpolation-filters="sRGB">
<feFlood flood-opacity="0" result="BackgroundImageFix"/>
<feColorMatrix in="SourceAlpha" type="matrix" values="0 0 0 0 0 0 0 0 0 0 0 0 0 0 0 0 0 0 127 0" result="hardAlpha"/>
<feOffset dy="1"/>
<feGaussianBlur stdDeviation="1"/>
<feComposite in2="hardAlpha" operator="out"/>
<feColorMatrix type="matrix" values="0 0 0 0 0 0 0 0 0 0 0 0 0 0 0 0 0 0 0.3 0"/>
<feBlend mode="normal" in2="BackgroundImageFix" result="effect1_dropShadow_332_1108"/>
<feBlend mode="normal" in="SourceGraphic" in2="effect1_dropShadow_332_1108" result="shape"/>
</filter>
<filter id="filter17_d_332_1108" x="269.75" y="559.64" width="11.5005" height="14.7947" filterUnits="userSpaceOnUse" color-interpolation-filters="sRGB">
<feFlood flood-opacity="0" result="BackgroundImageFix"/>
<feColorMatrix in="SourceAlpha" type="matrix" values="0 0 0 0 0 0 0 0 0 0 0 0 0 0 0 0 0 0 127 0" result="hardAlpha"/>
<feOffset dy="1"/>
<feGaussianBlur stdDeviation="1"/>
<feComposite in2="hardAlpha" operator="out"/>
<feColorMatrix type="matrix" values="0 0 0 0 0 0 0 0 0 0 0 0 0 0 0 0 0 0 0.3 0"/>
<feBlend mode="normal" in2="BackgroundImageFix" result="effect1_dropShadow_332_1108"/>
<feBlend mode="normal" in="SourceGraphic" in2="effect1_dropShadow_332_1108" result="shape"/>
</filter>
<filter id="filter18_d_332_1108" x="299.677" y="536.677" width="13.3639" height="13.364" filterUnits="userSpaceOnUse" color-interpolation-filters="sRGB">
<feFlood flood-opacity="0" result="BackgroundImageFix"/>
<feColorMatrix in="SourceAlpha" type="matrix" values="0 0 0 0 0 0 0 0 0 0 0 0 0 0 0 0 0 0 127 0" result="hardAlpha"/>
<feOffset dy="1"/>
<feGaussianBlur stdDeviation="1"/>
<feComposite in2="hardAlpha" operator="out"/>
<feColorMatrix type="matrix" values="0 0 0 0 0 0 0 0 0 0 0 0 0 0 0 0 0 0 0.3 0"/>
<feBlend mode="normal" in2="BackgroundImageFix" result="effect1_dropShadow_332_1108"/>
<feBlend mode="normal" in="SourceGraphic" in2="effect1_dropShadow_332_1108" result="shape"/>
</filter>
<filter id="filter19_d_332_1108" x="322.641" y="506.75" width="14.7947" height="11.5005" filterUnits="userSpaceOnUse" color-interpolation-filters="sRGB">
<feFlood flood-opacity="0" result="BackgroundImageFix"/>
<feColorMatrix in="SourceAlpha" type="matrix" values="0 0 0 0 0 0 0 0 0 0 0 0 0 0 0 0 0 0 127 0" result="hardAlpha"/>
<feOffset dy="1"/>
<feGaussianBlur stdDeviation="1"/>
<feComposite in2="hardAlpha" operator="out"/>
<feColorMatrix type="matrix" values="0 0 0 0 0 0 0 0 0 0 0 0 0 0 0 0 0 0 0.3 0"/>
<feBlend mode="normal" in2="BackgroundImageFix" result="effect1_dropShadow_332_1108"/>
<feBlend mode="normal" in="SourceGraphic" in2="effect1_dropShadow_332_1108" result="shape"/>
</filter>
<filter id="filter20_d_332_1108" x="337.076" y="471.899" width="15.694" height="9.33014" filterUnits="userSpaceOnUse" color-interpolation-filters="sRGB">
<feFlood flood-opacity="0" result="BackgroundImageFix"/>
<feColorMatrix in="SourceAlpha" type="matrix" values="0 0 0 0 0 0 0 0 0 0 0 0 0 0 0 0 0 0 127 0" result="hardAlpha"/>
<feOffset dy="1"/>
<feGaussianBlur stdDeviation="1"/>
<feComposite in2="hardAlpha" operator="out"/>
<feColorMatrix type="matrix" values="0 0 0 0 0 0 0 0 0 0 0 0 0 0 0 0 0 0 0.3 0"/>
<feBlend mode="normal" in2="BackgroundImageFix" result="effect1_dropShadow_332_1108"/>
<feBlend mode="normal" in="SourceGraphic" in2="effect1_dropShadow_332_1108" result="shape"/>
</filter>
<filter id="filter21_d_332_1108" x="342" y="434" width="16" height="7" filterUnits="userSpaceOnUse" color-interpolation-filters="sRGB">
<feFlood flood-opacity="0" result="BackgroundImageFix"/>
<feColorMatrix in="SourceAlpha" type="matrix" values="0 0 0 0 0 0 0 0 0 0 0 0 0 0 0 0 0 0 127 0" result="hardAlpha"/>
<feOffset dy="1"/>
<feGaussianBlur stdDeviation="1"/>
<feComposite in2="hardAlpha" operator="out"/>
<feColorMatrix type="matrix" values="0 0 0 0 0 0 0 0 0 0 0 0 0 0 0 0 0 0 0.3 0"/>
<feBlend mode="normal" in2="BackgroundImageFix" result="effect1_dropShadow_332_1108"/>
<feBlend mode="normal" in="SourceGraphic" in2="effect1_dropShadow_332_1108" result="shape"/>
</filter>
<filter id="filter22_d_332_1108" x="337.076" y="394.771" width="15.6941" height="9.33014" filterUnits="userSpaceOnUse" color-interpolation-filters="sRGB">
<feFlood flood-opacity="0" result="BackgroundImageFix"/>
<feColorMatrix in="SourceAlpha" type="matrix" values="0 0 0 0 0 0 0 0 0 0 0 0 0 0 0 0 0 0 127 0" result="hardAlpha"/>
<feOffset dy="1"/>
<feGaussianBlur stdDeviation="1"/>
<feComposite in2="hardAlpha" operator="out"/>
<feColorMatrix type="matrix" values="0 0 0 0 0 0 0 0 0 0 0 0 0 0 0 0 0 0 0.3 0"/>
<feBlend mode="normal" in2="BackgroundImageFix" result="effect1_dropShadow_332_1108"/>
<feBlend mode="normal" in="SourceGraphic" in2="effect1_dropShadow_332_1108" result="shape"/>
</filter>
<filter id="filter23_d_332_1108" x="322.641" y="357.75" width="14.7947" height="11.5005" filterUnits="userSpaceOnUse" color-interpolation-filters="sRGB">
<feFlood flood-opacity="0" result="BackgroundImageFix"/>
<feColorMatrix in="SourceAlpha" type="matrix" values="0 0 0 0 0 0 0 0 0 0 0 0 0 0 0 0 0 0 127 0" result="hardAlpha"/>
<feOffset dy="1"/>
<feGaussianBlur stdDeviation="1"/>
<feComposite in2="hardAlpha" operator="out"/>
<feColorMatrix type="matrix" values="0 0 0 0 0 0 0 0 0 0 0 0 0 0 0 0 0 0 0.3 0"/>
<feBlend mode="normal" in2="BackgroundImageFix" result="effect1_dropShadow_332_1108"/>
<feBlend mode="normal" in="SourceGraphic" in2="effect1_dropShadow_332_1108" result="shape"/>
</filter>
<filter id="filter24_d_332_1108" x="299.677" y="325.959" width="13.364" height="13.364" filterUnits="userSpaceOnUse" color-interpolation-filters="sRGB">
<feFlood flood-opacity="0" result="BackgroundImageFix"/>
<feColorMatrix in="SourceAlpha" type="matrix" values="0 0 0 0 0 0 0 0 0 0 0 0 0 0 0 0 0 0 127 0" result="hardAlpha"/>
<feOffset dy="1"/>
<feGaussianBlur stdDeviation="1"/>
<feComposite in2="hardAlpha" operator="out"/>
<feColorMatrix type="matrix" values="0 0 0 0 0 0 0 0 0 0 0 0 0 0 0 0 0 0 0.3 0"/>
<feBlend mode="normal" in2="BackgroundImageFix" result="effect1_dropShadow_332_1108"/>
<feBlend mode="normal" in="SourceGraphic" in2="effect1_dropShadow_332_1108" result="shape"/>
</filter>
<filter id="filter25_d_332_1108" x="269.75" y="301.565" width="11.5005" height="14.7947" filterUnits="userSpaceOnUse" color-interpolation-filters="sRGB">
<feFlood flood-opacity="0" result="BackgroundImageFix"/>
<feColorMatrix in="SourceAlpha" type="matrix" values="0 0 0 0 0 0 0 0 0 0 0 0 0 0 0 0 0 0 127 0" result="hardAlpha"/>
<feOffset dy="1"/>
<feGaussianBlur stdDeviation="1"/>
<feComposite in2="hardAlpha" operator="out"/>
<feColorMatrix type="matrix" values="0 0 0 0 0 0 0 0 0 0 0 0 0 0 0 0 0 0 0.3 0"/>
<feBlend mode="normal" in2="BackgroundImageFix" result="effect1_dropShadow_332_1108"/>
<feBlend mode="normal" in="SourceGraphic" in2="effect1_dropShadow_332_1108" result="shape"/>
</filter>
<filter id="filter26_d_332_1108" x="234.899" y="286.23" width="9.33008" height="15.6941" filterUnits="userSpaceOnUse" color-interpolation-filters="sRGB">
<feFlood flood-opacity="0" result="BackgroundImageFix"/>
<feColorMatrix in="SourceAlpha" type="matrix" values="0 0 0 0 0 0 0 0 0 0 0 0 0 0 0 0 0 0 127 0" result="hardAlpha"/>
<feOffset dy="1"/>
<feGaussianBlur stdDeviation="1"/>
<feComposite in2="hardAlpha" operator="out"/>
<feColorMatrix type="matrix" values="0 0 0 0 0 0 0 0 0 0 0 0 0 0 0 0 0 0 0.3 0"/>
<feBlend mode="normal" in2="BackgroundImageFix" result="effect1_dropShadow_332_1108"/>
<feBlend mode="normal" in="SourceGraphic" in2="effect1_dropShadow_332_1108" result="shape"/>
</filter>
<clipPath id="clip0_332_1108">
<rect width="402" height="874" fill="white"/>
</clipPath>
<clipPath id="clip1_332_1108">
<rect width="310" height="310" fill="white" transform="translate(46 282)"/>
</clipPath>
<clipPath id="clip2_332_1108">
<rect width="310" height="310" fill="white" transform="translate(11.1646 327.398) rotate(-15)"/>
</clipPath>
<clipPath id="clip3_332_1108">
<rect width="310" height="310" fill="white" transform="translate(-10.7339 380.266) rotate(-30)"/>
</clipPath>
<clipPath id="clip4_332_1108">
<rect width="310" height="310" fill="white" transform="translate(-18.203 437) rotate(-45)"/>
</clipPath>
<clipPath id="clip5_332_1108">
<rect width="310" height="310" fill="white" transform="translate(-10.7339 493.734) rotate(-60)"/>
</clipPath>
<clipPath id="clip6_332_1108">
<rect width="310" height="310" fill="white" transform="translate(11.1647 546.602) rotate(-75)"/>
</clipPath>
<clipPath id="clip7_332_1108">
<rect width="310" height="310" fill="white" transform="translate(46 592) rotate(-90)"/>
</clipPath>
<clipPath id="clip8_332_1108">
<rect width="310" height="310" fill="white" transform="translate(91.3984 626.835) rotate(-105)"/>
</clipPath>
<clipPath id="clip9_332_1108">
<rect width="310" height="310" fill="white" transform="translate(144.266 648.734) rotate(-120)"/>
</clipPath>
<clipPath id="clip10_332_1108">
<rect width="310" height="310" fill="white" transform="translate(201 656.203) rotate(-135)"/>
</clipPath>
<clipPath id="clip11_332_1108">
<rect width="310" height="310" fill="white" transform="translate(257.734 648.734) rotate(-150)"/>
</clipPath>
<clipPath id="clip12_332_1108">
<rect width="310" height="310" fill="white" transform="translate(310.602 626.835) rotate(-165)"/>
</clipPath>
<clipPath id="clip13_332_1108">
<rect width="310" height="310" fill="white" transform="translate(356 592) rotate(180)"/>
</clipPath>
<clipPath id="clip14_332_1108">
<rect width="310" height="310" fill="white" transform="translate(390.835 546.602) rotate(165)"/>
</clipPath>
<clipPath id="clip15_332_1108">
<rect width="310" height="310" fill="white" transform="translate(412.734 493.734) rotate(150)"/>
</clipPath>
<clipPath id="clip16_332_1108">
<rect width="310" height="310" fill="white" transform="translate(420.203 437) rotate(135)"/>
</clipPath>
<clipPath id="clip17_332_1108">
<rect width="310" height="310" fill="white" transform="translate(412.734 380.266) rotate(120)"/>
</clipPath>
<clipPath id="clip18_332_1108">
<rect width="310" height="310" fill="white" transform="translate(390.835 327.398) rotate(105)"/>
</clipPath>
<clipPath id="clip19_332_1108">
<rect width="310" height="310" fill="white" transform="translate(356 282) rotate(90)"/>
</clipPath>
<clipPath id="clip20_332_1108">
<rect width="310" height="310" fill="white" transform="translate(310.602 247.165) rotate(75)"/>
</clipPath>
<clipPath id="clip21_332_1108">
<rect width="310" height="310" fill="white" transform="translate(257.734 225.266) rotate(60)"/>
</clipPath>
<clipPath id="clip22_332_1108">
<rect width="310" height="310" fill="white" transform="translate(201 217.797) rotate(45)"/>
</clipPath>
<clipPath id="clip23_332_1108">
<rect width="310" height="310" fill="white" transform="translate(144.266 225.266) rotate(30)"/>
</clipPath>
<clipPath id="clip24_332_1108">
<rect width="310" height="310" fill="white" transform="translate(91.3986 247.165) rotate(15)"/>
</clipPath>
</defs>
</svg>
