<svg width="402" height="874" viewBox="0 0 402 874" fill="none" xmlns="http://www.w3.org/2000/svg">
<g clip-path="url(#clip0_332_1176)">
<rect width="402" height="874" fill="#E0E5EC"/>
<g filter="url(#filter0_dd_332_1176)">
<circle cx="201" cy="437" r="146.865" stroke="#E0E5EC" stroke-width="16.2707" shape-rendering="crispEdges"/>
</g>
<g filter="url(#filter1_ii_332_1176)">
<circle cx="201" cy="437" r="130" fill="#E0E5EC"/>
</g>
<path d="M61.2666 26.4731C61.9085 26.4731 62.5173 26.5921 63.0928 26.8301C63.6683 27.0625 64.1774 27.4277 64.6201 27.9258C65.0684 28.4183 65.4198 29.0519 65.6743 29.8267C65.9289 30.5959 66.0562 31.5228 66.0562 32.6074V32.624C66.0562 33.9688 65.8625 35.1198 65.4751 36.0771C65.0877 37.0345 64.5316 37.7705 63.8066 38.2852C63.0872 38.7943 62.2267 39.0488 61.2251 39.0488C60.4891 39.0488 59.825 38.916 59.2329 38.6504C58.6463 38.3792 58.1593 38.0085 57.772 37.5381C57.3901 37.0622 57.1328 36.5199 57 35.9111L56.9834 35.8198H59.0835L59.1167 35.9028C59.2218 36.1795 59.3713 36.423 59.5649 36.6333C59.7642 36.8436 60.0021 37.0068 60.2788 37.123C60.561 37.2337 60.8765 37.2891 61.2251 37.2891C61.856 37.2891 62.3706 37.1037 62.769 36.7329C63.173 36.3566 63.4746 35.8558 63.6738 35.2305C63.8786 34.5996 63.9948 33.9023 64.0225 33.1387C64.028 33.0557 64.0308 32.9754 64.0308 32.8979C64.0308 32.8149 64.0308 32.7347 64.0308 32.6572L63.6572 30.6567C63.6572 30.203 63.5521 29.7907 63.3418 29.4199C63.1315 29.0492 62.8465 28.7559 62.4868 28.54C62.1326 28.3242 61.7314 28.2163 61.2832 28.2163C60.8516 28.2163 60.4559 28.3215 60.0962 28.5317C59.7365 28.742 59.4487 29.0298 59.2329 29.395C59.0171 29.7547 58.9092 30.1587 58.9092 30.6069V30.6235C58.9092 31.0884 59.0116 31.5007 59.2163 31.8604C59.4211 32.2145 59.7005 32.494 60.0547 32.6987C60.4089 32.9035 60.8128 33.0059 61.2666 33.0059C61.7204 33.0059 62.1271 32.9062 62.4868 32.707C62.8465 32.5078 63.1315 32.2311 63.3418 31.877C63.5521 31.5228 63.6572 31.1216 63.6572 30.6733V30.6567H64.1553V32.8647H63.8647C63.7209 33.1802 63.5078 33.4735 63.2256 33.7446C62.9434 34.0158 62.5947 34.2344 62.1797 34.4004C61.7702 34.5664 61.2887 34.6494 60.7354 34.6494C59.9717 34.6494 59.2965 34.4779 58.71 34.1348C58.1234 33.7917 57.6613 33.3213 57.3237 32.7236C56.9917 32.126 56.8257 31.4508 56.8257 30.6982V30.6816C56.8257 29.8682 57.0138 29.146 57.3901 28.5151C57.772 27.8787 58.2977 27.3807 58.9673 27.021C59.6424 26.6558 60.4089 26.4731 61.2666 26.4731ZM69.8247 37.1396C69.4484 37.1396 69.133 37.0151 68.8784 36.7661C68.6294 36.5116 68.5049 36.2017 68.5049 35.8364C68.5049 35.4657 68.6294 35.1558 68.8784 34.9067C69.133 34.6522 69.4484 34.5249 69.8247 34.5249C70.2065 34.5249 70.522 34.6522 70.771 34.9067C71.02 35.1558 71.1445 35.4657 71.1445 35.8364C71.1445 36.2017 71.02 36.5116 70.771 36.7661C70.522 37.0151 70.2065 37.1396 69.8247 37.1396ZM69.8247 30.9805C69.4484 30.9805 69.133 30.856 68.8784 30.6069C68.6294 30.3524 68.5049 30.0425 68.5049 29.6772C68.5049 29.3065 68.6294 28.9966 68.8784 28.7476C69.133 28.493 69.4484 28.3657 69.8247 28.3657C70.2065 28.3657 70.522 28.493 70.771 28.7476C71.02 28.9966 71.1445 29.3065 71.1445 29.6772C71.1445 30.0425 71.02 30.3524 70.771 30.6069C70.522 30.856 70.2065 30.9805 69.8247 30.9805ZM79.4038 38.75V36.4507H73.5435V34.6992C73.8589 34.1624 74.1743 33.6229 74.4897 33.0806C74.8107 32.5382 75.1344 31.9987 75.4609 31.4619C75.793 30.9196 76.1222 30.3856 76.4487 29.8599C76.7808 29.3286 77.11 28.8057 77.4365 28.291C77.7686 27.7708 78.1006 27.2645 78.4326 26.772H81.4458V34.6826H83.0645V36.4507H81.4458V38.75H79.4038ZM75.5356 34.7324H79.437V28.4819H79.3125C79.069 28.8582 78.8172 29.2456 78.5571 29.644C78.3026 30.0425 78.0452 30.4492 77.7852 30.8643C77.5251 31.2793 77.2677 31.6971 77.0132 32.1177C76.7586 32.5327 76.5068 32.9505 76.2578 33.3711C76.0088 33.7861 75.7681 34.1984 75.5356 34.6079V34.7324ZM88.02 38.75V28.8804H87.8706L84.8906 30.9805V28.9717L88.02 26.772H90.1533V38.75H88.02Z" fill="#454545"/>
<path fill-rule="evenodd" clip-rule="evenodd" d="M307.865 27.533C307.865 26.9 307.387 26.3868 306.798 26.3868H305.732C305.143 26.3868 304.665 26.9 304.665 27.533V37.467C304.665 38.1 305.143 38.6132 305.732 38.6132H306.798C307.387 38.6132 307.865 38.1 307.865 37.467V27.533ZM300.431 28.8321H301.498C302.087 28.8321 302.564 29.3576 302.564 30.0058V37.4395C302.564 38.0877 302.087 38.6132 301.498 38.6132H300.431C299.842 38.6132 299.364 38.0877 299.364 37.4395V30.0058C299.364 29.3576 299.842 28.8321 300.431 28.8321ZM296.099 31.4811H295.032C294.443 31.4811 293.966 32.0133 293.966 32.6698V37.4245C293.966 38.081 294.443 38.6132 295.032 38.6132H296.099C296.688 38.6132 297.166 38.081 297.166 37.4245V32.6698C297.166 32.0133 296.688 31.4811 296.099 31.4811ZM290.798 33.9264H289.732C289.143 33.9264 288.665 34.451 288.665 35.0981V37.4415C288.665 38.0886 289.143 38.6132 289.732 38.6132H290.798C291.387 38.6132 291.865 38.0886 291.865 37.4415V35.0981C291.865 34.451 291.387 33.9264 290.798 33.9264Z" fill="#454545"/>
<path fill-rule="evenodd" clip-rule="evenodd" d="M323.437 28.8022C325.924 28.8023 328.316 29.7243 330.118 31.3778C330.254 31.5055 330.471 31.5039 330.605 31.3742L331.902 30.1107C331.97 30.045 332.007 29.9559 332.007 29.8632C332.006 29.7705 331.968 29.6819 331.899 29.6169C327.168 25.2422 319.704 25.2422 314.973 29.6169C314.905 29.6819 314.866 29.7705 314.865 29.8632C314.865 29.9558 314.902 30.0449 314.97 30.1107L316.268 31.3742C316.401 31.5041 316.619 31.5057 316.754 31.3778C318.557 29.7242 320.949 28.8022 323.437 28.8022ZM323.433 33.0224C324.791 33.0223 326.099 33.5341 327.106 34.4582C327.242 34.5894 327.456 34.5865 327.589 34.4518L328.876 33.1325C328.944 33.0633 328.981 32.9694 328.98 32.8719C328.979 32.7743 328.94 32.6812 328.871 32.6134C325.807 29.7226 321.062 29.7226 317.998 32.6134C317.929 32.6812 317.89 32.7744 317.889 32.8719C317.888 32.9695 317.926 33.0634 317.993 33.1325L319.28 34.4518C319.413 34.5865 319.627 34.5894 319.763 34.4582C320.769 33.5347 322.077 33.023 323.433 33.0224ZM325.958 35.816C325.96 35.9213 325.922 36.0229 325.855 36.0967L323.679 38.5514C323.615 38.6236 323.528 38.6642 323.437 38.6642C323.346 38.6642 323.259 38.6236 323.195 38.5514L321.018 36.0967C320.951 36.0229 320.914 35.9212 320.916 35.8159C320.918 35.7105 320.959 35.6108 321.029 35.5402C322.419 34.2263 324.455 34.2263 325.845 35.5402C325.915 35.6108 325.956 35.7106 325.958 35.816Z" fill="#454545"/>
<rect opacity="0.35" x="339.507" y="26.5" width="24" height="12" rx="3.8" stroke="#454545"/>
<path opacity="0.4" d="M365.007 30.5V34.5755C365.812 34.2303 366.335 33.4273 366.335 32.5377C366.335 31.6481 365.812 30.8452 365.007 30.5Z" fill="#454545"/>
<rect x="341.007" y="28" width="21" height="9" rx="2.5" fill="#454545"/>
<rect width="144" height="5" rx="2.5" transform="matrix(-1 0 0 1 272 861)" fill="black"/>
<g clip-path="url(#clip1_332_1176)">
<g filter="url(#filter2_d_332_1176)">
<rect x="200" y="282" width="3" height="12" rx="1.5" fill="url(#paint0_linear_332_1176)"/>
</g>
<g clip-path="url(#clip2_332_1176)">
<g filter="url(#filter3_d_332_1176)">
<rect x="159.434" y="287.67" width="3" height="12" rx="1.5" transform="rotate(-15 159.434 287.67)" fill="url(#paint1_linear_332_1176)"/>
</g>
</g>
<g clip-path="url(#clip3_332_1176)">
<g filter="url(#filter4_d_332_1176)">
<rect x="122.201" y="303.516" width="3" height="12" rx="1.5" transform="rotate(-30 122.201 303.516)" fill="url(#paint2_linear_332_1176)"/>
</g>
</g>
<g clip-path="url(#clip4_332_1176)">
<g filter="url(#filter5_d_332_1176)">
<rect x="90.3379" y="328.459" width="3" height="12" rx="1.5" transform="rotate(-45 90.3379 328.459)" fill="url(#paint3_linear_332_1176)"/>
</g>
</g>
<g clip-path="url(#clip5_332_1176)">
<g filter="url(#filter6_d_332_1176)">
<rect x="66.0161" y="360.799" width="3" height="12" rx="1.5" transform="rotate(-60 66.0161 360.799)" fill="url(#paint4_linear_332_1176)"/>
</g>
</g>
<g clip-path="url(#clip6_332_1176)">
<g filter="url(#filter7_d_332_1176)">
<rect x="50.8934" y="398.332" width="3" height="12" rx="1.5" transform="rotate(-75 50.8934 398.332)" fill="url(#paint5_linear_332_1176)"/>
</g>
</g>
<g filter="url(#filter8_d_332_1176)">
<rect x="46" y="439" width="3" height="12" rx="1.5" transform="rotate(-90 46 439)" fill="url(#paint6_linear_332_1176)"/>
</g>
<g clip-path="url(#clip7_332_1176)">
<g filter="url(#filter9_d_332_1176)">
<rect x="51.6697" y="478.566" width="3" height="12" rx="1.5" transform="rotate(-105 51.6697 478.566)" fill="url(#paint7_linear_332_1176)"/>
</g>
</g>
<g clip-path="url(#clip8_332_1176)">
<g filter="url(#filter10_d_332_1176)">
<rect x="67.5161" y="515.799" width="3" height="12" rx="1.5" transform="rotate(-120 67.5161 515.799)" fill="url(#paint8_linear_332_1176)"/>
</g>
</g>
<g clip-path="url(#clip9_332_1176)">
<g filter="url(#filter11_d_332_1176)">
<rect x="92.4592" y="547.662" width="4" height="18" rx="2" transform="rotate(-135 92.4592 547.662)" fill="url(#paint9_linear_332_1176)"/>
</g>
</g>
<g clip-path="url(#clip10_332_1176)">
<g filter="url(#filter12_d_332_1176)">
<rect x="124.799" y="571.984" width="3" height="12" rx="1.5" transform="rotate(-150 124.799 571.984)" fill="url(#paint10_linear_332_1176)"/>
</g>
</g>
<g clip-path="url(#clip11_332_1176)">
<g filter="url(#filter13_d_332_1176)">
<rect x="162.332" y="587.107" width="3" height="12" rx="1.5" transform="rotate(-165 162.332 587.107)" fill="url(#paint11_linear_332_1176)"/>
</g>
</g>
<g clip-path="url(#clip12_332_1176)">
<g filter="url(#filter14_d_332_1176)">
<rect x="203" y="592" width="3" height="12" rx="1.5" transform="rotate(180 203 592)" fill="url(#paint12_linear_332_1176)"/>
</g>
</g>
<g clip-path="url(#clip13_332_1176)">
<g filter="url(#filter15_d_332_1176)">
<rect x="242.566" y="586.33" width="3" height="12" rx="1.5" transform="rotate(165 242.566 586.33)" fill="url(#paint13_linear_332_1176)"/>
</g>
</g>
<g clip-path="url(#clip14_332_1176)">
<g filter="url(#filter16_d_332_1176)">
<rect x="279.799" y="570.484" width="3" height="12" rx="1.5" transform="rotate(150 279.799 570.484)" fill="url(#paint14_linear_332_1176)"/>
</g>
</g>
<g clip-path="url(#clip15_332_1176)">
<g filter="url(#filter17_d_332_1176)">
<rect x="311.662" y="545.541" width="3" height="12" rx="1.5" transform="rotate(135 311.662 545.541)" fill="url(#paint15_linear_332_1176)"/>
</g>
</g>
<g clip-path="url(#clip16_332_1176)">
<g filter="url(#filter18_d_332_1176)">
<rect x="335.984" y="513.201" width="3" height="12" rx="1.5" transform="rotate(120 335.984 513.201)" fill="url(#paint16_linear_332_1176)"/>
</g>
</g>
<g clip-path="url(#clip17_332_1176)">
<g filter="url(#filter19_d_332_1176)">
<rect x="351.107" y="475.668" width="3" height="12" rx="1.5" transform="rotate(105 351.107 475.668)" fill="url(#paint17_linear_332_1176)"/>
</g>
</g>
<g clip-path="url(#clip18_332_1176)">
<g filter="url(#filter20_d_332_1176)">
<rect x="356" y="435" width="3" height="12" rx="1.5" transform="rotate(90 356 435)" fill="url(#paint18_linear_332_1176)"/>
</g>
</g>
<g clip-path="url(#clip19_332_1176)">
<g filter="url(#filter21_d_332_1176)">
<rect x="350.33" y="395.434" width="3" height="12" rx="1.5" transform="rotate(75 350.33 395.434)" fill="url(#paint19_linear_332_1176)"/>
</g>
</g>
<g clip-path="url(#clip20_332_1176)">
<g filter="url(#filter22_d_332_1176)">
<rect x="334.484" y="358.201" width="3" height="12" rx="1.5" transform="rotate(60 334.484 358.201)" fill="url(#paint20_linear_332_1176)"/>
</g>
</g>
<g clip-path="url(#clip21_332_1176)">
<g filter="url(#filter23_d_332_1176)">
<rect x="309.541" y="326.338" width="3" height="12" rx="1.5" transform="rotate(45 309.541 326.338)" fill="url(#paint21_linear_332_1176)"/>
</g>
</g>
<g clip-path="url(#clip22_332_1176)">
<g filter="url(#filter24_d_332_1176)">
<rect x="277.201" y="302.016" width="3" height="12" rx="1.5" transform="rotate(30 277.201 302.016)" fill="url(#paint22_linear_332_1176)"/>
</g>
</g>
<g clip-path="url(#clip23_332_1176)">
<g filter="url(#filter25_d_332_1176)">
<rect x="239.668" y="286.893" width="3" height="12" rx="1.5" transform="rotate(15 239.668 286.893)" fill="url(#paint23_linear_332_1176)"/>
</g>
</g>
</g>
<g filter="url(#filter26_i_332_1176)">
<circle cx="128" cy="502" r="10" fill="#C73535"/>
</g>
</g>
<defs>
<filter id="filter0_dd_332_1176" x="30.5856" y="266.586" width="345.11" height="345.11" filterUnits="userSpaceOnUse" color-interpolation-filters="sRGB">
<feFlood flood-opacity="0" result="BackgroundImageFix"/>
<feColorMatrix in="SourceAlpha" type="matrix" values="0 0 0 0 0 0 0 0 0 0 0 0 0 0 0 0 0 0 127 0" result="hardAlpha"/>
<feMorphology radius="4.28177" operator="dilate" in="SourceAlpha" result="effect1_dropShadow_332_1176"/>
<feOffset dx="5.13812" dy="5.13812"/>
<feGaussianBlur stdDeviation="5.13812"/>
<feComposite in2="hardAlpha" operator="out"/>
<feColorMatrix type="matrix" values="0 0 0 0 0.639216 0 0 0 0 0.694118 0 0 0 0 0.776471 0 0 0 1 0"/>
<feBlend mode="normal" in2="BackgroundImageFix" result="effect1_dropShadow_332_1176"/>
<feColorMatrix in="SourceAlpha" type="matrix" values="0 0 0 0 0 0 0 0 0 0 0 0 0 0 0 0 0 0 127 0" result="hardAlpha"/>
<feOffset dx="-5.13812" dy="-5.13812"/>
<feGaussianBlur stdDeviation="5.13812"/>
<feComposite in2="hardAlpha" operator="out"/>
<feColorMatrix type="matrix" values="0 0 0 0 1 0 0 0 0 1 0 0 0 0 1 0 0 0 1 0"/>
<feBlend mode="normal" in2="effect1_dropShadow_332_1176" result="effect2_dropShadow_332_1176"/>
<feBlend mode="normal" in="SourceGraphic" in2="effect2_dropShadow_332_1176" result="shape"/>
</filter>
<filter id="filter1_ii_332_1176" x="64.1492" y="300.149" width="273.702" height="273.702" filterUnits="userSpaceOnUse" color-interpolation-filters="sRGB">
<feFlood flood-opacity="0" result="BackgroundImageFix"/>
<feBlend mode="normal" in="SourceGraphic" in2="BackgroundImageFix" result="shape"/>
<feColorMatrix in="SourceAlpha" type="matrix" values="0 0 0 0 0 0 0 0 0 0 0 0 0 0 0 0 0 0 127 0" result="hardAlpha"/>
<feMorphology radius="4.28177" operator="erode" in="SourceAlpha" result="effect1_innerShadow_332_1176"/>
<feOffset dx="-6.85083" dy="-6.85083"/>
<feGaussianBlur stdDeviation="6.20856"/>
<feComposite in2="hardAlpha" operator="arithmetic" k2="-1" k3="1"/>
<feColorMatrix type="matrix" values="0 0 0 0 1 0 0 0 0 1 0 0 0 0 1 0 0 0 1 0"/>
<feBlend mode="normal" in2="shape" result="effect1_innerShadow_332_1176"/>
<feColorMatrix in="SourceAlpha" type="matrix" values="0 0 0 0 0 0 0 0 0 0 0 0 0 0 0 0 0 0 127 0" result="hardAlpha"/>
<feOffset dx="6.85083" dy="6.85083"/>
<feGaussianBlur stdDeviation="4.06768"/>
<feComposite in2="hardAlpha" operator="arithmetic" k2="-1" k3="1"/>
<feColorMatrix type="matrix" values="0 0 0 0 0.639216 0 0 0 0 0.694118 0 0 0 0 0.776471 0 0 0 0.25 0"/>
<feBlend mode="normal" in2="effect1_innerShadow_332_1176" result="effect2_innerShadow_332_1176"/>
</filter>
<filter id="filter2_d_332_1176" x="200" y="282" width="5" height="15" filterUnits="userSpaceOnUse" color-interpolation-filters="sRGB">
<feFlood flood-opacity="0" result="BackgroundImageFix"/>
<feColorMatrix in="SourceAlpha" type="matrix" values="0 0 0 0 0 0 0 0 0 0 0 0 0 0 0 0 0 0 127 0" result="hardAlpha"/>
<feOffset dx="1" dy="2"/>
<feGaussianBlur stdDeviation="0.5"/>
<feComposite in2="hardAlpha" operator="out"/>
<feColorMatrix type="matrix" values="0 0 0 0 1 0 0 0 0 1 0 0 0 0 1 0 0 0 0.06 0"/>
<feBlend mode="normal" in2="BackgroundImageFix" result="effect1_dropShadow_332_1176"/>
<feBlend mode="normal" in="SourceGraphic" in2="effect1_dropShadow_332_1176" result="shape"/>
</filter>
<filter id="filter3_d_332_1176" x="159.771" y="287.23" width="7.33008" height="14.6941" filterUnits="userSpaceOnUse" color-interpolation-filters="sRGB">
<feFlood flood-opacity="0" result="BackgroundImageFix"/>
<feColorMatrix in="SourceAlpha" type="matrix" values="0 0 0 0 0 0 0 0 0 0 0 0 0 0 0 0 0 0 127 0" result="hardAlpha"/>
<feOffset dx="1" dy="2"/>
<feGaussianBlur stdDeviation="0.5"/>
<feComposite in2="hardAlpha" operator="out"/>
<feColorMatrix type="matrix" values="0 0 0 0 1 0 0 0 0 1 0 0 0 0 1 0 0 0 0.06 0"/>
<feBlend mode="normal" in2="BackgroundImageFix" result="effect1_dropShadow_332_1176"/>
<feBlend mode="normal" in="SourceGraphic" in2="effect1_dropShadow_332_1176" result="shape"/>
</filter>
<filter id="filter4_d_332_1176" x="122.75" y="302.565" width="9.50049" height="13.7947" filterUnits="userSpaceOnUse" color-interpolation-filters="sRGB">
<feFlood flood-opacity="0" result="BackgroundImageFix"/>
<feColorMatrix in="SourceAlpha" type="matrix" values="0 0 0 0 0 0 0 0 0 0 0 0 0 0 0 0 0 0 127 0" result="hardAlpha"/>
<feOffset dx="1" dy="2"/>
<feGaussianBlur stdDeviation="0.5"/>
<feComposite in2="hardAlpha" operator="out"/>
<feColorMatrix type="matrix" values="0 0 0 0 1 0 0 0 0 1 0 0 0 0 1 0 0 0 0.06 0"/>
<feBlend mode="normal" in2="BackgroundImageFix" result="effect1_dropShadow_332_1176"/>
<feBlend mode="normal" in="SourceGraphic" in2="effect1_dropShadow_332_1176" result="shape"/>
</filter>
<filter id="filter5_d_332_1176" x="90.9592" y="326.959" width="11.3639" height="12.364" filterUnits="userSpaceOnUse" color-interpolation-filters="sRGB">
<feFlood flood-opacity="0" result="BackgroundImageFix"/>
<feColorMatrix in="SourceAlpha" type="matrix" values="0 0 0 0 0 0 0 0 0 0 0 0 0 0 0 0 0 0 127 0" result="hardAlpha"/>
<feOffset dx="1" dy="2"/>
<feGaussianBlur stdDeviation="0.5"/>
<feComposite in2="hardAlpha" operator="out"/>
<feColorMatrix type="matrix" values="0 0 0 0 1 0 0 0 0 1 0 0 0 0 1 0 0 0 0.06 0"/>
<feBlend mode="normal" in2="BackgroundImageFix" result="effect1_dropShadow_332_1176"/>
<feBlend mode="normal" in="SourceGraphic" in2="effect1_dropShadow_332_1176" result="shape"/>
</filter>
<filter id="filter6_d_332_1176" x="66.5649" y="358.75" width="12.7947" height="10.5005" filterUnits="userSpaceOnUse" color-interpolation-filters="sRGB">
<feFlood flood-opacity="0" result="BackgroundImageFix"/>
<feColorMatrix in="SourceAlpha" type="matrix" values="0 0 0 0 0 0 0 0 0 0 0 0 0 0 0 0 0 0 127 0" result="hardAlpha"/>
<feOffset dx="1" dy="2"/>
<feGaussianBlur stdDeviation="0.5"/>
<feComposite in2="hardAlpha" operator="out"/>
<feColorMatrix type="matrix" values="0 0 0 0 1 0 0 0 0 1 0 0 0 0 1 0 0 0 0.06 0"/>
<feBlend mode="normal" in2="BackgroundImageFix" result="effect1_dropShadow_332_1176"/>
<feBlend mode="normal" in="SourceGraphic" in2="effect1_dropShadow_332_1176" result="shape"/>
</filter>
<filter id="filter7_d_332_1176" x="51.2302" y="395.771" width="13.694" height="8.33014" filterUnits="userSpaceOnUse" color-interpolation-filters="sRGB">
<feFlood flood-opacity="0" result="BackgroundImageFix"/>
<feColorMatrix in="SourceAlpha" type="matrix" values="0 0 0 0 0 0 0 0 0 0 0 0 0 0 0 0 0 0 127 0" result="hardAlpha"/>
<feOffset dx="1" dy="2"/>
<feGaussianBlur stdDeviation="0.5"/>
<feComposite in2="hardAlpha" operator="out"/>
<feColorMatrix type="matrix" values="0 0 0 0 1 0 0 0 0 1 0 0 0 0 1 0 0 0 0.06 0"/>
<feBlend mode="normal" in2="BackgroundImageFix" result="effect1_dropShadow_332_1176"/>
<feBlend mode="normal" in="SourceGraphic" in2="effect1_dropShadow_332_1176" result="shape"/>
</filter>
<filter id="filter8_d_332_1176" x="46" y="436" width="14" height="6" filterUnits="userSpaceOnUse" color-interpolation-filters="sRGB">
<feFlood flood-opacity="0" result="BackgroundImageFix"/>
<feColorMatrix in="SourceAlpha" type="matrix" values="0 0 0 0 0 0 0 0 0 0 0 0 0 0 0 0 0 0 127 0" result="hardAlpha"/>
<feOffset dx="1" dy="2"/>
<feGaussianBlur stdDeviation="0.5"/>
<feComposite in2="hardAlpha" operator="out"/>
<feColorMatrix type="matrix" values="0 0 0 0 1 0 0 0 0 1 0 0 0 0 1 0 0 0 0.06 0"/>
<feBlend mode="normal" in2="BackgroundImageFix" result="effect1_dropShadow_332_1176"/>
<feBlend mode="normal" in="SourceGraphic" in2="effect1_dropShadow_332_1176" result="shape"/>
</filter>
<filter id="filter9_d_332_1176" x="51.23" y="472.899" width="13.6941" height="8.33014" filterUnits="userSpaceOnUse" color-interpolation-filters="sRGB">
<feFlood flood-opacity="0" result="BackgroundImageFix"/>
<feColorMatrix in="SourceAlpha" type="matrix" values="0 0 0 0 0 0 0 0 0 0 0 0 0 0 0 0 0 0 127 0" result="hardAlpha"/>
<feOffset dx="1" dy="2"/>
<feGaussianBlur stdDeviation="0.5"/>
<feComposite in2="hardAlpha" operator="out"/>
<feColorMatrix type="matrix" values="0 0 0 0 1 0 0 0 0 1 0 0 0 0 1 0 0 0 0.06 0"/>
<feBlend mode="normal" in2="BackgroundImageFix" result="effect1_dropShadow_332_1176"/>
<feBlend mode="normal" in="SourceGraphic" in2="effect1_dropShadow_332_1176" result="shape"/>
</filter>
<filter id="filter10_d_332_1176" x="66.5649" y="507.75" width="12.7947" height="10.5005" filterUnits="userSpaceOnUse" color-interpolation-filters="sRGB">
<feFlood flood-opacity="0" result="BackgroundImageFix"/>
<feColorMatrix in="SourceAlpha" type="matrix" values="0 0 0 0 0 0 0 0 0 0 0 0 0 0 0 0 0 0 127 0" result="hardAlpha"/>
<feOffset dx="1" dy="2"/>
<feGaussianBlur stdDeviation="0.5"/>
<feComposite in2="hardAlpha" operator="out"/>
<feColorMatrix type="matrix" values="0 0 0 0 1 0 0 0 0 1 0 0 0 0 1 0 0 0 0.06 0"/>
<feBlend mode="normal" in2="BackgroundImageFix" result="effect1_dropShadow_332_1176"/>
<feBlend mode="normal" in="SourceGraphic" in2="effect1_dropShadow_332_1176" result="shape"/>
</filter>
<filter id="filter11_d_332_1176" x="90.4592" y="532.934" width="15.8995" height="16.8995" filterUnits="userSpaceOnUse" color-interpolation-filters="sRGB">
<feFlood flood-opacity="0" result="BackgroundImageFix"/>
<feColorMatrix in="SourceAlpha" type="matrix" values="0 0 0 0 0 0 0 0 0 0 0 0 0 0 0 0 0 0 127 0" result="hardAlpha"/>
<feOffset dx="1" dy="2"/>
<feGaussianBlur stdDeviation="0.5"/>
<feComposite in2="hardAlpha" operator="out"/>
<feColorMatrix type="matrix" values="0 0 0 0 1 0 0 0 0 1 0 0 0 0 1 0 0 0 0.06 0"/>
<feBlend mode="normal" in2="BackgroundImageFix" result="effect1_dropShadow_332_1176"/>
<feBlend mode="normal" in="SourceGraphic" in2="effect1_dropShadow_332_1176" result="shape"/>
</filter>
<filter id="filter12_d_332_1176" x="122.75" y="560.64" width="9.50049" height="13.7947" filterUnits="userSpaceOnUse" color-interpolation-filters="sRGB">
<feFlood flood-opacity="0" result="BackgroundImageFix"/>
<feColorMatrix in="SourceAlpha" type="matrix" values="0 0 0 0 0 0 0 0 0 0 0 0 0 0 0 0 0 0 127 0" result="hardAlpha"/>
<feOffset dx="1" dy="2"/>
<feGaussianBlur stdDeviation="0.5"/>
<feComposite in2="hardAlpha" operator="out"/>
<feColorMatrix type="matrix" values="0 0 0 0 1 0 0 0 0 1 0 0 0 0 1 0 0 0 0.06 0"/>
<feBlend mode="normal" in2="BackgroundImageFix" result="effect1_dropShadow_332_1176"/>
<feBlend mode="normal" in="SourceGraphic" in2="effect1_dropShadow_332_1176" result="shape"/>
</filter>
<filter id="filter13_d_332_1176" x="159.771" y="575.076" width="7.33008" height="14.6941" filterUnits="userSpaceOnUse" color-interpolation-filters="sRGB">
<feFlood flood-opacity="0" result="BackgroundImageFix"/>
<feColorMatrix in="SourceAlpha" type="matrix" values="0 0 0 0 0 0 0 0 0 0 0 0 0 0 0 0 0 0 127 0" result="hardAlpha"/>
<feOffset dx="1" dy="2"/>
<feGaussianBlur stdDeviation="0.5"/>
<feComposite in2="hardAlpha" operator="out"/>
<feColorMatrix type="matrix" values="0 0 0 0 1 0 0 0 0 1 0 0 0 0 1 0 0 0 0.06 0"/>
<feBlend mode="normal" in2="BackgroundImageFix" result="effect1_dropShadow_332_1176"/>
<feBlend mode="normal" in="SourceGraphic" in2="effect1_dropShadow_332_1176" result="shape"/>
</filter>
<filter id="filter14_d_332_1176" x="200" y="580" width="5" height="15" filterUnits="userSpaceOnUse" color-interpolation-filters="sRGB">
<feFlood flood-opacity="0" result="BackgroundImageFix"/>
<feColorMatrix in="SourceAlpha" type="matrix" values="0 0 0 0 0 0 0 0 0 0 0 0 0 0 0 0 0 0 127 0" result="hardAlpha"/>
<feOffset dx="1" dy="2"/>
<feGaussianBlur stdDeviation="0.5"/>
<feComposite in2="hardAlpha" operator="out"/>
<feColorMatrix type="matrix" values="0 0 0 0 1 0 0 0 0 1 0 0 0 0 1 0 0 0 0.06 0"/>
<feBlend mode="normal" in2="BackgroundImageFix" result="effect1_dropShadow_332_1176"/>
<feBlend mode="normal" in="SourceGraphic" in2="effect1_dropShadow_332_1176" result="shape"/>
</filter>
<filter id="filter15_d_332_1176" x="236.899" y="575.076" width="7.33008" height="14.6941" filterUnits="userSpaceOnUse" color-interpolation-filters="sRGB">
<feFlood flood-opacity="0" result="BackgroundImageFix"/>
<feColorMatrix in="SourceAlpha" type="matrix" values="0 0 0 0 0 0 0 0 0 0 0 0 0 0 0 0 0 0 127 0" result="hardAlpha"/>
<feOffset dx="1" dy="2"/>
<feGaussianBlur stdDeviation="0.5"/>
<feComposite in2="hardAlpha" operator="out"/>
<feColorMatrix type="matrix" values="0 0 0 0 1 0 0 0 0 1 0 0 0 0 1 0 0 0 0.06 0"/>
<feBlend mode="normal" in2="BackgroundImageFix" result="effect1_dropShadow_332_1176"/>
<feBlend mode="normal" in="SourceGraphic" in2="effect1_dropShadow_332_1176" result="shape"/>
</filter>
<filter id="filter16_d_332_1176" x="271.75" y="560.64" width="9.50049" height="13.7947" filterUnits="userSpaceOnUse" color-interpolation-filters="sRGB">
<feFlood flood-opacity="0" result="BackgroundImageFix"/>
<feColorMatrix in="SourceAlpha" type="matrix" values="0 0 0 0 0 0 0 0 0 0 0 0 0 0 0 0 0 0 127 0" result="hardAlpha"/>
<feOffset dx="1" dy="2"/>
<feGaussianBlur stdDeviation="0.5"/>
<feComposite in2="hardAlpha" operator="out"/>
<feColorMatrix type="matrix" values="0 0 0 0 1 0 0 0 0 1 0 0 0 0 1 0 0 0 0.06 0"/>
<feBlend mode="normal" in2="BackgroundImageFix" result="effect1_dropShadow_332_1176"/>
<feBlend mode="normal" in="SourceGraphic" in2="effect1_dropShadow_332_1176" result="shape"/>
</filter>
<filter id="filter17_d_332_1176" x="301.677" y="537.677" width="11.364" height="12.364" filterUnits="userSpaceOnUse" color-interpolation-filters="sRGB">
<feFlood flood-opacity="0" result="BackgroundImageFix"/>
<feColorMatrix in="SourceAlpha" type="matrix" values="0 0 0 0 0 0 0 0 0 0 0 0 0 0 0 0 0 0 127 0" result="hardAlpha"/>
<feOffset dx="1" dy="2"/>
<feGaussianBlur stdDeviation="0.5"/>
<feComposite in2="hardAlpha" operator="out"/>
<feColorMatrix type="matrix" values="0 0 0 0 1 0 0 0 0 1 0 0 0 0 1 0 0 0 0.06 0"/>
<feBlend mode="normal" in2="BackgroundImageFix" result="effect1_dropShadow_332_1176"/>
<feBlend mode="normal" in="SourceGraphic" in2="effect1_dropShadow_332_1176" result="shape"/>
</filter>
<filter id="filter18_d_332_1176" x="324.64" y="507.75" width="12.7947" height="10.5005" filterUnits="userSpaceOnUse" color-interpolation-filters="sRGB">
<feFlood flood-opacity="0" result="BackgroundImageFix"/>
<feColorMatrix in="SourceAlpha" type="matrix" values="0 0 0 0 0 0 0 0 0 0 0 0 0 0 0 0 0 0 127 0" result="hardAlpha"/>
<feOffset dx="1" dy="2"/>
<feGaussianBlur stdDeviation="0.5"/>
<feComposite in2="hardAlpha" operator="out"/>
<feColorMatrix type="matrix" values="0 0 0 0 1 0 0 0 0 1 0 0 0 0 1 0 0 0 0.06 0"/>
<feBlend mode="normal" in2="BackgroundImageFix" result="effect1_dropShadow_332_1176"/>
<feBlend mode="normal" in="SourceGraphic" in2="effect1_dropShadow_332_1176" result="shape"/>
</filter>
<filter id="filter19_d_332_1176" x="339.076" y="472.899" width="13.6941" height="8.33014" filterUnits="userSpaceOnUse" color-interpolation-filters="sRGB">
<feFlood flood-opacity="0" result="BackgroundImageFix"/>
<feColorMatrix in="SourceAlpha" type="matrix" values="0 0 0 0 0 0 0 0 0 0 0 0 0 0 0 0 0 0 127 0" result="hardAlpha"/>
<feOffset dx="1" dy="2"/>
<feGaussianBlur stdDeviation="0.5"/>
<feComposite in2="hardAlpha" operator="out"/>
<feColorMatrix type="matrix" values="0 0 0 0 1 0 0 0 0 1 0 0 0 0 1 0 0 0 0.06 0"/>
<feBlend mode="normal" in2="BackgroundImageFix" result="effect1_dropShadow_332_1176"/>
<feBlend mode="normal" in="SourceGraphic" in2="effect1_dropShadow_332_1176" result="shape"/>
</filter>
<filter id="filter20_d_332_1176" x="344" y="435" width="14" height="6" filterUnits="userSpaceOnUse" color-interpolation-filters="sRGB">
<feFlood flood-opacity="0" result="BackgroundImageFix"/>
<feColorMatrix in="SourceAlpha" type="matrix" values="0 0 0 0 0 0 0 0 0 0 0 0 0 0 0 0 0 0 127 0" result="hardAlpha"/>
<feOffset dx="1" dy="2"/>
<feGaussianBlur stdDeviation="0.5"/>
<feComposite in2="hardAlpha" operator="out"/>
<feColorMatrix type="matrix" values="0 0 0 0 1 0 0 0 0 1 0 0 0 0 1 0 0 0 0.06 0"/>
<feBlend mode="normal" in2="BackgroundImageFix" result="effect1_dropShadow_332_1176"/>
<feBlend mode="normal" in="SourceGraphic" in2="effect1_dropShadow_332_1176" result="shape"/>
</filter>
<filter id="filter21_d_332_1176" x="339.076" y="395.771" width="13.6941" height="8.33014" filterUnits="userSpaceOnUse" color-interpolation-filters="sRGB">
<feFlood flood-opacity="0" result="BackgroundImageFix"/>
<feColorMatrix in="SourceAlpha" type="matrix" values="0 0 0 0 0 0 0 0 0 0 0 0 0 0 0 0 0 0 127 0" result="hardAlpha"/>
<feOffset dx="1" dy="2"/>
<feGaussianBlur stdDeviation="0.5"/>
<feComposite in2="hardAlpha" operator="out"/>
<feColorMatrix type="matrix" values="0 0 0 0 1 0 0 0 0 1 0 0 0 0 1 0 0 0 0.06 0"/>
<feBlend mode="normal" in2="BackgroundImageFix" result="effect1_dropShadow_332_1176"/>
<feBlend mode="normal" in="SourceGraphic" in2="effect1_dropShadow_332_1176" result="shape"/>
</filter>
<filter id="filter22_d_332_1176" x="324.64" y="358.75" width="12.7947" height="10.5005" filterUnits="userSpaceOnUse" color-interpolation-filters="sRGB">
<feFlood flood-opacity="0" result="BackgroundImageFix"/>
<feColorMatrix in="SourceAlpha" type="matrix" values="0 0 0 0 0 0 0 0 0 0 0 0 0 0 0 0 0 0 127 0" result="hardAlpha"/>
<feOffset dx="1" dy="2"/>
<feGaussianBlur stdDeviation="0.5"/>
<feComposite in2="hardAlpha" operator="out"/>
<feColorMatrix type="matrix" values="0 0 0 0 1 0 0 0 0 1 0 0 0 0 1 0 0 0 0.06 0"/>
<feBlend mode="normal" in2="BackgroundImageFix" result="effect1_dropShadow_332_1176"/>
<feBlend mode="normal" in="SourceGraphic" in2="effect1_dropShadow_332_1176" result="shape"/>
</filter>
<filter id="filter23_d_332_1176" x="301.677" y="326.959" width="11.364" height="12.364" filterUnits="userSpaceOnUse" color-interpolation-filters="sRGB">
<feFlood flood-opacity="0" result="BackgroundImageFix"/>
<feColorMatrix in="SourceAlpha" type="matrix" values="0 0 0 0 0 0 0 0 0 0 0 0 0 0 0 0 0 0 127 0" result="hardAlpha"/>
<feOffset dx="1" dy="2"/>
<feGaussianBlur stdDeviation="0.5"/>
<feComposite in2="hardAlpha" operator="out"/>
<feColorMatrix type="matrix" values="0 0 0 0 1 0 0 0 0 1 0 0 0 0 1 0 0 0 0.06 0"/>
<feBlend mode="normal" in2="BackgroundImageFix" result="effect1_dropShadow_332_1176"/>
<feBlend mode="normal" in="SourceGraphic" in2="effect1_dropShadow_332_1176" result="shape"/>
</filter>
<filter id="filter24_d_332_1176" x="271.75" y="302.565" width="9.50049" height="13.7947" filterUnits="userSpaceOnUse" color-interpolation-filters="sRGB">
<feFlood flood-opacity="0" result="BackgroundImageFix"/>
<feColorMatrix in="SourceAlpha" type="matrix" values="0 0 0 0 0 0 0 0 0 0 0 0 0 0 0 0 0 0 127 0" result="hardAlpha"/>
<feOffset dx="1" dy="2"/>
<feGaussianBlur stdDeviation="0.5"/>
<feComposite in2="hardAlpha" operator="out"/>
<feColorMatrix type="matrix" values="0 0 0 0 1 0 0 0 0 1 0 0 0 0 1 0 0 0 0.06 0"/>
<feBlend mode="normal" in2="BackgroundImageFix" result="effect1_dropShadow_332_1176"/>
<feBlend mode="normal" in="SourceGraphic" in2="effect1_dropShadow_332_1176" result="shape"/>
</filter>
<filter id="filter25_d_332_1176" x="236.899" y="287.23" width="7.33008" height="14.6941" filterUnits="userSpaceOnUse" color-interpolation-filters="sRGB">
<feFlood flood-opacity="0" result="BackgroundImageFix"/>
<feColorMatrix in="SourceAlpha" type="matrix" values="0 0 0 0 0 0 0 0 0 0 0 0 0 0 0 0 0 0 127 0" result="hardAlpha"/>
<feOffset dx="1" dy="2"/>
<feGaussianBlur stdDeviation="0.5"/>
<feComposite in2="hardAlpha" operator="out"/>
<feColorMatrix type="matrix" values="0 0 0 0 1 0 0 0 0 1 0 0 0 0 1 0 0 0 0.06 0"/>
<feBlend mode="normal" in2="BackgroundImageFix" result="effect1_dropShadow_332_1176"/>
<feBlend mode="normal" in="SourceGraphic" in2="effect1_dropShadow_332_1176" result="shape"/>
</filter>
<filter id="filter26_i_332_1176" x="118" y="492" width="22" height="23" filterUnits="userSpaceOnUse" color-interpolation-filters="sRGB">
<feFlood flood-opacity="0" result="BackgroundImageFix"/>
<feBlend mode="normal" in="SourceGraphic" in2="BackgroundImageFix" result="shape"/>
<feColorMatrix in="SourceAlpha" type="matrix" values="0 0 0 0 0 0 0 0 0 0 0 0 0 0 0 0 0 0 127 0" result="hardAlpha"/>
<feOffset dx="2" dy="3"/>
<feGaussianBlur stdDeviation="2"/>
<feComposite in2="hardAlpha" operator="arithmetic" k2="-1" k3="1"/>
<feColorMatrix type="matrix" values="0 0 0 0 0 0 0 0 0 0 0 0 0 0 0 0 0 0 0.4 0"/>
<feBlend mode="normal" in2="shape" result="effect1_innerShadow_332_1176"/>
</filter>
<linearGradient id="paint0_linear_332_1176" x1="201.5" y1="282" x2="201.5" y2="294" gradientUnits="userSpaceOnUse">
<stop stop-color="#D2D5DA"/>
<stop offset="1" stop-color="#9498A0"/>
</linearGradient>
<linearGradient id="paint1_linear_332_1176" x1="160.934" y1="287.67" x2="160.934" y2="299.67" gradientUnits="userSpaceOnUse">
<stop stop-color="#D2D5DA"/>
<stop offset="1" stop-color="#9498A0"/>
</linearGradient>
<linearGradient id="paint2_linear_332_1176" x1="123.701" y1="303.516" x2="123.701" y2="315.516" gradientUnits="userSpaceOnUse">
<stop stop-color="#D2D5DA"/>
<stop offset="1" stop-color="#9498A0"/>
</linearGradient>
<linearGradient id="paint3_linear_332_1176" x1="91.8379" y1="328.459" x2="91.8379" y2="340.459" gradientUnits="userSpaceOnUse">
<stop stop-color="#D2D5DA"/>
<stop offset="1" stop-color="#9498A0"/>
</linearGradient>
<linearGradient id="paint4_linear_332_1176" x1="67.5161" y1="360.799" x2="67.5161" y2="372.799" gradientUnits="userSpaceOnUse">
<stop stop-color="#D2D5DA"/>
<stop offset="1" stop-color="#9498A0"/>
</linearGradient>
<linearGradient id="paint5_linear_332_1176" x1="52.3934" y1="398.332" x2="52.3934" y2="410.332" gradientUnits="userSpaceOnUse">
<stop stop-color="#D2D5DA"/>
<stop offset="1" stop-color="#9498A0"/>
</linearGradient>
<linearGradient id="paint6_linear_332_1176" x1="47.5" y1="439" x2="47.5" y2="451" gradientUnits="userSpaceOnUse">
<stop stop-color="#D2D5DA"/>
<stop offset="1" stop-color="#9498A0"/>
</linearGradient>
<linearGradient id="paint7_linear_332_1176" x1="53.1697" y1="478.566" x2="53.1697" y2="490.566" gradientUnits="userSpaceOnUse">
<stop stop-color="#D2D5DA"/>
<stop offset="1" stop-color="#9498A0"/>
</linearGradient>
<linearGradient id="paint8_linear_332_1176" x1="69.0161" y1="515.799" x2="69.0161" y2="527.799" gradientUnits="userSpaceOnUse">
<stop stop-color="#D2D5DA"/>
<stop offset="1" stop-color="#9498A0"/>
</linearGradient>
<linearGradient id="paint9_linear_332_1176" x1="94.4592" y1="547.662" x2="94.4592" y2="565.662" gradientUnits="userSpaceOnUse">
<stop stop-color="#D2D5DA"/>
<stop offset="1" stop-color="#9498A0"/>
</linearGradient>
<linearGradient id="paint10_linear_332_1176" x1="126.299" y1="571.984" x2="126.299" y2="583.984" gradientUnits="userSpaceOnUse">
<stop stop-color="#D2D5DA"/>
<stop offset="1" stop-color="#9498A0"/>
</linearGradient>
<linearGradient id="paint11_linear_332_1176" x1="163.832" y1="587.107" x2="163.832" y2="599.107" gradientUnits="userSpaceOnUse">
<stop stop-color="#D2D5DA"/>
<stop offset="1" stop-color="#9498A0"/>
</linearGradient>
<linearGradient id="paint12_linear_332_1176" x1="204.5" y1="592" x2="204.5" y2="604" gradientUnits="userSpaceOnUse">
<stop stop-color="#D2D5DA"/>
<stop offset="1" stop-color="#9498A0"/>
</linearGradient>
<linearGradient id="paint13_linear_332_1176" x1="244.066" y1="586.33" x2="244.066" y2="598.33" gradientUnits="userSpaceOnUse">
<stop stop-color="#D2D5DA"/>
<stop offset="1" stop-color="#9498A0"/>
</linearGradient>
<linearGradient id="paint14_linear_332_1176" x1="281.299" y1="570.484" x2="281.299" y2="582.484" gradientUnits="userSpaceOnUse">
<stop stop-color="#D2D5DA"/>
<stop offset="1" stop-color="#9498A0"/>
</linearGradient>
<linearGradient id="paint15_linear_332_1176" x1="313.162" y1="545.541" x2="313.162" y2="557.541" gradientUnits="userSpaceOnUse">
<stop stop-color="#D2D5DA"/>
<stop offset="1" stop-color="#9498A0"/>
</linearGradient>
<linearGradient id="paint16_linear_332_1176" x1="337.484" y1="513.201" x2="337.484" y2="525.201" gradientUnits="userSpaceOnUse">
<stop stop-color="#D2D5DA"/>
<stop offset="1" stop-color="#9498A0"/>
</linearGradient>
<linearGradient id="paint17_linear_332_1176" x1="352.607" y1="475.668" x2="352.607" y2="487.668" gradientUnits="userSpaceOnUse">
<stop stop-color="#D2D5DA"/>
<stop offset="1" stop-color="#9498A0"/>
</linearGradient>
<linearGradient id="paint18_linear_332_1176" x1="357.5" y1="435" x2="357.5" y2="447" gradientUnits="userSpaceOnUse">
<stop stop-color="#D2D5DA"/>
<stop offset="1" stop-color="#9498A0"/>
</linearGradient>
<linearGradient id="paint19_linear_332_1176" x1="351.83" y1="395.434" x2="351.83" y2="407.434" gradientUnits="userSpaceOnUse">
<stop stop-color="#D2D5DA"/>
<stop offset="1" stop-color="#9498A0"/>
</linearGradient>
<linearGradient id="paint20_linear_332_1176" x1="335.984" y1="358.201" x2="335.984" y2="370.201" gradientUnits="userSpaceOnUse">
<stop stop-color="#D2D5DA"/>
<stop offset="1" stop-color="#9498A0"/>
</linearGradient>
<linearGradient id="paint21_linear_332_1176" x1="311.041" y1="326.338" x2="311.041" y2="338.338" gradientUnits="userSpaceOnUse">
<stop stop-color="#D2D5DA"/>
<stop offset="1" stop-color="#9498A0"/>
</linearGradient>
<linearGradient id="paint22_linear_332_1176" x1="278.701" y1="302.016" x2="278.701" y2="314.016" gradientUnits="userSpaceOnUse">
<stop stop-color="#D2D5DA"/>
<stop offset="1" stop-color="#9498A0"/>
</linearGradient>
<linearGradient id="paint23_linear_332_1176" x1="241.168" y1="286.893" x2="241.168" y2="298.893" gradientUnits="userSpaceOnUse">
<stop stop-color="#D2D5DA"/>
<stop offset="1" stop-color="#9498A0"/>
</linearGradient>
<clipPath id="clip0_332_1176">
<rect width="402" height="874" fill="white"/>
</clipPath>
<clipPath id="clip1_332_1176">
<rect width="310" height="310" fill="white" transform="translate(46 282)"/>
</clipPath>
<clipPath id="clip2_332_1176">
<rect width="310" height="310" fill="white" transform="translate(11.1646 327.398) rotate(-15)"/>
</clipPath>
<clipPath id="clip3_332_1176">
<rect width="310" height="310" fill="white" transform="translate(-10.7339 380.266) rotate(-30)"/>
</clipPath>
<clipPath id="clip4_332_1176">
<rect width="310" height="310" fill="white" transform="translate(-18.203 437) rotate(-45)"/>
</clipPath>
<clipPath id="clip5_332_1176">
<rect width="310" height="310" fill="white" transform="translate(-10.7339 493.734) rotate(-60)"/>
</clipPath>
<clipPath id="clip6_332_1176">
<rect width="310" height="310" fill="white" transform="translate(11.1647 546.602) rotate(-75)"/>
</clipPath>
<clipPath id="clip7_332_1176">
<rect width="310" height="310" fill="white" transform="translate(91.3984 626.835) rotate(-105)"/>
</clipPath>
<clipPath id="clip8_332_1176">
<rect width="310" height="310" fill="white" transform="translate(144.266 648.734) rotate(-120)"/>
</clipPath>
<clipPath id="clip9_332_1176">
<rect width="310" height="310" fill="white" transform="translate(201 656.203) rotate(-135)"/>
</clipPath>
<clipPath id="clip10_332_1176">
<rect width="310" height="310" fill="white" transform="translate(257.734 648.734) rotate(-150)"/>
</clipPath>
<clipPath id="clip11_332_1176">
<rect width="310" height="310" fill="white" transform="translate(310.602 626.835) rotate(-165)"/>
</clipPath>
<clipPath id="clip12_332_1176">
<rect width="310" height="310" fill="white" transform="translate(356 592) rotate(180)"/>
</clipPath>
<clipPath id="clip13_332_1176">
<rect width="310" height="310" fill="white" transform="translate(390.835 546.602) rotate(165)"/>
</clipPath>
<clipPath id="clip14_332_1176">
<rect width="310" height="310" fill="white" transform="translate(412.734 493.734) rotate(150)"/>
</clipPath>
<clipPath id="clip15_332_1176">
<rect width="310" height="310" fill="white" transform="translate(420.203 437) rotate(135)"/>
</clipPath>
<clipPath id="clip16_332_1176">
<rect width="310" height="310" fill="white" transform="translate(412.734 380.266) rotate(120)"/>
</clipPath>
<clipPath id="clip17_332_1176">
<rect width="310" height="310" fill="white" transform="translate(390.835 327.398) rotate(105)"/>
</clipPath>
<clipPath id="clip18_332_1176">
<rect width="310" height="310" fill="white" transform="translate(356 282) rotate(90)"/>
</clipPath>
<clipPath id="clip19_332_1176">
<rect width="310" height="310" fill="white" transform="translate(310.602 247.165) rotate(75)"/>
</clipPath>
<clipPath id="clip20_332_1176">
<rect width="310" height="310" fill="white" transform="translate(257.734 225.266) rotate(60)"/>
</clipPath>
<clipPath id="clip21_332_1176">
<rect width="310" height="310" fill="white" transform="translate(201 217.797) rotate(45)"/>
</clipPath>
<clipPath id="clip22_332_1176">
<rect width="310" height="310" fill="white" transform="translate(144.266 225.266) rotate(30)"/>
</clipPath>
<clipPath id="clip23_332_1176">
<rect width="310" height="310" fill="white" transform="translate(91.3986 247.165) rotate(15)"/>
</clipPath>
</defs>
</svg>
