<svg width="402" height="874" viewBox="0 0 402 874" fill="none" xmlns="http://www.w3.org/2000/svg">
<g clip-path="url(#clip0_236_734)">
<rect width="402" height="874" fill="#E0E5EC"/>
<g filter="url(#filter0_ii_236_734)">
<path d="M214.946 237.658C208.333 235.503 193.489 235.449 186.012 237.495C183.197 238.266 182 241.067 182 243.985V345C182 351.627 187.373 357 194 357H206C212.627 357 218 351.627 218 345V243.06C218 240.71 217.181 238.386 214.946 237.658Z" fill="#C73535"/>
</g>
<g filter="url(#filter1_ddi_236_734)">
<path d="M240.075 579C210.926 576.293 190.848 576.334 162.706 579C162.328 580.136 162.382 580.662 162.706 581.5C191.422 579.749 211.346 579.432 240.075 581.5C241.212 580.5 240.075 579 240.075 579Z" fill="#E0E5EC"/>
<path d="M234.662 337H166.413C161.988 426.411 161.275 482.942 162.706 570C192.209 568.152 212.25 568.117 240.075 570C239.936 479.378 238.953 422.909 234.662 337Z" fill="#E0E5EC"/>
<path d="M240.075 585.5H162.706C161.892 698.158 166.234 841.323 170.687 954H233.231C237.572 841.333 241.549 698.166 240.075 585.5Z" fill="#E0E5EC"/>
<path d="M240.075 570C212.25 568.117 192.209 568.152 162.706 570C160.431 572 160.431 578 162.706 579C190.848 576.334 210.926 576.293 240.075 579C242.918 578 242.35 572 240.075 570Z" fill="#E0E5EC" fill-opacity="0.5"/>
<path d="M240.075 581.5C211.346 579.432 191.422 579.749 162.706 581.5C161.366 582.794 161.569 585.5 162.706 585.5H240.075C241.781 585.5 241.212 582 240.075 581.5Z" fill="#E0E5EC" fill-opacity="0.5"/>
</g>
<g filter="url(#filter2_ddi_236_734)">
<path d="M226.596 323.398C207.519 320.245 195.268 320.154 174.439 323.405C172.667 323.681 171.004 324.438 169.683 325.651C164.54 330.374 152.112 342.934 161.279 346.4C170.084 349.729 175.633 338.115 185.442 338.378C194.561 338.622 192.65 346.155 201.769 346.4C211.577 346.662 208.936 338.207 218.748 338.378C228.099 338.541 231.39 348.585 240.299 346.4C250.631 343.865 236.619 330.371 231.186 325.551C229.895 324.406 228.299 323.679 226.596 323.398Z" fill="#E0E5EC"/>
</g>
<g filter="url(#filter3_dd_236_734)">
<path d="M202.878 377.468C198.096 383.636 207.415 625.789 208.951 664.851C209.072 667.922 211.558 670.193 214.631 670.253C217.727 670.314 220.324 667.966 220.529 664.876C228.38 546.195 229.087 385.18 224.374 377.888C219.587 370.482 208.079 370.757 202.878 377.468Z" fill="#E0E5EC"/>
</g>
<g filter="url(#filter4_dd_236_734)">
<path d="M218.175 449.876L211.875 449.918L211.861 447.794L218.161 447.752L218.175 449.876ZM218.202 453.962L211.902 454.004L211.888 451.88L218.188 451.838L218.202 453.962ZM215.867 451.997L214.121 452.009L214.106 449.759L215.852 449.748L215.867 451.997ZM218.145 445.433L211.827 442.721L211.813 440.633L218.095 437.837L218.11 440.033L212.831 442.102L212.826 441.274L218.131 443.273L218.145 445.433ZM217.037 443.802L215.503 443.272L215.484 440.374L217.01 439.824L217.037 443.802ZM218.08 435.518L211.78 435.56L211.76 432.527C211.756 431.939 211.848 431.431 212.038 431.004C212.227 430.571 212.501 430.236 212.859 430C213.211 429.763 213.631 429.643 214.117 429.64C214.603 429.637 215.023 429.751 215.379 429.983C215.735 430.214 216.013 430.546 216.214 430.976C216.408 431.401 216.508 431.907 216.512 432.495L216.524 434.349L215.609 433.41L218.066 433.394L218.08 435.518ZM215.843 433.409L214.886 434.36L214.875 432.641C214.873 432.347 214.805 432.132 214.672 431.995C214.539 431.851 214.359 431.781 214.131 431.782C213.903 431.784 213.723 431.857 213.592 432.002C213.461 432.141 213.397 432.357 213.399 432.651L213.41 434.37L212.441 433.431L215.843 433.409ZM218.015 425.798L213.362 425.829L213.375 427.674L211.728 427.685L211.689 421.871L213.336 421.86L213.348 423.705L218.001 423.674L218.015 425.798ZM217.972 419.298L211.672 419.339L211.658 417.215L217.958 417.174L217.972 419.298ZM218.061 410.912C218.064 411.416 217.989 411.885 217.836 412.318C217.677 412.745 217.451 413.119 217.159 413.438C216.868 413.752 216.521 413.998 216.12 414.174C215.719 414.351 215.276 414.441 214.79 414.444C214.304 414.447 213.859 414.363 213.456 414.192C213.053 414.021 212.704 413.78 212.408 413.47C212.111 413.154 211.884 412.783 211.725 412.358C211.56 411.927 211.476 411.46 211.473 410.956C211.469 410.338 211.573 409.791 211.786 409.316C211.999 408.835 212.308 408.436 212.714 408.122L213.92 409.455C213.687 409.642 213.509 409.851 213.384 410.079C213.254 410.302 213.189 410.555 213.191 410.837C213.193 411.059 213.23 411.259 213.303 411.439C213.376 411.618 213.482 411.774 213.621 411.905C213.76 412.03 213.929 412.128 214.127 412.198C214.32 412.269 214.536 412.304 214.776 412.302C215.016 412.301 215.235 412.263 215.432 412.19C215.624 412.117 215.788 412.016 215.925 411.89C216.062 411.757 216.166 411.6 216.237 411.42C216.308 411.239 216.343 411.038 216.341 410.816C216.339 410.534 216.275 410.282 216.147 410.061C216.014 409.834 215.829 409.628 215.594 409.444L216.782 408.095C217.186 408.404 217.501 408.798 217.726 409.277C217.945 409.749 218.057 410.294 218.061 410.912ZM217.881 405.556L211.581 405.597L211.567 403.474L216.22 403.443L216.201 400.599L217.848 400.588L217.881 405.556ZM217.831 398.021L211.531 398.063L211.498 392.942L213.1 392.931L213.12 395.964L216.216 395.944L216.195 392.794L217.797 392.783L217.831 398.021ZM215.389 396.093L213.859 396.103L213.84 393.296L215.37 393.285L215.389 396.093Z" fill="#E0E5EC"/>
</g>
<circle cx="197" cy="828" r="7" fill="#454545" fill-opacity="0.25"/>
<circle cx="197" cy="828" r="3" fill="#454545" fill-opacity="0.75"/>
</g>
<defs>
<filter id="filter0_ii_236_734" x="174" y="236" width="53.9" height="129" filterUnits="userSpaceOnUse" color-interpolation-filters="sRGB">
<feFlood flood-opacity="0" result="BackgroundImageFix"/>
<feBlend mode="normal" in="SourceGraphic" in2="BackgroundImageFix" result="shape"/>
<feColorMatrix in="SourceAlpha" type="matrix" values="0 0 0 0 0 0 0 0 0 0 0 0 0 0 0 0 0 0 127 0" result="hardAlpha"/>
<feOffset dx="10" dy="8"/>
<feGaussianBlur stdDeviation="4.95"/>
<feComposite in2="hardAlpha" operator="arithmetic" k2="-1" k3="1"/>
<feColorMatrix type="matrix" values="0 0 0 0 0.847059 0 0 0 0 0.431373 0 0 0 0 0.431373 0 0 0 1 0"/>
<feBlend mode="normal" in2="shape" result="effect1_innerShadow_236_734"/>
<feColorMatrix in="SourceAlpha" type="matrix" values="0 0 0 0 0 0 0 0 0 0 0 0 0 0 0 0 0 0 127 0" result="hardAlpha"/>
<feOffset dx="-8" dy="1"/>
<feGaussianBlur stdDeviation="9.05"/>
<feComposite in2="hardAlpha" operator="arithmetic" k2="-1" k3="1"/>
<feColorMatrix type="matrix" values="0 0 0 0 0.537255 0 0 0 0 0.141176 0 0 0 0 0.141176 0 0 0 1 0"/>
<feBlend mode="normal" in2="effect1_innerShadow_236_734" result="effect2_innerShadow_236_734"/>
</filter>
<filter id="filter1_ddi_236_734" x="140" y="319" width="120" height="653" filterUnits="userSpaceOnUse" color-interpolation-filters="sRGB">
<feFlood flood-opacity="0" result="BackgroundImageFix"/>
<feColorMatrix in="SourceAlpha" type="matrix" values="0 0 0 0 0 0 0 0 0 0 0 0 0 0 0 0 0 0 127 0" result="hardAlpha"/>
<feOffset dx="6" dy="6"/>
<feGaussianBlur stdDeviation="6"/>
<feComposite in2="hardAlpha" operator="out"/>
<feColorMatrix type="matrix" values="0 0 0 0 0.639216 0 0 0 0 0.694118 0 0 0 0 0.776471 0 0 0 1 0"/>
<feBlend mode="normal" in2="BackgroundImageFix" result="effect1_dropShadow_236_734"/>
<feColorMatrix in="SourceAlpha" type="matrix" values="0 0 0 0 0 0 0 0 0 0 0 0 0 0 0 0 0 0 127 0" result="hardAlpha"/>
<feOffset dx="-6" dy="-6"/>
<feGaussianBlur stdDeviation="6"/>
<feComposite in2="hardAlpha" operator="out"/>
<feColorMatrix type="matrix" values="0 0 0 0 1 0 0 0 0 1 0 0 0 0 1 0 0 0 1 0"/>
<feBlend mode="normal" in2="effect1_dropShadow_236_734" result="effect2_dropShadow_236_734"/>
<feBlend mode="normal" in="SourceGraphic" in2="effect2_dropShadow_236_734" result="shape"/>
<feColorMatrix in="SourceAlpha" type="matrix" values="0 0 0 0 0 0 0 0 0 0 0 0 0 0 0 0 0 0 127 0" result="hardAlpha"/>
<feOffset dx="-21" dy="-4"/>
<feGaussianBlur stdDeviation="13.85"/>
<feComposite in2="hardAlpha" operator="arithmetic" k2="-1" k3="1"/>
<feColorMatrix type="matrix" values="0 0 0 0 0.639216 0 0 0 0 0.694118 0 0 0 0 0.776471 0 0 0 1 0"/>
<feBlend mode="normal" in2="shape" result="effect3_innerShadow_236_734"/>
</filter>
<filter id="filter2_ddi_236_734" x="148.2" y="312" width="104.8" height="44" filterUnits="userSpaceOnUse" color-interpolation-filters="sRGB">
<feFlood flood-opacity="0" result="BackgroundImageFix"/>
<feColorMatrix in="SourceAlpha" type="matrix" values="0 0 0 0 0 0 0 0 0 0 0 0 0 0 0 0 0 0 127 0" result="hardAlpha"/>
<feOffset dx="3" dy="3"/>
<feGaussianBlur stdDeviation="3"/>
<feComposite in2="hardAlpha" operator="out"/>
<feColorMatrix type="matrix" values="0 0 0 0 0.639216 0 0 0 0 0.694118 0 0 0 0 0.776471 0 0 0 1 0"/>
<feBlend mode="normal" in2="BackgroundImageFix" result="effect1_dropShadow_236_734"/>
<feColorMatrix in="SourceAlpha" type="matrix" values="0 0 0 0 0 0 0 0 0 0 0 0 0 0 0 0 0 0 127 0" result="hardAlpha"/>
<feOffset dx="-3" dy="-3"/>
<feGaussianBlur stdDeviation="3"/>
<feComposite in2="hardAlpha" operator="out"/>
<feColorMatrix type="matrix" values="0 0 0 0 1 0 0 0 0 1 0 0 0 0 1 0 0 0 1 0"/>
<feBlend mode="normal" in2="effect1_dropShadow_236_734" result="effect2_dropShadow_236_734"/>
<feBlend mode="normal" in="SourceGraphic" in2="effect2_dropShadow_236_734" result="shape"/>
<feColorMatrix in="SourceAlpha" type="matrix" values="0 0 0 0 0 0 0 0 0 0 0 0 0 0 0 0 0 0 127 0" result="hardAlpha"/>
<feOffset dx="-13"/>
<feGaussianBlur stdDeviation="4.9"/>
<feComposite in2="hardAlpha" operator="arithmetic" k2="-1" k3="1"/>
<feColorMatrix type="matrix" values="0 0 0 0 0.639216 0 0 0 0 0.694118 0 0 0 0 0.776471 0 0 0 1 0"/>
<feBlend mode="normal" in2="shape" result="effect3_innerShadow_236_734"/>
</filter>
<filter id="filter3_dd_236_734" x="192.526" y="363.384" width="43.7931" height="315.87" filterUnits="userSpaceOnUse" color-interpolation-filters="sRGB">
<feFlood flood-opacity="0" result="BackgroundImageFix"/>
<feColorMatrix in="SourceAlpha" type="matrix" values="0 0 0 0 0 0 0 0 0 0 0 0 0 0 0 0 0 0 127 0" result="hardAlpha"/>
<feOffset dx="3" dy="3"/>
<feGaussianBlur stdDeviation="3"/>
<feComposite in2="hardAlpha" operator="out"/>
<feColorMatrix type="matrix" values="0 0 0 0 0.639216 0 0 0 0 0.694118 0 0 0 0 0.776471 0 0 0 1 0"/>
<feBlend mode="normal" in2="BackgroundImageFix" result="effect1_dropShadow_236_734"/>
<feColorMatrix in="SourceAlpha" type="matrix" values="0 0 0 0 0 0 0 0 0 0 0 0 0 0 0 0 0 0 127 0" result="hardAlpha"/>
<feOffset dx="-3" dy="-3"/>
<feGaussianBlur stdDeviation="3"/>
<feComposite in2="hardAlpha" operator="out"/>
<feColorMatrix type="matrix" values="0 0 0 0 1 0 0 0 0 1 0 0 0 0 1 0 0 0 1 0"/>
<feBlend mode="normal" in2="effect1_dropShadow_236_734" result="effect2_dropShadow_236_734"/>
<feBlend mode="normal" in="SourceGraphic" in2="effect2_dropShadow_236_734" result="shape"/>
</filter>
<filter id="filter4_dd_236_734" x="207.353" y="388.782" width="14.993" height="69.2224" filterUnits="userSpaceOnUse" color-interpolation-filters="sRGB">
<feFlood flood-opacity="0" result="BackgroundImageFix"/>
<feColorMatrix in="SourceAlpha" type="matrix" values="0 0 0 0 0 0 0 0 0 0 0 0 0 0 0 0 0 0 127 0" result="hardAlpha"/>
<feOffset dx="1" dy="1"/>
<feGaussianBlur stdDeviation="1.5"/>
<feComposite in2="hardAlpha" operator="out"/>
<feColorMatrix type="matrix" values="0 0 0 0 0.639216 0 0 0 0 0.694118 0 0 0 0 0.776471 0 0 0 1 0"/>
<feBlend mode="normal" in2="BackgroundImageFix" result="effect1_dropShadow_236_734"/>
<feColorMatrix in="SourceAlpha" type="matrix" values="0 0 0 0 0 0 0 0 0 0 0 0 0 0 0 0 0 0 127 0" result="hardAlpha"/>
<feOffset dx="-1" dy="-1"/>
<feGaussianBlur stdDeviation="1.5"/>
<feComposite in2="hardAlpha" operator="out"/>
<feColorMatrix type="matrix" values="0 0 0 0 1 0 0 0 0 1 0 0 0 0 1 0 0 0 1 0"/>
<feBlend mode="normal" in2="effect1_dropShadow_236_734" result="effect2_dropShadow_236_734"/>
<feBlend mode="normal" in="SourceGraphic" in2="effect2_dropShadow_236_734" result="shape"/>
</filter>
<clipPath id="clip0_236_734">
<rect width="402" height="874" fill="white"/>
</clipPath>
</defs>
</svg>
