<svg width="402" height="874" viewBox="0 0 402 874" fill="none" xmlns="http://www.w3.org/2000/svg">
<g clip-path="url(#clip0_261_715)">
<rect width="402" height="874" fill="#454545"/>
<g filter="url(#filter0_ii_261_715)">
<path d="M214.946 237.658C208.333 235.503 193.489 235.449 186.012 237.495C183.197 238.266 182 241.067 182 243.985V345C182 351.627 187.373 357 194 357H206C212.627 357 218 351.627 218 345V243.06C218 240.71 217.181 238.386 214.946 237.658Z" fill="#C73535"/>
</g>
<g filter="url(#filter1_ddi_261_715)">
<path d="M240.075 579C210.926 576.293 190.848 576.334 162.706 579C162.328 580.136 162.382 580.662 162.706 581.5C191.422 579.749 211.346 579.432 240.075 581.5C241.212 580.5 240.075 579 240.075 579Z" fill="#454545"/>
<path d="M234.662 337H166.413C161.988 426.411 161.275 482.942 162.706 570C192.209 568.152 212.25 568.117 240.075 570C239.936 479.378 238.953 422.909 234.662 337Z" fill="#454545"/>
<path d="M240.075 585.5H162.706C161.892 698.158 166.234 841.323 170.687 954H233.231C237.572 841.333 241.549 698.166 240.075 585.5Z" fill="#454545"/>
<path d="M240.075 570C212.25 568.117 192.209 568.152 162.706 570C160.431 572 160.431 578 162.706 579C190.848 576.334 210.926 576.293 240.075 579C242.918 578 242.35 572 240.075 570Z" fill="black" fill-opacity="0.5"/>
<path d="M240.075 581.5C211.346 579.432 191.422 579.749 162.706 581.5C161.366 582.794 161.569 585.5 162.706 585.5H240.075C241.781 585.5 241.212 582 240.075 581.5Z" fill="black" fill-opacity="0.5"/>
</g>
<g filter="url(#filter2_ddi_261_715)">
<path d="M226.596 323.398C207.519 320.245 195.268 320.154 174.439 323.405C172.667 323.681 171.004 324.438 169.683 325.651C164.54 330.374 152.112 342.934 161.279 346.4C170.084 349.729 175.633 338.115 185.442 338.378C194.561 338.622 192.65 346.155 201.769 346.4C211.577 346.662 208.936 338.207 218.748 338.378C228.099 338.541 231.39 348.585 240.299 346.4C250.631 343.865 236.619 330.371 231.186 325.551C229.895 324.406 228.299 323.679 226.596 323.398Z" fill="#454545"/>
</g>
<g filter="url(#filter3_dd_261_715)">
<path d="M202.878 377.468C198.096 383.636 207.415 625.789 208.951 664.851C209.072 667.922 211.558 670.193 214.631 670.253C217.727 670.314 220.324 667.966 220.529 664.876C228.38 546.195 229.087 385.18 224.374 377.888C219.587 370.482 208.079 370.757 202.878 377.468Z" fill="#454545"/>
</g>
<g filter="url(#filter4_dd_261_715)">
<path d="M211.875 449.993L211.861 447.869L218.161 447.827L218.175 449.951L215.853 449.966L215.866 451.928L218.188 451.913L218.202 454.037L211.902 454.078L211.888 451.955L214.12 451.94L214.107 449.978L211.875 449.993ZM218.11 440.108L217.015 440.538L217.031 442.932L218.132 443.348L218.146 445.508L211.828 442.795L211.814 440.707L218.096 437.912L218.11 440.108ZM215.497 442.357L215.489 441.133L213.909 441.756L215.497 442.357ZM211.76 432.602C211.749 430.847 212.659 429.725 214.117 429.715C215.575 429.705 216.5 430.815 216.512 432.57L216.518 433.479L218.066 433.469L218.08 435.593L211.78 435.634L211.76 432.602ZM214.875 432.716C214.871 432.131 214.59 431.854 214.131 431.857C213.672 431.86 213.395 432.141 213.399 432.726L213.404 433.5L214.88 433.49L214.875 432.716ZM218.015 425.785L213.362 425.816L213.375 427.661L211.728 427.672L211.689 421.858L213.336 421.847L213.348 423.692L218.001 423.661L218.015 425.785ZM217.972 419.284L211.672 419.326L211.658 417.202L217.958 417.161L217.972 419.284ZM218.061 410.899C218.074 412.924 216.725 414.418 214.79 414.431C212.855 414.444 211.486 412.968 211.473 410.943C211.465 409.71 211.908 408.735 212.714 408.109L213.92 409.442C213.454 409.814 213.187 410.256 213.191 410.823C213.197 411.705 213.813 412.295 214.776 412.289C215.739 412.283 216.347 411.685 216.341 410.803C216.337 410.236 216.064 409.796 215.594 409.431L216.782 408.082C217.596 408.697 218.052 409.666 218.061 410.899ZM217.881 405.481L211.581 405.523L211.567 403.399L216.22 403.368L216.201 400.524L217.848 400.513L217.881 405.481ZM216.215 395.869L216.194 392.719L217.796 392.709L217.831 397.947L211.531 397.988L211.497 392.867L213.099 392.857L213.119 395.89L213.857 395.885L213.839 393.221L215.369 393.211L215.387 395.875L216.215 395.869Z" fill="#454545"/>
</g>
<circle cx="197" cy="828" r="7" fill="#A3B1C6" fill-opacity="0.25"/>
<circle cx="197" cy="828" r="3" fill="#A3B1C6" fill-opacity="0.75"/>
</g>
<defs>
<filter id="filter0_ii_261_715" x="174" y="236" width="53.9" height="129" filterUnits="userSpaceOnUse" color-interpolation-filters="sRGB">
<feFlood flood-opacity="0" result="BackgroundImageFix"/>
<feBlend mode="normal" in="SourceGraphic" in2="BackgroundImageFix" result="shape"/>
<feColorMatrix in="SourceAlpha" type="matrix" values="0 0 0 0 0 0 0 0 0 0 0 0 0 0 0 0 0 0 127 0" result="hardAlpha"/>
<feOffset dx="10" dy="8"/>
<feGaussianBlur stdDeviation="4.95"/>
<feComposite in2="hardAlpha" operator="arithmetic" k2="-1" k3="1"/>
<feColorMatrix type="matrix" values="0 0 0 0 0.847059 0 0 0 0 0.431373 0 0 0 0 0.431373 0 0 0 1 0"/>
<feBlend mode="normal" in2="shape" result="effect1_innerShadow_261_715"/>
<feColorMatrix in="SourceAlpha" type="matrix" values="0 0 0 0 0 0 0 0 0 0 0 0 0 0 0 0 0 0 127 0" result="hardAlpha"/>
<feOffset dx="-8" dy="1"/>
<feGaussianBlur stdDeviation="9.05"/>
<feComposite in2="hardAlpha" operator="arithmetic" k2="-1" k3="1"/>
<feColorMatrix type="matrix" values="0 0 0 0 0.537255 0 0 0 0 0.141176 0 0 0 0 0.141176 0 0 0 1 0"/>
<feBlend mode="normal" in2="effect1_innerShadow_261_715" result="effect2_innerShadow_261_715"/>
</filter>
<filter id="filter1_ddi_261_715" x="140" y="319" width="120" height="653" filterUnits="userSpaceOnUse" color-interpolation-filters="sRGB">
<feFlood flood-opacity="0" result="BackgroundImageFix"/>
<feColorMatrix in="SourceAlpha" type="matrix" values="0 0 0 0 0 0 0 0 0 0 0 0 0 0 0 0 0 0 127 0" result="hardAlpha"/>
<feOffset dx="-6" dy="-6"/>
<feGaussianBlur stdDeviation="6"/>
<feComposite in2="hardAlpha" operator="out"/>
<feColorMatrix type="matrix" values="0 0 0 0 0.85098 0 0 0 0 0.85098 0 0 0 0 0.85098 0 0 0 0.25 0"/>
<feBlend mode="normal" in2="BackgroundImageFix" result="effect1_dropShadow_261_715"/>
<feColorMatrix in="SourceAlpha" type="matrix" values="0 0 0 0 0 0 0 0 0 0 0 0 0 0 0 0 0 0 127 0" result="hardAlpha"/>
<feOffset dx="6" dy="6"/>
<feGaussianBlur stdDeviation="6"/>
<feComposite in2="hardAlpha" operator="out"/>
<feColorMatrix type="matrix" values="0 0 0 0 0 0 0 0 0 0 0 0 0 0 0 0 0 0 0.75 0"/>
<feBlend mode="normal" in2="effect1_dropShadow_261_715" result="effect2_dropShadow_261_715"/>
<feBlend mode="normal" in="SourceGraphic" in2="effect2_dropShadow_261_715" result="shape"/>
<feColorMatrix in="SourceAlpha" type="matrix" values="0 0 0 0 0 0 0 0 0 0 0 0 0 0 0 0 0 0 127 0" result="hardAlpha"/>
<feOffset dx="-21" dy="-4"/>
<feGaussianBlur stdDeviation="13.85"/>
<feComposite in2="hardAlpha" operator="arithmetic" k2="-1" k3="1"/>
<feColorMatrix type="matrix" values="0 0 0 0 0 0 0 0 0 0 0 0 0 0 0 0 0 0 0.5 0"/>
<feBlend mode="normal" in2="shape" result="effect3_innerShadow_261_715"/>
</filter>
<filter id="filter2_ddi_261_715" x="148.2" y="312" width="104.8" height="44" filterUnits="userSpaceOnUse" color-interpolation-filters="sRGB">
<feFlood flood-opacity="0" result="BackgroundImageFix"/>
<feColorMatrix in="SourceAlpha" type="matrix" values="0 0 0 0 0 0 0 0 0 0 0 0 0 0 0 0 0 0 127 0" result="hardAlpha"/>
<feOffset dx="3" dy="3"/>
<feGaussianBlur stdDeviation="3"/>
<feComposite in2="hardAlpha" operator="out"/>
<feColorMatrix type="matrix" values="0 0 0 0 0 0 0 0 0 0 0 0 0 0 0 0 0 0 0.75 0"/>
<feBlend mode="normal" in2="BackgroundImageFix" result="effect1_dropShadow_261_715"/>
<feColorMatrix in="SourceAlpha" type="matrix" values="0 0 0 0 0 0 0 0 0 0 0 0 0 0 0 0 0 0 127 0" result="hardAlpha"/>
<feOffset dx="-3" dy="-3"/>
<feGaussianBlur stdDeviation="3"/>
<feComposite in2="hardAlpha" operator="out"/>
<feColorMatrix type="matrix" values="0 0 0 0 0.85098 0 0 0 0 0.85098 0 0 0 0 0.85098 0 0 0 0.25 0"/>
<feBlend mode="normal" in2="effect1_dropShadow_261_715" result="effect2_dropShadow_261_715"/>
<feBlend mode="normal" in="SourceGraphic" in2="effect2_dropShadow_261_715" result="shape"/>
<feColorMatrix in="SourceAlpha" type="matrix" values="0 0 0 0 0 0 0 0 0 0 0 0 0 0 0 0 0 0 127 0" result="hardAlpha"/>
<feOffset dx="-13"/>
<feGaussianBlur stdDeviation="4.9"/>
<feComposite in2="hardAlpha" operator="arithmetic" k2="-1" k3="1"/>
<feColorMatrix type="matrix" values="0 0 0 0 0 0 0 0 0 0 0 0 0 0 0 0 0 0 0.5 0"/>
<feBlend mode="normal" in2="shape" result="effect3_innerShadow_261_715"/>
</filter>
<filter id="filter3_dd_261_715" x="192.526" y="363.384" width="43.7931" height="315.87" filterUnits="userSpaceOnUse" color-interpolation-filters="sRGB">
<feFlood flood-opacity="0" result="BackgroundImageFix"/>
<feColorMatrix in="SourceAlpha" type="matrix" values="0 0 0 0 0 0 0 0 0 0 0 0 0 0 0 0 0 0 127 0" result="hardAlpha"/>
<feOffset dx="3" dy="3"/>
<feGaussianBlur stdDeviation="3"/>
<feComposite in2="hardAlpha" operator="out"/>
<feColorMatrix type="matrix" values="0 0 0 0 0 0 0 0 0 0 0 0 0 0 0 0 0 0 1 0"/>
<feBlend mode="normal" in2="BackgroundImageFix" result="effect1_dropShadow_261_715"/>
<feColorMatrix in="SourceAlpha" type="matrix" values="0 0 0 0 0 0 0 0 0 0 0 0 0 0 0 0 0 0 127 0" result="hardAlpha"/>
<feOffset dx="-3" dy="-3"/>
<feGaussianBlur stdDeviation="3"/>
<feComposite in2="hardAlpha" operator="out"/>
<feColorMatrix type="matrix" values="0 0 0 0 0.85098 0 0 0 0 0.85098 0 0 0 0 0.85098 0 0 0 0.25 0"/>
<feBlend mode="normal" in2="effect1_dropShadow_261_715" result="effect2_dropShadow_261_715"/>
<feBlend mode="normal" in="SourceGraphic" in2="effect2_dropShadow_261_715" result="shape"/>
</filter>
<filter id="filter4_dd_261_715" x="207.352" y="388.708" width="14.994" height="69.3718" filterUnits="userSpaceOnUse" color-interpolation-filters="sRGB">
<feFlood flood-opacity="0" result="BackgroundImageFix"/>
<feColorMatrix in="SourceAlpha" type="matrix" values="0 0 0 0 0 0 0 0 0 0 0 0 0 0 0 0 0 0 127 0" result="hardAlpha"/>
<feOffset dx="1" dy="1"/>
<feGaussianBlur stdDeviation="1.5"/>
<feComposite in2="hardAlpha" operator="out"/>
<feColorMatrix type="matrix" values="0 0 0 0 0 0 0 0 0 0 0 0 0 0 0 0 0 0 1 0"/>
<feBlend mode="normal" in2="BackgroundImageFix" result="effect1_dropShadow_261_715"/>
<feColorMatrix in="SourceAlpha" type="matrix" values="0 0 0 0 0 0 0 0 0 0 0 0 0 0 0 0 0 0 127 0" result="hardAlpha"/>
<feOffset dx="-1" dy="-1"/>
<feGaussianBlur stdDeviation="1.5"/>
<feComposite in2="hardAlpha" operator="out"/>
<feColorMatrix type="matrix" values="0 0 0 0 0.85098 0 0 0 0 0.85098 0 0 0 0 0.85098 0 0 0 0.25 0"/>
<feBlend mode="normal" in2="effect1_dropShadow_261_715" result="effect2_dropShadow_261_715"/>
<feBlend mode="normal" in="SourceGraphic" in2="effect2_dropShadow_261_715" result="shape"/>
</filter>
<clipPath id="clip0_261_715">
<rect width="402" height="874" fill="white"/>
</clipPath>
</defs>
</svg>
