<svg width="402" height="874" viewBox="0 0 402 874" fill="none" xmlns="http://www.w3.org/2000/svg">
<rect width="402" height="874" fill="#E0E5EC"/>
<path d="M61.2666 26.4731C61.9085 26.4731 62.5173 26.5921 63.0928 26.8301C63.6683 27.0625 64.1774 27.4277 64.6201 27.9258C65.0684 28.4183 65.4198 29.0519 65.6743 29.8267C65.9289 30.5959 66.0562 31.5228 66.0562 32.6074V32.624C66.0562 33.9688 65.8625 35.1198 65.4751 36.0771C65.0877 37.0345 64.5316 37.7705 63.8066 38.2852C63.0872 38.7943 62.2267 39.0488 61.2251 39.0488C60.4891 39.0488 59.825 38.916 59.2329 38.6504C58.6463 38.3792 58.1593 38.0085 57.772 37.5381C57.3901 37.0622 57.1328 36.5199 57 35.9111L56.9834 35.8198H59.0835L59.1167 35.9028C59.2218 36.1795 59.3713 36.423 59.5649 36.6333C59.7642 36.8436 60.0021 37.0068 60.2788 37.123C60.561 37.2337 60.8765 37.2891 61.2251 37.2891C61.856 37.2891 62.3706 37.1037 62.769 36.7329C63.173 36.3566 63.4746 35.8558 63.6738 35.2305C63.8786 34.5996 63.9948 33.9023 64.0225 33.1387C64.028 33.0557 64.0308 32.9754 64.0308 32.8979C64.0308 32.8149 64.0308 32.7347 64.0308 32.6572L63.6572 30.6567C63.6572 30.203 63.5521 29.7907 63.3418 29.4199C63.1315 29.0492 62.8465 28.7559 62.4868 28.54C62.1326 28.3242 61.7314 28.2163 61.2832 28.2163C60.8516 28.2163 60.4559 28.3215 60.0962 28.5317C59.7365 28.742 59.4487 29.0298 59.2329 29.395C59.0171 29.7547 58.9092 30.1587 58.9092 30.6069V30.6235C58.9092 31.0884 59.0116 31.5007 59.2163 31.8604C59.4211 32.2145 59.7005 32.494 60.0547 32.6987C60.4089 32.9035 60.8128 33.0059 61.2666 33.0059C61.7204 33.0059 62.1271 32.9062 62.4868 32.707C62.8465 32.5078 63.1315 32.2311 63.3418 31.877C63.5521 31.5228 63.6572 31.1216 63.6572 30.6733V30.6567H64.1553V32.8647H63.8647C63.7209 33.1802 63.5078 33.4735 63.2256 33.7446C62.9434 34.0158 62.5947 34.2344 62.1797 34.4004C61.7702 34.5664 61.2887 34.6494 60.7354 34.6494C59.9717 34.6494 59.2965 34.4779 58.71 34.1348C58.1234 33.7917 57.6613 33.3213 57.3237 32.7236C56.9917 32.126 56.8257 31.4508 56.8257 30.6982V30.6816C56.8257 29.8682 57.0138 29.146 57.3901 28.5151C57.772 27.8787 58.2977 27.3807 58.9673 27.021C59.6424 26.6558 60.4089 26.4731 61.2666 26.4731ZM69.8247 37.1396C69.4484 37.1396 69.133 37.0151 68.8784 36.7661C68.6294 36.5116 68.5049 36.2017 68.5049 35.8364C68.5049 35.4657 68.6294 35.1558 68.8784 34.9067C69.133 34.6522 69.4484 34.5249 69.8247 34.5249C70.2065 34.5249 70.522 34.6522 70.771 34.9067C71.02 35.1558 71.1445 35.4657 71.1445 35.8364C71.1445 36.2017 71.02 36.5116 70.771 36.7661C70.522 37.0151 70.2065 37.1396 69.8247 37.1396ZM69.8247 30.9805C69.4484 30.9805 69.133 30.856 68.8784 30.6069C68.6294 30.3524 68.5049 30.0425 68.5049 29.6772C68.5049 29.3065 68.6294 28.9966 68.8784 28.7476C69.133 28.493 69.4484 28.3657 69.8247 28.3657C70.2065 28.3657 70.522 28.493 70.771 28.7476C71.02 28.9966 71.1445 29.3065 71.1445 29.6772C71.1445 30.0425 71.02 30.3524 70.771 30.6069C70.522 30.856 70.2065 30.9805 69.8247 30.9805ZM79.4038 38.75V36.4507H73.5435V34.6992C73.8589 34.1624 74.1743 33.6229 74.4897 33.0806C74.8107 32.5382 75.1344 31.9987 75.4609 31.4619C75.793 30.9196 76.1222 30.3856 76.4487 29.8599C76.7808 29.3286 77.11 28.8057 77.4365 28.291C77.7686 27.7708 78.1006 27.2645 78.4326 26.772H81.4458V34.6826H83.0645V36.4507H81.4458V38.75H79.4038ZM75.5356 34.7324H79.437V28.4819H79.3125C79.069 28.8582 78.8172 29.2456 78.5571 29.644C78.3026 30.0425 78.0452 30.4492 77.7852 30.8643C77.5251 31.2793 77.2677 31.6971 77.0132 32.1177C76.7586 32.5327 76.5068 32.9505 76.2578 33.3711C76.0088 33.7861 75.7681 34.1984 75.5356 34.6079V34.7324ZM88.02 38.75V28.8804H87.8706L84.8906 30.9805V28.9717L88.02 26.772H90.1533V38.75H88.02Z" fill="black"/>
<path fill-rule="evenodd" clip-rule="evenodd" d="M307.865 27.5329C307.865 26.8999 307.388 26.3867 306.798 26.3867H305.732C305.143 26.3867 304.665 26.8999 304.665 27.5329V37.4669C304.665 38.0999 305.143 38.6131 305.732 38.6131H306.798C307.388 38.6131 307.865 38.0999 307.865 37.4669V27.5329ZM300.431 28.832H301.498C302.087 28.832 302.564 29.3575 302.564 30.0057V37.4394C302.564 38.0876 302.087 38.6131 301.498 38.6131H300.431C299.842 38.6131 299.364 38.0876 299.364 37.4394V30.0057C299.364 29.3575 299.842 28.832 300.431 28.832ZM296.099 31.481H295.033C294.444 31.481 293.966 32.0132 293.966 32.6697V37.4244C293.966 38.0809 294.444 38.6131 295.033 38.6131H296.099C296.688 38.6131 297.166 38.0809 297.166 37.4244V32.6697C297.166 32.0132 296.688 31.481 296.099 31.481ZM290.798 33.9263H289.732C289.143 33.9263 288.665 34.4509 288.665 35.098V37.4414C288.665 38.0885 289.143 38.6131 289.732 38.6131H290.798C291.388 38.6131 291.865 38.0885 291.865 37.4414V35.098C291.865 34.4509 291.388 33.9263 290.798 33.9263Z" fill="black"/>
<path fill-rule="evenodd" clip-rule="evenodd" d="M323.436 28.8022C325.924 28.8023 328.316 29.7244 330.118 31.3779C330.254 31.5055 330.471 31.5039 330.604 31.3743L331.902 30.1108C331.97 30.045 332.007 29.956 332.007 29.8633C332.006 29.7706 331.967 29.682 331.899 29.617C327.168 25.2423 319.704 25.2423 314.973 29.617C314.905 29.6819 314.866 29.7705 314.865 29.8632C314.865 29.9559 314.902 30.045 314.97 30.1108L316.268 31.3743C316.401 31.5041 316.618 31.5057 316.754 31.3779C318.557 29.7243 320.949 28.8022 323.436 28.8022ZM323.433 33.0225C324.79 33.0224 326.099 33.5342 327.105 34.4583C327.241 34.5894 327.456 34.5866 327.589 34.4519L328.876 33.1326C328.944 33.0634 328.981 32.9695 328.98 32.8719C328.979 32.7744 328.94 32.6813 328.871 32.6135C325.807 29.7227 321.062 29.7227 317.998 32.6135C317.929 32.6813 317.889 32.7744 317.889 32.872C317.888 32.9696 317.925 33.0635 317.993 33.1326L319.28 34.4519C319.413 34.5866 319.627 34.5894 319.763 34.4583C320.769 33.5348 322.077 33.0231 323.433 33.0225ZM325.958 35.816C325.959 35.9214 325.922 36.023 325.855 36.0968L323.678 38.5515C323.615 38.6236 323.528 38.6642 323.437 38.6642C323.346 38.6642 323.259 38.6236 323.195 38.5515L321.018 36.0968C320.951 36.0229 320.914 35.9213 320.916 35.816C320.918 35.7106 320.959 35.6108 321.029 35.5402C322.419 34.2263 324.455 34.2263 325.845 35.5402C325.915 35.6109 325.956 35.7107 325.958 35.816Z" fill="black"/>
<rect opacity="0.35" x="339.507" y="26.5" width="24" height="12" rx="3.8" stroke="black"/>
<path opacity="0.4" d="M365.007 30.5V34.5755C365.812 34.2303 366.335 33.4273 366.335 32.5377C366.335 31.6481 365.812 30.8452 365.007 30.5Z" fill="black"/>
<rect x="341.007" y="28" width="21" height="9" rx="2.5" fill="black"/>
<g filter="url(#filter0_dd_49_661)">
<rect x="40" y="134" width="322" height="268" rx="20" fill="#E0E5EC"/>
</g>
<g filter="url(#filter1_dd_49_661)">
<circle cx="67" cy="161" r="6" fill="#E0E5EC"/>
</g>
<g filter="url(#filter2_dd_49_661)">
<circle cx="67" cy="375" r="6" fill="#E0E5EC"/>
</g>
<g filter="url(#filter3_dd_49_661)">
<circle cx="334" cy="161" r="6" fill="#E0E5EC"/>
</g>
<g filter="url(#filter4_dd_49_661)">
<circle cx="334" cy="375" r="6" fill="#E0E5EC"/>
</g>
<g filter="url(#filter5_ii_49_661)">
<rect x="73" y="231" width="255" height="12" fill="#E0E5EC"/>
</g>
<g filter="url(#filter6_dd_49_661)">
<path d="M73 231C73 225.477 77.4772 221 83 221H318C323.523 221 328 225.477 328 231H73Z" fill="#E0E5EC"/>
</g>
<g clip-path="url(#clip0_49_661)">
<path d="M140.979 781C137.024 766.938 127.676 756.95 116.697 756.543L116 756.53L116 452.47C127.279 452.47 136.94 442.359 140.979 428H175.951C179.948 442.49 189.657 452.716 201 452.716C212.343 452.716 222.052 442.49 226.049 428H261.021C265.06 442.359 274.721 452.47 286 452.47V756.53C274.721 756.53 265.06 766.641 261.021 781H225.911C221.831 766.772 212.214 756.777 201 756.777C189.786 756.777 180.169 766.772 176.089 781H140.979Z" fill="#C73535"/>
<g filter="url(#filter7_dd_49_661)">
<path d="M277 474L272.091 474.63L274 479.196L271 475.26L268 479.196L269.909 474.63L265 474L269.909 473.37L268 468.804L271 472.74L274 468.804L272.091 473.37L277 474Z" fill="#C73535"/>
<path d="M277 526L272.091 526.63L274 531.196L271 527.26L268 531.196L269.909 526.63L265 526L269.909 525.37L268 520.804L271 524.74L274 520.804L272.091 525.37L277 526Z" fill="#C73535"/>
<path d="M267 577.38H274V579.36H267V577.38ZM267 572.7H274V574.68H267V572.7ZM269.73 574.54H271.37V577.52H269.73V574.54ZM267 581.717L274 584.807V586.757L267 589.857V587.797L273.03 585.377V586.157L267 583.737V581.717ZM268.36 583.407L269.82 583.917V587.337L268.36 587.847V583.407ZM267 592.218H274V595.418C274 596.058 273.897 596.608 273.69 597.068C273.483 597.535 273.183 597.895 272.79 598.148C272.403 598.401 271.943 598.528 271.41 598.528C270.883 598.528 270.427 598.401 270.04 598.148C269.653 597.895 269.353 597.535 269.14 597.068C268.933 596.608 268.83 596.058 268.83 595.418V593.318L269.69 594.198H267V592.218ZM269.48 594.198L270.39 593.318V595.298C270.39 595.711 270.48 596.018 270.66 596.218C270.84 596.425 271.09 596.528 271.41 596.528C271.737 596.528 271.99 596.425 272.17 596.218C272.35 596.018 272.44 595.711 272.44 595.298V593.318L273.35 594.198H269.48ZM267 602.51H272.43V600.36H274V606.63H272.43V604.49H267V602.51ZM267 609.168H274V611.148H267V609.168ZM266.86 617.846C266.86 617.293 266.947 616.78 267.12 616.306C267.3 615.84 267.553 615.433 267.88 615.086C268.207 614.746 268.59 614.48 269.03 614.286C269.477 614.093 269.967 613.996 270.5 613.996C271.033 613.996 271.52 614.093 271.96 614.286C272.407 614.48 272.793 614.746 273.12 615.086C273.447 615.433 273.697 615.84 273.87 616.306C274.05 616.78 274.14 617.293 274.14 617.846C274.14 618.493 274.027 619.07 273.8 619.576C273.573 620.09 273.247 620.516 272.82 620.856L271.68 619.596C271.947 619.37 272.15 619.12 272.29 618.846C272.43 618.58 272.5 618.28 272.5 617.946C272.5 617.66 272.453 617.396 272.36 617.156C272.267 616.916 272.13 616.71 271.95 616.536C271.777 616.37 271.567 616.236 271.32 616.136C271.073 616.043 270.8 615.996 270.5 615.996C270.2 615.996 269.927 616.043 269.68 616.136C269.433 616.236 269.22 616.37 269.04 616.536C268.867 616.71 268.733 616.916 268.64 617.156C268.547 617.396 268.5 617.66 268.5 617.946C268.5 618.28 268.57 618.58 268.71 618.846C268.85 619.12 269.053 619.37 269.32 619.596L268.18 620.856C267.76 620.516 267.433 620.09 267.2 619.576C266.973 619.07 266.86 618.493 266.86 617.846ZM267 623.461H274V625.441H268.57V628.781H267V623.461ZM267 631.364H274V636.854H272.47V633.324H268.53V636.984H267V631.364ZM269.81 633.184H271.29V636.434H269.81V633.184Z" fill="#C73535"/>
<path d="M277 684L272.091 684.63L274 689.196L271 685.26L268 689.196L269.909 684.63L265 684L269.909 683.37L268 678.804L271 682.74L274 678.804L272.091 683.37L277 684Z" fill="#C73535"/>
<path d="M277 736L272.091 736.63L274 741.196L271 737.26L268 741.196L269.909 736.63L265 736L269.909 735.37L268 730.804L271 734.74L274 730.804L272.091 735.37L277 736Z" fill="#C73535"/>
</g>
<g filter="url(#filter8_dd_49_661)">
<path d="M137 474L132.091 474.63L134 479.196L131 475.26L128 479.196L129.909 474.63L125 474L129.909 473.37L128 468.804L131 472.74L134 468.804L132.091 473.37L137 474Z" fill="#C73535"/>
<path d="M137 537L132.091 537.63L134 542.196L131 538.26L128 542.196L129.909 537.63L125 537L129.909 536.37L128 531.804L131 535.74L134 531.804L132.091 536.37L137 537Z" fill="#C73535"/>
<path d="M126.88 597.39C126.88 596.817 127.02 596.303 127.3 595.85C127.587 595.397 128 595.04 128.54 594.78C129.08 594.52 129.733 594.39 130.5 594.39C131.267 594.39 131.92 594.52 132.46 594.78C133 595.04 133.41 595.397 133.69 595.85C133.977 596.303 134.12 596.817 134.12 597.39C134.12 597.97 133.977 598.483 133.69 598.93C133.41 599.383 133 599.74 132.46 600C131.92 600.26 131.267 600.39 130.5 600.39C129.733 600.39 129.08 600.26 128.54 600C128 599.74 127.587 599.383 127.3 598.93C127.02 598.483 126.88 597.97 126.88 597.39ZM128.25 597.39C128.25 597.663 128.327 597.9 128.48 598.1C128.633 598.307 128.877 598.467 129.21 598.58C129.543 598.7 129.973 598.76 130.5 598.76C131.027 598.76 131.457 598.7 131.79 598.58C132.123 598.467 132.367 598.307 132.52 598.1C132.673 597.9 132.75 597.663 132.75 597.39C132.75 597.123 132.673 596.887 132.52 596.68C132.367 596.48 132.123 596.32 131.79 596.2C131.457 596.087 131.027 596.03 130.5 596.03C129.973 596.03 129.543 596.087 129.21 596.2C128.877 596.32 128.633 596.48 128.48 596.68C128.327 596.887 128.25 597.123 128.25 597.39ZM126.88 605.977C126.88 605.404 127.02 604.89 127.3 604.437C127.587 603.984 128 603.627 128.54 603.367C129.08 603.107 129.733 602.977 130.5 602.977C131.267 602.977 131.92 603.107 132.46 603.367C133 603.627 133.41 603.984 133.69 604.437C133.977 604.89 134.12 605.404 134.12 605.977C134.12 606.557 133.977 607.07 133.69 607.517C133.41 607.97 133 608.327 132.46 608.587C131.92 608.847 131.267 608.977 130.5 608.977C129.733 608.977 129.08 608.847 128.54 608.587C128 608.327 127.587 607.97 127.3 607.517C127.02 607.07 126.88 606.557 126.88 605.977ZM128.25 605.977C128.25 606.25 128.327 606.487 128.48 606.687C128.633 606.894 128.877 607.054 129.21 607.167C129.543 607.287 129.973 607.347 130.5 607.347C131.027 607.347 131.457 607.287 131.79 607.167C132.123 607.054 132.367 606.894 132.52 606.687C132.673 606.487 132.75 606.25 132.75 605.977C132.75 605.71 132.673 605.474 132.52 605.267C132.367 605.067 132.123 604.907 131.79 604.787C131.457 604.674 131.027 604.617 130.5 604.617C129.973 604.617 129.543 604.674 129.21 604.787C128.877 604.907 128.633 605.067 128.48 605.267C128.327 605.474 128.25 605.71 128.25 605.977ZM127 612.605H133.4L132.7 613.305V611.205H134V614.225H127V612.605Z" fill="#C73535"/>
<path d="M137 673L132.091 673.63L134 678.196L131 674.26L128 678.196L129.909 673.63L125 673L129.909 672.37L128 667.804L131 671.74L134 667.804L132.091 672.37L137 673Z" fill="#C73535"/>
<path d="M137 736L132.091 736.63L134 741.196L131 737.26L128 741.196L129.909 736.63L125 736L129.909 735.37L128 730.804L131 734.74L134 730.804L132.091 735.37L137 736Z" fill="#C73535"/>
</g>
<g filter="url(#filter9_dd_49_661)">
<path d="M155 549.297L164.1 553.392V555.056L155 559.164V557.396L163.203 553.873V554.549L155 551.039V549.297ZM157.106 551.182L158.432 551.637V556.551L157.106 557.006V551.182ZM155 562.922H164.1V566.9C164.1 567.888 163.909 568.754 163.528 569.5C163.147 570.245 162.618 570.826 161.942 571.242C161.266 571.658 160.469 571.866 159.55 571.866C158.64 571.866 157.843 571.658 157.158 571.242C156.482 570.826 155.953 570.245 155.572 569.5C155.191 568.754 155 567.888 155 566.9V562.922ZM156.43 564.612V566.822C156.43 567.498 156.56 568.087 156.82 568.59C157.08 569.092 157.444 569.478 157.912 569.747C158.38 570.024 158.926 570.163 159.55 570.163C160.183 570.163 160.729 570.024 161.188 569.747C161.656 569.478 162.02 569.092 162.28 568.59C162.54 568.087 162.67 567.498 162.67 566.822V564.612H156.43ZM155 576.262H164.1V577.653L157.457 581.631V580.903L164.1 584.816V586.207L155 586.22V584.621L161.591 584.608V584.946L156.04 581.618V580.864L161.591 577.484V577.874H155V576.262ZM155 591.278H164.1V592.968H155V591.278ZM155 599.875H162.67V596.859H164.1V604.581H162.67V601.565H155V599.875ZM154.87 618.906C154.87 618.196 154.987 617.541 155.221 616.943C155.455 616.345 155.78 615.825 156.196 615.383C156.621 614.941 157.115 614.599 157.678 614.356C158.25 614.114 158.874 613.992 159.55 613.992C160.226 613.992 160.846 614.114 161.409 614.356C161.981 614.599 162.475 614.941 162.891 615.383C163.316 615.825 163.645 616.345 163.879 616.943C164.113 617.541 164.23 618.191 164.23 618.893C164.23 619.604 164.113 620.254 163.879 620.843C163.645 621.441 163.316 621.961 162.891 622.403C162.475 622.845 161.981 623.188 161.409 623.43C160.846 623.673 160.226 623.794 159.55 623.794C158.874 623.794 158.25 623.673 157.678 623.43C157.106 623.188 156.612 622.845 156.196 622.403C155.78 621.961 155.455 621.441 155.221 620.843C154.987 620.254 154.87 619.608 154.87 618.906ZM156.352 618.893C156.352 619.353 156.43 619.777 156.586 620.167C156.742 620.557 156.963 620.895 157.249 621.181C157.544 621.467 157.882 621.688 158.263 621.844C158.653 622.009 159.082 622.091 159.55 622.091C160.018 622.091 160.443 622.009 160.824 621.844C161.214 621.688 161.552 621.467 161.838 621.181C162.133 620.895 162.358 620.557 162.514 620.167C162.67 619.777 162.748 619.353 162.748 618.893C162.748 618.434 162.67 618.009 162.514 617.619C162.358 617.238 162.133 616.9 161.838 616.605C161.552 616.319 161.214 616.094 160.824 615.929C160.443 615.773 160.018 615.695 159.55 615.695C159.091 615.695 158.666 615.773 158.276 615.929C157.886 616.094 157.544 616.319 157.249 616.605C156.963 616.891 156.742 617.229 156.586 617.619C156.43 618.009 156.352 618.434 156.352 618.893ZM155 628.186H164.1V629.577L157.093 635.284V634.595H164.1V636.272H155V634.881L162.007 629.174V629.863H155V628.186ZM155 641.31H164.1V647.953H162.683V643H156.417V648.135H155V641.31ZM158.926 642.87H160.317V647.394H158.926V642.87Z" fill="#C73535"/>
</g>
<g filter="url(#filter10_dd_49_661)">
<path d="M188.435 507.061H172.3V486.086H188.435V489.947H227.833V486.627L215.552 485.615V479H243.611V514.241H215.552V507.649L227.833 506.637V503.2H188.435V507.061Z" fill="#C73535"/>
<path d="M188.077 546.826H172.3V527.263H188.077V531.03H227.833V527.263H243.611V546.826H227.833V543.083H188.077V546.826Z" fill="#C73535"/>
<path d="M171 577.103C171 573.619 172.404 570.449 175.213 567.593C177.992 564.705 182.175 562.398 187.763 560.672C193.351 558.961 200.224 558.106 208.381 558.106C215.194 558.106 221.394 558.757 226.982 560.059C232.51 561.362 236.887 563.269 240.114 565.78C243.371 568.307 245 571.359 245 574.937C245 576.758 244.178 578.39 242.535 579.834C240.921 581.294 238.874 582.345 236.394 582.988L243.611 583.954V591.275H214.342V583.765H215.821C219.616 583.765 222.724 583.302 225.144 582.376C227.565 581.466 228.775 580.109 228.775 578.304C228.775 577.095 227.893 575.981 226.13 574.961C224.337 573.957 221.992 573.164 219.093 572.583C216.225 572.003 213.267 571.712 210.219 571.712C204.213 571.712 199.506 572.497 196.1 574.066C192.723 575.636 191.035 577.786 191.035 580.517C191.035 582.447 191.648 584.236 192.873 585.884C194.098 587.548 195.413 588.913 196.817 589.98L195.965 590.498H176.872C174.69 588.505 173.166 586.402 172.3 584.189C171.433 581.976 171 579.614 171 577.103Z" fill="#C73535"/>
<path d="M172.3 623.812V604.25H188.077V608.016H227.833V604.25H243.611V623.059H227.833V620.069H211.608L227.833 626.284H243.611V640.95H227.833V637.702L210.577 630.239H209.95C209.95 632.782 209.113 634.775 207.44 636.219C205.796 637.662 202.928 638.384 198.834 638.384H191.573C190.647 638.384 189.825 638.518 189.108 638.785C188.421 639.067 188.077 639.452 188.077 639.938V642.622H172.3V634.006C172.3 628.733 176.887 626.096 186.06 626.096H193.859C195.383 626.096 196.877 625.837 198.341 625.319C199.835 624.801 200.582 624.189 200.582 623.483V620.069H188.077V623.812H172.3Z" fill="#C73535"/>
<path d="M202.689 685.988H172.3V654.373H188.077V658.916H227.833V654.373H243.611V685.988H215.239V679.962L227.833 677.702V670.969H216.18V676.996H204.437V670.969H188.077V677.702L202.689 679.962V685.988Z" fill="#C73535"/>
<path d="M188.435 723.987H172.3V703.012H188.435V706.873H227.833V703.554L215.552 702.541V695.926H243.611L243.611 731.167H215.552V724.576L227.833 723.564V720.127H188.435V723.987Z" fill="#C73535"/>
</g>
<g filter="url(#filter11_dd_49_661)">
<rect x="253" y="469" width="272" height="104" rx="11" transform="rotate(90 253 469)" stroke="#C73535" stroke-width="2" shape-rendering="crispEdges"/>
</g>
<path d="M140.979 428C137.024 413.938 127.676 403.95 116.697 403.543L116 403.53L116 99.4697C127.279 99.4697 136.94 89.3589 140.979 75H175.951C179.948 89.4897 189.657 99.7158 201 99.7158C212.343 99.7158 222.052 89.4897 226.049 75H261.021C265.06 89.3589 274.721 99.4697 286 99.4697L286 403.53C274.721 403.53 265.06 413.641 261.021 428H225.911C221.831 413.772 212.214 403.777 201 403.777C189.786 403.777 180.169 413.772 176.089 428H140.979Z" fill="#C73535"/>
<g filter="url(#filter12_dd_49_661)">
<path d="M274 224.38V226.36H267V224.38H269.73V221.68H267V219.7H274V221.68H271.37V224.38H274ZM267 234.797L268.36 234.247V231.287L267 230.737V228.717L274 231.807V233.757L267 236.857V234.797ZM269.82 231.867V233.667L272.06 232.767L269.82 231.867ZM274 242.418C274 244.328 273.01 245.528 271.41 245.528C269.82 245.528 268.83 244.328 268.83 242.418V241.198H267V239.218H274V242.418ZM270.39 242.298C270.39 243.118 270.77 243.528 271.41 243.528C272.06 243.528 272.44 243.118 272.44 242.298V241.198H270.39V242.298ZM267 249.608H272.43V247.458H274V253.728H272.43V251.588H267V249.608ZM267 256.265H274V258.245H267V256.265ZM266.86 264.944C266.86 262.724 268.37 261.094 270.5 261.094C272.63 261.094 274.14 262.724 274.14 264.944C274.14 266.234 273.67 267.274 272.82 267.954L271.68 266.694C272.21 266.254 272.5 265.714 272.5 265.044C272.5 263.894 271.7 263.094 270.5 263.094C269.3 263.094 268.5 263.894 268.5 265.044C268.5 265.714 268.79 266.254 269.32 266.694L268.18 267.954C267.33 267.274 266.86 266.234 266.86 264.944ZM267 270.637H274V272.617H268.57V275.957H267V270.637ZM268.53 280.5V284.16H267V278.54H274V284.03H272.47V280.5H271.29V283.61H269.81V280.5H268.53Z" fill="#C73535"/>
<path d="M277 331L272.091 331.63L274 336.196L271 332.26L268 336.196L269.909 331.63L265 331L269.909 330.37L268 325.804L271 329.74L274 325.804L272.091 330.37L277 331Z" fill="#C73535"/>
<path d="M277 383L272.091 383.63L274 388.196L271 384.26L268 388.196L269.909 383.63L265 383L269.909 382.37L268 377.804L271 381.74L274 377.804L272.091 382.37L277 383Z" fill="#C73535"/>
</g>
<g filter="url(#filter13_dd_49_661)">
<path d="M126.88 244.39C126.88 242.67 128.19 241.39 130.5 241.39C132.81 241.39 134.12 242.67 134.12 244.39C134.12 246.12 132.81 247.39 130.5 247.39C128.19 247.39 126.88 246.12 126.88 244.39ZM128.25 244.39C128.25 245.2 128.91 245.76 130.5 245.76C132.09 245.76 132.75 245.2 132.75 244.39C132.75 243.59 132.09 243.03 130.5 243.03C128.91 243.03 128.25 243.59 128.25 244.39ZM126.88 252.977C126.88 251.257 128.19 249.977 130.5 249.977C132.81 249.977 134.12 251.257 134.12 252.977C134.12 254.707 132.81 255.977 130.5 255.977C128.19 255.977 126.88 254.707 126.88 252.977ZM128.25 252.977C128.25 253.787 128.91 254.347 130.5 254.347C132.09 254.347 132.75 253.787 132.75 252.977C132.75 252.177 132.09 251.617 130.5 251.617C128.91 251.617 128.25 252.177 128.25 252.977ZM134 258.186V261.206H127V259.586H132.7V258.186H134Z" fill="#C73535"/>
<path d="M137 320L132.091 320.63L134 325.196L131 321.26L128 325.196L129.909 320.63L125 320L129.909 319.37L128 314.804L131 318.74L134 314.804L132.091 319.37L137 320Z" fill="#C73535"/>
<path d="M137 383L132.091 383.63L134 388.196L131 384.26L128 388.196L129.909 383.63L125 383L129.909 382.37L128 377.804L131 381.74L134 377.804L132.091 382.37L137 383Z" fill="#C73535"/>
</g>
<g filter="url(#filter14_dd_49_661)">
<path d="M155 204.396L157.106 203.486V198.936L155 198.039V196.297L164.1 200.392V202.056L155 206.164V204.396ZM158.432 199.508V202.927L162.41 201.211L158.432 199.508ZM155 209.922H164.1V213.9C164.1 216.851 162.28 218.866 159.55 218.866C156.82 218.866 155 216.851 155 213.9V209.922ZM156.43 211.612V213.822C156.43 215.85 157.665 217.163 159.55 217.163C161.435 217.163 162.67 215.85 162.67 213.822V211.612H156.43ZM155 233.22V231.621L161.032 231.608L156.04 228.618V227.864L160.954 224.874H155V223.262H164.1V224.653L158.068 228.267L164.1 231.816V233.207L155 233.22ZM155 238.278H164.1V239.968H155V238.278ZM155 246.875H162.67V243.859H164.1V251.581H162.67V248.565H155V246.875ZM154.87 265.893C154.87 263.072 156.859 260.992 159.55 260.992C162.241 260.992 164.23 263.072 164.23 265.893C164.23 268.714 162.254 270.794 159.55 270.794C156.846 270.794 154.87 268.714 154.87 265.893ZM156.352 265.893C156.352 267.726 157.691 269.091 159.55 269.091C161.409 269.091 162.748 267.726 162.748 265.893C162.748 264.06 161.409 262.695 159.55 262.695C157.691 262.695 156.352 264.06 156.352 265.893ZM164.1 281.595V283.272H155V281.881L161.162 276.863H155V275.186H164.1V276.577L157.938 281.595H164.1ZM156.417 290V295.135H155V288.31H164.1V294.953H162.683V290H160.317V294.394H158.926V290H156.417Z" fill="#C73535"/>
</g>
<g filter="url(#filter15_dd_49_661)">
<path d="M188.435 154.061H172.3V133.086H188.435V136.947H227.833V133.627L215.552 132.615V126H243.611V161.241H215.552V154.649L227.833 153.637V150.2H188.435V154.061Z" fill="#C73535"/>
<path d="M188.077 193.826H172.3V174.263H188.077V178.03H227.833V174.263H243.611V193.826H227.833V190.083H188.077V193.826Z" fill="#C73535"/>
<path d="M171 224.103C171 220.619 172.404 217.449 175.213 214.593C177.992 211.705 182.175 209.398 187.763 207.672C193.351 205.961 200.224 205.106 208.381 205.106C215.194 205.106 221.394 205.757 226.982 207.059C232.51 208.362 236.887 210.269 240.114 212.78C243.371 215.307 245 218.359 245 221.937C245 223.758 244.178 225.39 242.535 226.834C240.921 228.294 238.874 229.345 236.394 229.988L243.611 230.954V238.275H214.342V230.765H215.821C219.616 230.765 222.724 230.302 225.144 229.376C227.565 228.466 228.775 227.109 228.775 225.304C228.775 224.095 227.893 222.981 226.13 221.961C224.337 220.957 221.992 220.164 219.093 219.583C216.225 219.003 213.267 218.712 210.219 218.712C204.213 218.712 199.506 219.497 196.1 221.066C192.723 222.636 191.035 224.786 191.035 227.517C191.035 229.447 191.648 231.236 192.873 232.884C194.098 234.548 195.413 235.913 196.817 236.98L195.965 237.498H176.872C174.69 235.505 173.166 233.402 172.3 231.189C171.433 228.976 171 226.614 171 224.103Z" fill="#C73535"/>
<path d="M172.3 270.812V251.25H188.077V255.016H227.833V251.25H243.611V270.059H227.833V267.069H211.608L227.833 273.284H243.611V287.95H227.833V284.702L210.577 277.239H209.95C209.95 279.782 209.113 281.775 207.44 283.219C205.796 284.662 202.928 285.384 198.834 285.384H191.573C190.647 285.384 189.825 285.518 189.108 285.785C188.421 286.067 188.077 286.452 188.077 286.938V289.622H172.3V281.006C172.3 275.733 176.887 273.096 186.06 273.096H193.859C195.383 273.096 196.877 272.837 198.341 272.319C199.835 271.801 200.582 271.189 200.582 270.483V267.069H188.077V270.812H172.3Z" fill="#C73535"/>
<path d="M202.689 332.988H172.3V301.373H188.077V305.916H227.833V301.373H243.611V332.988H215.239V326.962L227.833 324.702V317.969H216.18V323.996H204.437V317.969H188.077V324.702L202.689 326.962V332.988Z" fill="#C73535"/>
<path d="M188.435 370.987H172.3V350.012H188.435V353.873H227.833V350.554L215.552 349.541V342.926H243.611L243.611 378.167H215.552V371.576L227.833 370.564V367.127H188.435V370.987Z" fill="#C73535"/>
</g>
<g filter="url(#filter16_dd_49_661)">
<rect x="253" y="116" width="272" height="104" rx="11" transform="rotate(90 253 116)" stroke="#C73535" stroke-width="2" shape-rendering="crispEdges"/>
</g>
</g>
<circle cx="197" cy="828" r="7" fill="#454545" fill-opacity="0.25"/>
<circle cx="197" cy="828" r="3" fill="#454545" fill-opacity="0.75"/>
<defs>
<filter id="filter0_dd_49_661" x="22" y="116" width="358" height="304" filterUnits="userSpaceOnUse" color-interpolation-filters="sRGB">
<feFlood flood-opacity="0" result="BackgroundImageFix"/>
<feColorMatrix in="SourceAlpha" type="matrix" values="0 0 0 0 0 0 0 0 0 0 0 0 0 0 0 0 0 0 127 0" result="hardAlpha"/>
<feOffset dx="-6" dy="-6"/>
<feGaussianBlur stdDeviation="6"/>
<feComposite in2="hardAlpha" operator="out"/>
<feColorMatrix type="matrix" values="0 0 0 0 1 0 0 0 0 1 0 0 0 0 1 0 0 0 1 0"/>
<feBlend mode="normal" in2="BackgroundImageFix" result="effect1_dropShadow_49_661"/>
<feColorMatrix in="SourceAlpha" type="matrix" values="0 0 0 0 0 0 0 0 0 0 0 0 0 0 0 0 0 0 127 0" result="hardAlpha"/>
<feOffset dx="6" dy="6"/>
<feGaussianBlur stdDeviation="6"/>
<feComposite in2="hardAlpha" operator="out"/>
<feColorMatrix type="matrix" values="0 0 0 0 0.639216 0 0 0 0 0.694118 0 0 0 0 0.776471 0 0 0 1 0"/>
<feBlend mode="normal" in2="effect1_dropShadow_49_661" result="effect2_dropShadow_49_661"/>
<feBlend mode="normal" in="SourceGraphic" in2="effect2_dropShadow_49_661" result="shape"/>
</filter>
<filter id="filter1_dd_49_661" x="46" y="140" width="42" height="42" filterUnits="userSpaceOnUse" color-interpolation-filters="sRGB">
<feFlood flood-opacity="0" result="BackgroundImageFix"/>
<feColorMatrix in="SourceAlpha" type="matrix" values="0 0 0 0 0 0 0 0 0 0 0 0 0 0 0 0 0 0 127 0" result="hardAlpha"/>
<feOffset dx="-3" dy="-3"/>
<feGaussianBlur stdDeviation="6"/>
<feComposite in2="hardAlpha" operator="out"/>
<feColorMatrix type="matrix" values="0 0 0 0 1 0 0 0 0 1 0 0 0 0 1 0 0 0 1 0"/>
<feBlend mode="normal" in2="BackgroundImageFix" result="effect1_dropShadow_49_661"/>
<feColorMatrix in="SourceAlpha" type="matrix" values="0 0 0 0 0 0 0 0 0 0 0 0 0 0 0 0 0 0 127 0" result="hardAlpha"/>
<feOffset dx="3" dy="3"/>
<feGaussianBlur stdDeviation="6"/>
<feComposite in2="hardAlpha" operator="out"/>
<feColorMatrix type="matrix" values="0 0 0 0 0.639216 0 0 0 0 0.694118 0 0 0 0 0.776471 0 0 0 0.5 0"/>
<feBlend mode="normal" in2="effect1_dropShadow_49_661" result="effect2_dropShadow_49_661"/>
<feBlend mode="normal" in="SourceGraphic" in2="effect2_dropShadow_49_661" result="shape"/>
</filter>
<filter id="filter2_dd_49_661" x="46" y="354" width="42" height="42" filterUnits="userSpaceOnUse" color-interpolation-filters="sRGB">
<feFlood flood-opacity="0" result="BackgroundImageFix"/>
<feColorMatrix in="SourceAlpha" type="matrix" values="0 0 0 0 0 0 0 0 0 0 0 0 0 0 0 0 0 0 127 0" result="hardAlpha"/>
<feOffset dx="-3" dy="-3"/>
<feGaussianBlur stdDeviation="6"/>
<feComposite in2="hardAlpha" operator="out"/>
<feColorMatrix type="matrix" values="0 0 0 0 1 0 0 0 0 1 0 0 0 0 1 0 0 0 1 0"/>
<feBlend mode="normal" in2="BackgroundImageFix" result="effect1_dropShadow_49_661"/>
<feColorMatrix in="SourceAlpha" type="matrix" values="0 0 0 0 0 0 0 0 0 0 0 0 0 0 0 0 0 0 127 0" result="hardAlpha"/>
<feOffset dx="3" dy="3"/>
<feGaussianBlur stdDeviation="6"/>
<feComposite in2="hardAlpha" operator="out"/>
<feColorMatrix type="matrix" values="0 0 0 0 0.639216 0 0 0 0 0.694118 0 0 0 0 0.776471 0 0 0 0.5 0"/>
<feBlend mode="normal" in2="effect1_dropShadow_49_661" result="effect2_dropShadow_49_661"/>
<feBlend mode="normal" in="SourceGraphic" in2="effect2_dropShadow_49_661" result="shape"/>
</filter>
<filter id="filter3_dd_49_661" x="313" y="140" width="42" height="42" filterUnits="userSpaceOnUse" color-interpolation-filters="sRGB">
<feFlood flood-opacity="0" result="BackgroundImageFix"/>
<feColorMatrix in="SourceAlpha" type="matrix" values="0 0 0 0 0 0 0 0 0 0 0 0 0 0 0 0 0 0 127 0" result="hardAlpha"/>
<feOffset dx="-3" dy="-3"/>
<feGaussianBlur stdDeviation="6"/>
<feComposite in2="hardAlpha" operator="out"/>
<feColorMatrix type="matrix" values="0 0 0 0 1 0 0 0 0 1 0 0 0 0 1 0 0 0 1 0"/>
<feBlend mode="normal" in2="BackgroundImageFix" result="effect1_dropShadow_49_661"/>
<feColorMatrix in="SourceAlpha" type="matrix" values="0 0 0 0 0 0 0 0 0 0 0 0 0 0 0 0 0 0 127 0" result="hardAlpha"/>
<feOffset dx="3" dy="3"/>
<feGaussianBlur stdDeviation="6"/>
<feComposite in2="hardAlpha" operator="out"/>
<feColorMatrix type="matrix" values="0 0 0 0 0.639216 0 0 0 0 0.694118 0 0 0 0 0.776471 0 0 0 0.5 0"/>
<feBlend mode="normal" in2="effect1_dropShadow_49_661" result="effect2_dropShadow_49_661"/>
<feBlend mode="normal" in="SourceGraphic" in2="effect2_dropShadow_49_661" result="shape"/>
</filter>
<filter id="filter4_dd_49_661" x="313" y="354" width="42" height="42" filterUnits="userSpaceOnUse" color-interpolation-filters="sRGB">
<feFlood flood-opacity="0" result="BackgroundImageFix"/>
<feColorMatrix in="SourceAlpha" type="matrix" values="0 0 0 0 0 0 0 0 0 0 0 0 0 0 0 0 0 0 127 0" result="hardAlpha"/>
<feOffset dx="-3" dy="-3"/>
<feGaussianBlur stdDeviation="6"/>
<feComposite in2="hardAlpha" operator="out"/>
<feColorMatrix type="matrix" values="0 0 0 0 1 0 0 0 0 1 0 0 0 0 1 0 0 0 1 0"/>
<feBlend mode="normal" in2="BackgroundImageFix" result="effect1_dropShadow_49_661"/>
<feColorMatrix in="SourceAlpha" type="matrix" values="0 0 0 0 0 0 0 0 0 0 0 0 0 0 0 0 0 0 127 0" result="hardAlpha"/>
<feOffset dx="3" dy="3"/>
<feGaussianBlur stdDeviation="6"/>
<feComposite in2="hardAlpha" operator="out"/>
<feColorMatrix type="matrix" values="0 0 0 0 0.639216 0 0 0 0 0.694118 0 0 0 0 0.776471 0 0 0 0.5 0"/>
<feBlend mode="normal" in2="effect1_dropShadow_49_661" result="effect2_dropShadow_49_661"/>
<feBlend mode="normal" in="SourceGraphic" in2="effect2_dropShadow_49_661" result="shape"/>
</filter>
<filter id="filter5_ii_49_661" x="73" y="228" width="255" height="18" filterUnits="userSpaceOnUse" color-interpolation-filters="sRGB">
<feFlood flood-opacity="0" result="BackgroundImageFix"/>
<feBlend mode="normal" in="SourceGraphic" in2="BackgroundImageFix" result="shape"/>
<feColorMatrix in="SourceAlpha" type="matrix" values="0 0 0 0 0 0 0 0 0 0 0 0 0 0 0 0 0 0 127 0" result="hardAlpha"/>
<feOffset dy="-3"/>
<feGaussianBlur stdDeviation="3"/>
<feComposite in2="hardAlpha" operator="arithmetic" k2="-1" k3="1"/>
<feColorMatrix type="matrix" values="0 0 0 0 1 0 0 0 0 1 0 0 0 0 1 0 0 0 0.25 0"/>
<feBlend mode="normal" in2="shape" result="effect1_innerShadow_49_661"/>
<feColorMatrix in="SourceAlpha" type="matrix" values="0 0 0 0 0 0 0 0 0 0 0 0 0 0 0 0 0 0 127 0" result="hardAlpha"/>
<feOffset dy="3"/>
<feGaussianBlur stdDeviation="3"/>
<feComposite in2="hardAlpha" operator="arithmetic" k2="-1" k3="1"/>
<feColorMatrix type="matrix" values="0 0 0 0 0.639216 0 0 0 0 0.694118 0 0 0 0 0.776471 0 0 0 0.5 0"/>
<feBlend mode="normal" in2="effect1_innerShadow_49_661" result="effect2_innerShadow_49_661"/>
</filter>
<filter id="filter6_dd_49_661" x="55" y="203" width="288" height="43" filterUnits="userSpaceOnUse" color-interpolation-filters="sRGB">
<feFlood flood-opacity="0" result="BackgroundImageFix"/>
<feColorMatrix in="SourceAlpha" type="matrix" values="0 0 0 0 0 0 0 0 0 0 0 0 0 0 0 0 0 0 127 0" result="hardAlpha"/>
<feOffset dx="-6" dy="-6"/>
<feGaussianBlur stdDeviation="6"/>
<feComposite in2="hardAlpha" operator="out"/>
<feColorMatrix type="matrix" values="0 0 0 0 1 0 0 0 0 1 0 0 0 0 1 0 0 0 1 0"/>
<feBlend mode="normal" in2="BackgroundImageFix" result="effect1_dropShadow_49_661"/>
<feColorMatrix in="SourceAlpha" type="matrix" values="0 0 0 0 0 0 0 0 0 0 0 0 0 0 0 0 0 0 127 0" result="hardAlpha"/>
<feOffset dx="3" dy="3"/>
<feGaussianBlur stdDeviation="6"/>
<feComposite in2="hardAlpha" operator="out"/>
<feColorMatrix type="matrix" values="0 0 0 0 0.639216 0 0 0 0 0.694118 0 0 0 0 0.776471 0 0 0 0.25 0"/>
<feBlend mode="normal" in2="effect1_dropShadow_49_661" result="effect2_dropShadow_49_661"/>
<feBlend mode="normal" in="SourceGraphic" in2="effect2_dropShadow_49_661" result="shape"/>
</filter>
<filter id="filter7_dd_49_661" x="258" y="461" width="24" height="286" filterUnits="userSpaceOnUse" color-interpolation-filters="sRGB">
<feFlood flood-opacity="0" result="BackgroundImageFix"/>
<feColorMatrix in="SourceAlpha" type="matrix" values="0 0 0 0 0 0 0 0 0 0 0 0 0 0 0 0 0 0 127 0" result="hardAlpha"/>
<feOffset dx="1" dy="1"/>
<feGaussianBlur stdDeviation="1.5"/>
<feComposite in2="hardAlpha" operator="out"/>
<feColorMatrix type="matrix" values="0 0 0 0 0.537255 0 0 0 0 0.141176 0 0 0 0 0.141176 0 0 0 1 0"/>
<feBlend mode="normal" in2="BackgroundImageFix" result="effect1_dropShadow_49_661"/>
<feColorMatrix in="SourceAlpha" type="matrix" values="0 0 0 0 0 0 0 0 0 0 0 0 0 0 0 0 0 0 127 0" result="hardAlpha"/>
<feOffset dx="-1" dy="-1"/>
<feGaussianBlur stdDeviation="3"/>
<feComposite in2="hardAlpha" operator="out"/>
<feColorMatrix type="matrix" values="0 0 0 0 0.847059 0 0 0 0 0.431373 0 0 0 0 0.431373 0 0 0 1 0"/>
<feBlend mode="normal" in2="effect1_dropShadow_49_661" result="effect2_dropShadow_49_661"/>
<feBlend mode="normal" in="SourceGraphic" in2="effect2_dropShadow_49_661" result="shape"/>
</filter>
<filter id="filter8_dd_49_661" x="118" y="461" width="24" height="286" filterUnits="userSpaceOnUse" color-interpolation-filters="sRGB">
<feFlood flood-opacity="0" result="BackgroundImageFix"/>
<feColorMatrix in="SourceAlpha" type="matrix" values="0 0 0 0 0 0 0 0 0 0 0 0 0 0 0 0 0 0 127 0" result="hardAlpha"/>
<feOffset dx="1" dy="1"/>
<feGaussianBlur stdDeviation="1.5"/>
<feComposite in2="hardAlpha" operator="out"/>
<feColorMatrix type="matrix" values="0 0 0 0 0.537255 0 0 0 0 0.141176 0 0 0 0 0.141176 0 0 0 1 0"/>
<feBlend mode="normal" in2="BackgroundImageFix" result="effect1_dropShadow_49_661"/>
<feColorMatrix in="SourceAlpha" type="matrix" values="0 0 0 0 0 0 0 0 0 0 0 0 0 0 0 0 0 0 127 0" result="hardAlpha"/>
<feOffset dx="-1" dy="-1"/>
<feGaussianBlur stdDeviation="3"/>
<feComposite in2="hardAlpha" operator="out"/>
<feColorMatrix type="matrix" values="0 0 0 0 0.847059 0 0 0 0 0.431373 0 0 0 0 0.431373 0 0 0 1 0"/>
<feBlend mode="normal" in2="effect1_dropShadow_49_661" result="effect2_dropShadow_49_661"/>
<feBlend mode="normal" in="SourceGraphic" in2="effect2_dropShadow_49_661" result="shape"/>
</filter>
<filter id="filter9_dd_49_661" x="147.87" y="542.297" width="21.36" height="110.838" filterUnits="userSpaceOnUse" color-interpolation-filters="sRGB">
<feFlood flood-opacity="0" result="BackgroundImageFix"/>
<feColorMatrix in="SourceAlpha" type="matrix" values="0 0 0 0 0 0 0 0 0 0 0 0 0 0 0 0 0 0 127 0" result="hardAlpha"/>
<feOffset dx="1" dy="1"/>
<feGaussianBlur stdDeviation="1.5"/>
<feComposite in2="hardAlpha" operator="out"/>
<feColorMatrix type="matrix" values="0 0 0 0 0.537255 0 0 0 0 0.141176 0 0 0 0 0.141176 0 0 0 1 0"/>
<feBlend mode="normal" in2="BackgroundImageFix" result="effect1_dropShadow_49_661"/>
<feColorMatrix in="SourceAlpha" type="matrix" values="0 0 0 0 0 0 0 0 0 0 0 0 0 0 0 0 0 0 127 0" result="hardAlpha"/>
<feOffset dx="-1" dy="-1"/>
<feGaussianBlur stdDeviation="3"/>
<feComposite in2="hardAlpha" operator="out"/>
<feColorMatrix type="matrix" values="0 0 0 0 0.847059 0 0 0 0 0.431373 0 0 0 0 0.431373 0 0 0 1 0"/>
<feBlend mode="normal" in2="effect1_dropShadow_49_661" result="effect2_dropShadow_49_661"/>
<feBlend mode="normal" in="SourceGraphic" in2="effect2_dropShadow_49_661" result="shape"/>
</filter>
<filter id="filter10_dd_49_661" x="156" y="464" width="98" height="276.167" filterUnits="userSpaceOnUse" color-interpolation-filters="sRGB">
<feFlood flood-opacity="0" result="BackgroundImageFix"/>
<feColorMatrix in="SourceAlpha" type="matrix" values="0 0 0 0 0 0 0 0 0 0 0 0 0 0 0 0 0 0 127 0" result="hardAlpha"/>
<feOffset dx="3" dy="3"/>
<feGaussianBlur stdDeviation="3"/>
<feComposite in2="hardAlpha" operator="out"/>
<feColorMatrix type="matrix" values="0 0 0 0 0.537255 0 0 0 0 0.141176 0 0 0 0 0.141176 0 0 0 1 0"/>
<feBlend mode="normal" in2="BackgroundImageFix" result="effect1_dropShadow_49_661"/>
<feColorMatrix in="SourceAlpha" type="matrix" values="0 0 0 0 0 0 0 0 0 0 0 0 0 0 0 0 0 0 127 0" result="hardAlpha"/>
<feOffset dx="-3" dy="-3"/>
<feGaussianBlur stdDeviation="6"/>
<feComposite in2="hardAlpha" operator="out"/>
<feColorMatrix type="matrix" values="0 0 0 0 0.847059 0 0 0 0 0.431373 0 0 0 0 0.431373 0 0 0 0.5 0"/>
<feBlend mode="normal" in2="effect1_dropShadow_49_661" result="effect2_dropShadow_49_661"/>
<feBlend mode="normal" in="SourceGraphic" in2="effect2_dropShadow_49_661" result="shape"/>
</filter>
<filter id="filter11_dd_49_661" x="130" y="450" width="142" height="310" filterUnits="userSpaceOnUse" color-interpolation-filters="sRGB">
<feFlood flood-opacity="0" result="BackgroundImageFix"/>
<feColorMatrix in="SourceAlpha" type="matrix" values="0 0 0 0 0 0 0 0 0 0 0 0 0 0 0 0 0 0 127 0" result="hardAlpha"/>
<feOffset dx="6" dy="6"/>
<feGaussianBlur stdDeviation="6"/>
<feComposite in2="hardAlpha" operator="out"/>
<feColorMatrix type="matrix" values="0 0 0 0 0.537255 0 0 0 0 0.141176 0 0 0 0 0.141176 0 0 0 1 0"/>
<feBlend mode="normal" in2="BackgroundImageFix" result="effect1_dropShadow_49_661"/>
<feColorMatrix in="SourceAlpha" type="matrix" values="0 0 0 0 0 0 0 0 0 0 0 0 0 0 0 0 0 0 127 0" result="hardAlpha"/>
<feOffset dx="-6" dy="-6"/>
<feGaussianBlur stdDeviation="6"/>
<feComposite in2="hardAlpha" operator="out"/>
<feColorMatrix type="matrix" values="0 0 0 0 0.847059 0 0 0 0 0.431373 0 0 0 0 0.431373 0 0 0 1 0"/>
<feBlend mode="normal" in2="effect1_dropShadow_49_661" result="effect2_dropShadow_49_661"/>
<feBlend mode="normal" in="SourceGraphic" in2="effect2_dropShadow_49_661" result="shape"/>
</filter>
<filter id="filter12_dd_49_661" x="258" y="108" width="24" height="286" filterUnits="userSpaceOnUse" color-interpolation-filters="sRGB">
<feFlood flood-opacity="0" result="BackgroundImageFix"/>
<feColorMatrix in="SourceAlpha" type="matrix" values="0 0 0 0 0 0 0 0 0 0 0 0 0 0 0 0 0 0 127 0" result="hardAlpha"/>
<feOffset dx="1" dy="1"/>
<feGaussianBlur stdDeviation="1.5"/>
<feComposite in2="hardAlpha" operator="out"/>
<feColorMatrix type="matrix" values="0 0 0 0 0.537255 0 0 0 0 0.141176 0 0 0 0 0.141176 0 0 0 1 0"/>
<feBlend mode="normal" in2="BackgroundImageFix" result="effect1_dropShadow_49_661"/>
<feColorMatrix in="SourceAlpha" type="matrix" values="0 0 0 0 0 0 0 0 0 0 0 0 0 0 0 0 0 0 127 0" result="hardAlpha"/>
<feOffset dx="-1" dy="-1"/>
<feGaussianBlur stdDeviation="3"/>
<feComposite in2="hardAlpha" operator="out"/>
<feColorMatrix type="matrix" values="0 0 0 0 0.847059 0 0 0 0 0.431373 0 0 0 0 0.431373 0 0 0 1 0"/>
<feBlend mode="normal" in2="effect1_dropShadow_49_661" result="effect2_dropShadow_49_661"/>
<feBlend mode="normal" in="SourceGraphic" in2="effect2_dropShadow_49_661" result="shape"/>
</filter>
<filter id="filter13_dd_49_661" x="118" y="108" width="24" height="286" filterUnits="userSpaceOnUse" color-interpolation-filters="sRGB">
<feFlood flood-opacity="0" result="BackgroundImageFix"/>
<feColorMatrix in="SourceAlpha" type="matrix" values="0 0 0 0 0 0 0 0 0 0 0 0 0 0 0 0 0 0 127 0" result="hardAlpha"/>
<feOffset dx="1" dy="1"/>
<feGaussianBlur stdDeviation="1.5"/>
<feComposite in2="hardAlpha" operator="out"/>
<feColorMatrix type="matrix" values="0 0 0 0 0.537255 0 0 0 0 0.141176 0 0 0 0 0.141176 0 0 0 1 0"/>
<feBlend mode="normal" in2="BackgroundImageFix" result="effect1_dropShadow_49_661"/>
<feColorMatrix in="SourceAlpha" type="matrix" values="0 0 0 0 0 0 0 0 0 0 0 0 0 0 0 0 0 0 127 0" result="hardAlpha"/>
<feOffset dx="-1" dy="-1"/>
<feGaussianBlur stdDeviation="3"/>
<feComposite in2="hardAlpha" operator="out"/>
<feColorMatrix type="matrix" values="0 0 0 0 0.847059 0 0 0 0 0.431373 0 0 0 0 0.431373 0 0 0 1 0"/>
<feBlend mode="normal" in2="effect1_dropShadow_49_661" result="effect2_dropShadow_49_661"/>
<feBlend mode="normal" in="SourceGraphic" in2="effect2_dropShadow_49_661" result="shape"/>
</filter>
<filter id="filter14_dd_49_661" x="147.87" y="189.297" width="21.36" height="110.838" filterUnits="userSpaceOnUse" color-interpolation-filters="sRGB">
<feFlood flood-opacity="0" result="BackgroundImageFix"/>
<feColorMatrix in="SourceAlpha" type="matrix" values="0 0 0 0 0 0 0 0 0 0 0 0 0 0 0 0 0 0 127 0" result="hardAlpha"/>
<feOffset dx="1" dy="1"/>
<feGaussianBlur stdDeviation="1.5"/>
<feComposite in2="hardAlpha" operator="out"/>
<feColorMatrix type="matrix" values="0 0 0 0 0.537255 0 0 0 0 0.141176 0 0 0 0 0.141176 0 0 0 1 0"/>
<feBlend mode="normal" in2="BackgroundImageFix" result="effect1_dropShadow_49_661"/>
<feColorMatrix in="SourceAlpha" type="matrix" values="0 0 0 0 0 0 0 0 0 0 0 0 0 0 0 0 0 0 127 0" result="hardAlpha"/>
<feOffset dx="-1" dy="-1"/>
<feGaussianBlur stdDeviation="3"/>
<feComposite in2="hardAlpha" operator="out"/>
<feColorMatrix type="matrix" values="0 0 0 0 0.847059 0 0 0 0 0.431373 0 0 0 0 0.431373 0 0 0 1 0"/>
<feBlend mode="normal" in2="effect1_dropShadow_49_661" result="effect2_dropShadow_49_661"/>
<feBlend mode="normal" in="SourceGraphic" in2="effect2_dropShadow_49_661" result="shape"/>
</filter>
<filter id="filter15_dd_49_661" x="156" y="111" width="98" height="276.167" filterUnits="userSpaceOnUse" color-interpolation-filters="sRGB">
<feFlood flood-opacity="0" result="BackgroundImageFix"/>
<feColorMatrix in="SourceAlpha" type="matrix" values="0 0 0 0 0 0 0 0 0 0 0 0 0 0 0 0 0 0 127 0" result="hardAlpha"/>
<feOffset dx="3" dy="3"/>
<feGaussianBlur stdDeviation="3"/>
<feComposite in2="hardAlpha" operator="out"/>
<feColorMatrix type="matrix" values="0 0 0 0 0.537255 0 0 0 0 0.141176 0 0 0 0 0.141176 0 0 0 1 0"/>
<feBlend mode="normal" in2="BackgroundImageFix" result="effect1_dropShadow_49_661"/>
<feColorMatrix in="SourceAlpha" type="matrix" values="0 0 0 0 0 0 0 0 0 0 0 0 0 0 0 0 0 0 127 0" result="hardAlpha"/>
<feOffset dx="-3" dy="-3"/>
<feGaussianBlur stdDeviation="6"/>
<feComposite in2="hardAlpha" operator="out"/>
<feColorMatrix type="matrix" values="0 0 0 0 0.847059 0 0 0 0 0.431373 0 0 0 0 0.431373 0 0 0 0.5 0"/>
<feBlend mode="normal" in2="effect1_dropShadow_49_661" result="effect2_dropShadow_49_661"/>
<feBlend mode="normal" in="SourceGraphic" in2="effect2_dropShadow_49_661" result="shape"/>
</filter>
<filter id="filter16_dd_49_661" x="130" y="97" width="142" height="310" filterUnits="userSpaceOnUse" color-interpolation-filters="sRGB">
<feFlood flood-opacity="0" result="BackgroundImageFix"/>
<feColorMatrix in="SourceAlpha" type="matrix" values="0 0 0 0 0 0 0 0 0 0 0 0 0 0 0 0 0 0 127 0" result="hardAlpha"/>
<feOffset dx="6" dy="6"/>
<feGaussianBlur stdDeviation="6"/>
<feComposite in2="hardAlpha" operator="out"/>
<feColorMatrix type="matrix" values="0 0 0 0 0.537255 0 0 0 0 0.141176 0 0 0 0 0.141176 0 0 0 1 0"/>
<feBlend mode="normal" in2="BackgroundImageFix" result="effect1_dropShadow_49_661"/>
<feColorMatrix in="SourceAlpha" type="matrix" values="0 0 0 0 0 0 0 0 0 0 0 0 0 0 0 0 0 0 127 0" result="hardAlpha"/>
<feOffset dx="-6" dy="-6"/>
<feGaussianBlur stdDeviation="6"/>
<feComposite in2="hardAlpha" operator="out"/>
<feColorMatrix type="matrix" values="0 0 0 0 0.847059 0 0 0 0 0.431373 0 0 0 0 0.431373 0 0 0 1 0"/>
<feBlend mode="normal" in2="effect1_dropShadow_49_661" result="effect2_dropShadow_49_661"/>
<feBlend mode="normal" in="SourceGraphic" in2="effect2_dropShadow_49_661" result="shape"/>
</filter>
<clipPath id="clip0_49_661">
<rect width="170" height="550" fill="white" transform="translate(116 231)"/>
</clipPath>
</defs>
</svg>
