<svg width="24" height="285" viewBox="0 0 24 285" fill="none" xmlns="http://www.w3.org/2000/svg">
<g filter="url(#filter0_dd_496_1440)">
<path d="M19 12.196L14.0912 12.826L16 17.3922L13 13.456L10 17.3922L11.9088 12.826L7 12.196L11.9088 11.566L10 6.99989L13 10.936L16 6.99989L14.0912 11.566L19 12.196Z" fill="#C73535"/>
<path d="M19 75.196L14.0912 75.826L16 80.3922L13 76.456L10 80.3922L11.9088 75.826L7 75.196L11.9088 74.566L10 69.9999L13 73.936L16 69.9999L14.0912 74.566L19 75.196Z" fill="#C73535"/>
<path d="M8.88 135.586C8.88 135.013 9.02 134.499 9.3 134.046C9.58667 133.593 10 133.236 10.54 132.976C11.08 132.716 11.7333 132.586 12.5 132.586C13.2667 132.586 13.92 132.716 14.46 132.976C15 133.236 15.41 133.593 15.69 134.046C15.9767 134.499 16.12 135.013 16.12 135.586C16.12 136.166 15.9767 136.679 15.69 137.126C15.41 137.579 15 137.936 14.46 138.196C13.92 138.456 13.2667 138.586 12.5 138.586C11.7333 138.586 11.08 138.456 10.54 138.196C10 137.936 9.58667 137.579 9.3 137.126C9.02 136.679 8.88 136.166 8.88 135.586ZM10.25 135.586C10.25 135.859 10.3267 136.096 10.48 136.296C10.6333 136.503 10.8767 136.663 11.21 136.776C11.5433 136.896 11.9733 136.956 12.5 136.956C13.0267 136.956 13.4567 136.896 13.79 136.776C14.1233 136.663 14.3667 136.503 14.52 136.296C14.6733 136.096 14.75 135.859 14.75 135.586C14.75 135.319 14.6733 135.083 14.52 134.876C14.3667 134.676 14.1233 134.516 13.79 134.396C13.4567 134.283 13.0267 134.226 12.5 134.226C11.9733 134.226 11.5433 134.283 11.21 134.396C10.8767 134.516 10.6333 134.676 10.48 134.876C10.3267 135.083 10.25 135.319 10.25 135.586ZM8.88 144.173C8.88 143.6 9.02 143.086 9.3 142.633C9.58667 142.18 10 141.823 10.54 141.563C11.08 141.303 11.7333 141.173 12.5 141.173C13.2667 141.173 13.92 141.303 14.46 141.563C15 141.823 15.41 142.18 15.69 142.633C15.9767 143.086 16.12 143.6 16.12 144.173C16.12 144.753 15.9767 145.266 15.69 145.713C15.41 146.166 15 146.523 14.46 146.783C13.92 147.043 13.2667 147.173 12.5 147.173C11.7333 147.173 11.08 147.043 10.54 146.783C10 146.523 9.58667 146.166 9.3 145.713C9.02 145.266 8.88 144.753 8.88 144.173ZM10.25 144.173C10.25 144.446 10.3267 144.683 10.48 144.883C10.6333 145.09 10.8767 145.25 11.21 145.363C11.5433 145.483 11.9733 145.543 12.5 145.543C13.0267 145.543 13.4567 145.483 13.79 145.363C14.1233 145.25 14.3667 145.09 14.52 144.883C14.6733 144.683 14.75 144.446 14.75 144.173C14.75 143.906 14.6733 143.67 14.52 143.463C14.3667 143.263 14.1233 143.103 13.79 142.983C13.4567 142.87 13.0267 142.813 12.5 142.813C11.9733 142.813 11.5433 142.87 11.21 142.983C10.8767 143.103 10.6333 143.263 10.48 143.463C10.3267 143.67 10.25 143.906 10.25 144.173ZM9 150.801H15.4L14.7 151.501V149.401H16V152.421H9V150.801Z" fill="#C73535"/>
<path d="M19 211.196L14.0912 211.826L16 216.392L13 212.456L10 216.392L11.9088 211.826L7 211.196L11.9088 210.566L10 206L13 209.936L16 206L14.0912 210.566L19 211.196Z" fill="#C73535"/>
<path d="M19 274.196L14.0912 274.826L16 279.392L13 275.456L10 279.392L11.9088 274.826L7 274.196L11.9088 273.566L10 269L13 272.936L16 269L14.0912 273.566L19 274.196Z" fill="#C73535"/>
</g>
<defs>
<filter id="filter0_dd_496_1440" x="0" y="-0.803955" width="24" height="286" filterUnits="userSpaceOnUse" color-interpolation-filters="sRGB">
<feFlood flood-opacity="0" result="BackgroundImageFix"/>
<feColorMatrix in="SourceAlpha" type="matrix" values="0 0 0 0 0 0 0 0 0 0 0 0 0 0 0 0 0 0 127 0" result="hardAlpha"/>
<feOffset dx="1" dy="1"/>
<feGaussianBlur stdDeviation="1.5"/>
<feComposite in2="hardAlpha" operator="out"/>
<feColorMatrix type="matrix" values="0 0 0 0 0.537255 0 0 0 0 0.141176 0 0 0 0 0.141176 0 0 0 1 0"/>
<feBlend mode="normal" in2="BackgroundImageFix" result="effect1_dropShadow_496_1440"/>
<feColorMatrix in="SourceAlpha" type="matrix" values="0 0 0 0 0 0 0 0 0 0 0 0 0 0 0 0 0 0 127 0" result="hardAlpha"/>
<feOffset dx="-1" dy="-1"/>
<feGaussianBlur stdDeviation="3"/>
<feComposite in2="hardAlpha" operator="out"/>
<feColorMatrix type="matrix" values="0 0 0 0 0.847059 0 0 0 0 0.431373 0 0 0 0 0.431373 0 0 0 1 0"/>
<feBlend mode="normal" in2="effect1_dropShadow_496_1440" result="effect2_dropShadow_496_1440"/>
<feBlend mode="normal" in="SourceGraphic" in2="effect2_dropShadow_496_1440" result="shape"/>
</filter>
</defs>
</svg>
