<svg width="16" height="38" viewBox="0 0 16 38" fill="none" xmlns="http://www.w3.org/2000/svg">
<path d="M10.5948 0.307059C9.36445 -0.0920742 6.60271 -0.102095 5.21165 0.276997C4.68797 0.419712 4.46521 0.938583 4.46521 1.47917V20.1908C4.46521 21.4184 5.46476 22.4136 6.69777 22.4136H8.93033C10.1633 22.4136 11.1629 21.4185 11.1629 20.1908V1.30779C11.1629 0.872455 11.0105 0.441926 10.5948 0.307059Z" fill="#C73535"/>
<path d="M3.05809 16.1904C6.93326 15.5883 9.21298 15.6055 12.7622 16.1894C13.079 16.2416 13.3765 16.3757 13.6167 16.5879C14.6274 17.4807 17.2333 19.9804 15.312 20.4502C14.9473 20.5393 14.6328 20.5183 14.3462 20.4316C14.6385 26.4537 14.8419 31.7205 14.9809 36.9189C12.7792 37.6195 10.4344 37.9999 8.00048 38C5.51529 38 3.12232 37.6042 0.880359 36.875C0.994234 31.8101 1.1892 26.5692 1.47801 20.5371C1.20389 20.5836 0.917424 20.566 0.609851 20.4502C-1.09513 19.8081 1.21645 17.4813 2.17333 16.6064C2.41898 16.3818 2.72858 16.2417 3.05809 16.1904Z" fill="#454545"/>
</svg>
