<svg width="170" height="353" viewBox="0 0 170 353" fill="none" xmlns="http://www.w3.org/2000/svg">
<path d="M140 352L135 352L135 353L130 353L130 352L125 352L125 353L120 353L120 352L115 352L115 353L109.911 353C105.831 338.772 96.2144 328.777 85 328.777C73.7856 328.777 64.1687 338.772 60.0889 353L55 353L55 352L50 352L50 353L45 353L45 352L40 352L40 353L35 353L35 352L30 352L30 353L24.9795 353C21.0239 338.938 11.6761 328.95 0.697282 328.543L1.64997e-05 328.53L2.97906e-05 24.4697C11.279 24.4697 20.9405 14.3589 24.9795 1.09189e-06L30 1.31134e-06L30 1L35 1L35 1.5299e-06L40 1.74846e-06L40 1L45 1L45 1.96701e-06L50 2.18557e-06L50 1L55 1L55 2.40413e-06L59.9512 2.62055e-06C63.9485 14.4897 73.6566 24.7158 85 24.7158C96.3435 24.7158 106.052 14.4897 110.049 4.81039e-06L115 5.02681e-06L115 1.00001L120 1.00001L120 5.24537e-06L125 5.46392e-06L125 1.00001L130 1.00001L130 5.68248e-06L135 5.90104e-06L135 1.00001L140 1.00001L140 6.11959e-06L145.021 6.33905e-06C149.06 14.3589 158.721 24.4697 170 24.4697L170 328.53C158.721 328.53 149.06 338.641 145.021 353L140 353L140 352Z" fill="#C73535"/>
<g filter="url(#filter0_dd_65_861)">
<path d="M161 46L156.091 46.63L158 51.1962L155 47.26L152 51.1962L153.909 46.63L149 46L153.909 45.37L152 40.8039L155 44.74L158 40.8039L156.091 45.37L161 46Z" fill="#C73535"/>
<path d="M161 98L156.091 98.63L158 103.196L155 99.26L152 103.196L153.909 98.63L149 98L153.909 97.37L152 92.8039L155 96.74L158 92.8039L156.091 97.37L161 98Z" fill="#C73535"/>
<path d="M158 149.38L158 151.36L151 151.36L151 149.38L153.73 149.38L153.73 146.68L151 146.68L151 144.7L158 144.7L158 146.68L155.37 146.68L155.37 149.38L158 149.38ZM151 159.797L152.36 159.247L152.36 156.287L151 155.737L151 153.717L158 156.807L158 158.757L151 161.857L151 159.797ZM153.82 156.867L153.82 158.667L156.06 157.767L153.82 156.867ZM158 167.418C158 169.328 157.01 170.528 155.41 170.528C153.82 170.528 152.83 169.328 152.83 167.418L152.83 166.198L151 166.198L151 164.218L158 164.218L158 167.418ZM154.39 167.298C154.39 168.118 154.77 168.528 155.41 168.528C156.06 168.528 156.44 168.118 156.44 167.298L156.44 166.198L154.39 166.198L154.39 167.298ZM151 174.608L156.43 174.608L156.43 172.458L158 172.458L158 178.728L156.43 178.728L156.43 176.588L151 176.588L151 174.608ZM151 181.265L158 181.265L158 183.245L151 183.245L151 181.265ZM150.86 189.944C150.86 187.724 152.37 186.094 154.5 186.094C156.63 186.094 158.14 187.724 158.14 189.944C158.14 191.234 157.67 192.274 156.82 192.954L155.68 191.694C156.21 191.254 156.5 190.714 156.5 190.044C156.5 188.894 155.7 188.094 154.5 188.094C153.3 188.094 152.5 188.894 152.5 190.044C152.5 190.714 152.79 191.254 153.32 191.694L152.18 192.954C151.33 192.274 150.86 191.234 150.86 189.944ZM151 195.637L158 195.637L158 197.617L152.57 197.617L152.57 200.957L151 200.957L151 195.637ZM152.53 205.5L152.53 209.16L151 209.16L151 203.54L158 203.54L158 209.03L156.47 209.03L156.47 205.5L155.29 205.5L155.29 208.61L153.81 208.61L153.81 205.5L152.53 205.5Z" fill="#C73535"/>
<path d="M161 256L156.091 256.63L158 261.196L155 257.26L152 261.196L153.909 256.63L149 256L153.909 255.37L152 250.804L155 254.74L158 250.804L156.091 255.37L161 256Z" fill="#C73535"/>
<path d="M161 308L156.091 308.63L158 313.196L155 309.26L152 313.196L153.909 308.63L149 308L153.909 307.37L152 302.804L155 306.74L158 302.804L156.091 307.37L161 308Z" fill="#C73535"/>
</g>
<g filter="url(#filter1_dd_65_861)">
<path d="M21 46L16.0912 46.63L18 51.1962L15 47.26L12 51.1962L13.9088 46.63L9.00002 46L13.9088 45.37L12 40.8038L15 44.74L18 40.8038L16.0912 45.37L21 46Z" fill="#C73535"/>
<path d="M21 109L16.0912 109.63L18 114.196L15 110.26L12 114.196L13.9088 109.63L9.00002 109L13.9088 108.37L12 103.804L15 107.74L18 103.804L16.0912 108.37L21 109Z" fill="#C73535"/>
<path d="M10.88 169.39C10.88 167.67 12.19 166.39 14.5 166.39C16.81 166.39 18.12 167.67 18.12 169.39C18.12 171.12 16.81 172.39 14.5 172.39C12.19 172.39 10.88 171.12 10.88 169.39ZM12.25 169.39C12.25 170.2 12.91 170.76 14.5 170.76C16.09 170.76 16.75 170.2 16.75 169.39C16.75 168.59 16.09 168.03 14.5 168.03C12.91 168.03 12.25 168.59 12.25 169.39ZM10.88 177.977C10.88 176.257 12.19 174.977 14.5 174.977C16.81 174.977 18.12 176.257 18.12 177.977C18.12 179.707 16.81 180.977 14.5 180.977C12.19 180.977 10.88 179.707 10.88 177.977ZM12.25 177.977C12.25 178.787 12.91 179.347 14.5 179.347C16.09 179.347 16.75 178.787 16.75 177.977C16.75 177.177 16.09 176.617 14.5 176.617C12.91 176.617 12.25 177.177 12.25 177.977ZM18 183.186L18 186.206L11 186.206L11 184.586L16.7 184.586L16.7 183.186L18 183.186Z" fill="#C73535"/>
<path d="M21 245L16.0912 245.63L18 250.196L15 246.26L12 250.196L13.9088 245.63L9.00002 245L13.9088 244.37L12 239.804L15 243.74L18 239.804L16.0912 244.37L21 245Z" fill="#C73535"/>
<path d="M21 308L16.0912 308.63L18 313.196L15 309.26L12 313.196L13.9088 308.63L9.00002 308L13.9088 307.37L12 302.804L15 306.74L18 302.804L16.0912 307.37L21 308Z" fill="#C73535"/>
</g>
<g filter="url(#filter2_dd_65_861)">
<path d="M39 129.396L41.106 128.486L41.106 123.936L39 123.039L39 121.297L48.1 125.392L48.1 127.056L39 131.164L39 129.396ZM42.432 124.508L42.432 127.927L46.41 126.211L42.432 124.508ZM39 134.922L48.1 134.922L48.1 138.9C48.1 141.851 46.28 143.866 43.55 143.866C40.82 143.866 39 141.851 39 138.9L39 134.922ZM40.43 136.612L40.43 138.822C40.43 140.85 41.665 142.163 43.55 142.163C45.435 142.163 46.67 140.85 46.67 138.822L46.67 136.612L40.43 136.612ZM39 158.22L39 156.621L45.032 156.608L40.04 153.618L40.04 152.864L44.954 149.874L39 149.874L39 148.262L48.1 148.262L48.1 149.653L42.068 153.267L48.1 156.816L48.1 158.207L39 158.22ZM39 163.278L48.1 163.278L48.1 164.968L39 164.968L39 163.278ZM39 171.875L46.67 171.875L46.67 168.859L48.1 168.859L48.1 176.581L46.67 176.581L46.67 173.565L39 173.565L39 171.875ZM38.87 190.893C38.87 188.072 40.859 185.992 43.55 185.992C46.241 185.992 48.23 188.072 48.23 190.893C48.23 193.714 46.254 195.794 43.55 195.794C40.846 195.794 38.87 193.714 38.87 190.893ZM40.352 190.893C40.352 192.726 41.691 194.091 43.55 194.091C45.409 194.091 46.748 192.726 46.748 190.893C46.748 189.06 45.409 187.695 43.55 187.695C41.691 187.695 40.352 189.06 40.352 190.893ZM48.1 206.595L48.1 208.272L39 208.272L39 206.881L45.162 201.863L39 201.863L39 200.186L48.1 200.186L48.1 201.577L41.938 206.595L48.1 206.595ZM40.417 215L40.417 220.135L39 220.135L39 213.31L48.1 213.31L48.1 219.953L46.683 219.953L46.683 215L44.317 215L44.317 219.394L42.926 219.394L42.926 215L40.417 215Z" fill="#C73535"/>
</g>
<g filter="url(#filter3_dd_65_861)">
<path d="M72.4355 79.061L56.2998 79.061L56.2998 58.0859L72.4355 58.0859L72.4355 61.9466L111.833 61.9466L111.833 58.6273L99.5524 57.6151L99.5524 51L127.611 51L127.611 86.241L99.5524 86.241L99.5524 79.6495L111.833 78.6372L111.833 75.2002L72.4355 75.2002L72.4355 79.061Z" fill="#C73535"/>
<path d="M72.0769 118.826L56.2998 118.826L56.2998 99.263L72.0769 99.263L72.0769 103.03L111.833 103.03L111.833 99.263L127.611 99.263L127.611 118.826L111.833 118.826L111.833 115.083L72.0769 115.083L72.0769 118.826Z" fill="#C73535"/>
<path d="M55 149.103C55 145.619 56.4044 142.449 59.2132 139.593C61.9921 136.705 66.1755 134.398 71.7632 132.672C77.3509 130.961 84.2235 130.106 92.381 130.106C99.1938 130.106 105.394 130.757 110.982 132.059C116.51 133.362 120.887 135.269 124.114 137.78C127.372 140.307 129 143.359 129 146.937C129 148.758 128.178 150.39 126.535 151.834C124.921 153.294 122.874 154.345 120.394 154.988L127.611 155.954L127.611 163.275L98.3422 163.275L98.3422 155.765L99.8213 155.765C103.616 155.765 106.724 155.302 109.144 154.376C111.565 153.466 112.775 152.109 112.775 150.304C112.775 149.095 111.893 147.981 110.13 146.961C108.337 145.957 105.992 145.164 103.093 144.583C100.225 144.003 97.2665 143.712 94.2187 143.712C88.2126 143.712 83.5064 144.497 80.1 146.066C76.7234 147.636 75.0351 149.786 75.0351 152.517C75.0351 154.447 75.6477 156.236 76.8728 157.884C78.0979 159.548 79.4127 160.913 80.8171 161.98L79.9655 162.498L60.8716 162.498C58.6903 160.505 57.1664 158.402 56.2998 156.189C55.4333 153.976 55 151.614 55 149.103Z" fill="#C73535"/>
<path d="M56.2998 195.812L56.2998 176.25L72.0769 176.25L72.0769 180.016L111.833 180.016L111.833 176.25L127.611 176.25L127.611 195.059L111.833 195.059L111.833 192.069L95.6081 192.069L111.833 198.284L127.611 198.284L127.611 212.95L111.833 212.95L111.833 209.702L94.5772 202.239L93.9497 202.239C93.9497 204.782 93.1131 206.775 91.4397 208.219C89.7963 209.662 86.9277 210.384 82.8341 210.384L75.573 210.384C74.6467 210.384 73.825 210.518 73.1078 210.785C72.4206 211.067 72.0769 211.452 72.0769 211.938L72.0769 214.622L56.2998 214.622L56.2998 206.006C56.2998 200.733 60.8865 198.096 70.06 198.096L77.8589 198.096C79.3828 198.096 80.8769 197.837 82.341 197.319C83.8351 196.801 84.5821 196.189 84.5821 195.483L84.5821 192.069L72.0769 192.069L72.0769 195.812L56.2998 195.812Z" fill="#C73535"/>
<path d="M86.6887 257.988L56.2998 257.988L56.2998 226.373L72.0769 226.373L72.0769 230.916L111.833 230.916L111.833 226.373L127.611 226.373L127.611 257.988L99.2387 257.988L99.2387 251.962L111.833 249.702L111.833 242.969L100.18 242.969L100.18 248.996L88.4367 248.996L88.4367 242.969L72.0769 242.969L72.0769 249.702L86.6887 251.962L86.6887 257.988Z" fill="#C73535"/>
<path d="M72.4355 295.987L56.2998 295.987L56.2998 275.012L72.4355 275.012L72.4355 278.873L111.833 278.873L111.833 275.554L99.5524 274.541L99.5524 267.926L127.611 267.926L127.611 303.167L99.5524 303.167L99.5524 296.576L111.833 295.564L111.833 292.127L72.4355 292.127L72.4355 295.987Z" fill="#C73535"/>
</g>
<g filter="url(#filter4_dd_65_861)">
<rect x="137" y="41" width="272" height="104" rx="11" transform="rotate(90 137 41)" stroke="#C73535" stroke-width="2" shape-rendering="crispEdges"/>
</g>
<defs>
<filter id="filter0_dd_65_861" x="142" y="33" width="24" height="286" filterUnits="userSpaceOnUse" color-interpolation-filters="sRGB">
<feFlood flood-opacity="0" result="BackgroundImageFix"/>
<feColorMatrix in="SourceAlpha" type="matrix" values="0 0 0 0 0 0 0 0 0 0 0 0 0 0 0 0 0 0 127 0" result="hardAlpha"/>
<feOffset dx="1" dy="1"/>
<feGaussianBlur stdDeviation="1.5"/>
<feComposite in2="hardAlpha" operator="out"/>
<feColorMatrix type="matrix" values="0 0 0 0 0.537255 0 0 0 0 0.141176 0 0 0 0 0.141176 0 0 0 1 0"/>
<feBlend mode="normal" in2="BackgroundImageFix" result="effect1_dropShadow_65_861"/>
<feColorMatrix in="SourceAlpha" type="matrix" values="0 0 0 0 0 0 0 0 0 0 0 0 0 0 0 0 0 0 127 0" result="hardAlpha"/>
<feOffset dx="-1" dy="-1"/>
<feGaussianBlur stdDeviation="3"/>
<feComposite in2="hardAlpha" operator="out"/>
<feColorMatrix type="matrix" values="0 0 0 0 0.847059 0 0 0 0 0.431373 0 0 0 0 0.431373 0 0 0 1 0"/>
<feBlend mode="normal" in2="effect1_dropShadow_65_861" result="effect2_dropShadow_65_861"/>
<feBlend mode="normal" in="SourceGraphic" in2="effect2_dropShadow_65_861" result="shape"/>
</filter>
<filter id="filter1_dd_65_861" x="2.00002" y="33" width="24" height="286" filterUnits="userSpaceOnUse" color-interpolation-filters="sRGB">
<feFlood flood-opacity="0" result="BackgroundImageFix"/>
<feColorMatrix in="SourceAlpha" type="matrix" values="0 0 0 0 0 0 0 0 0 0 0 0 0 0 0 0 0 0 127 0" result="hardAlpha"/>
<feOffset dx="1" dy="1"/>
<feGaussianBlur stdDeviation="1.5"/>
<feComposite in2="hardAlpha" operator="out"/>
<feColorMatrix type="matrix" values="0 0 0 0 0.537255 0 0 0 0 0.141176 0 0 0 0 0.141176 0 0 0 1 0"/>
<feBlend mode="normal" in2="BackgroundImageFix" result="effect1_dropShadow_65_861"/>
<feColorMatrix in="SourceAlpha" type="matrix" values="0 0 0 0 0 0 0 0 0 0 0 0 0 0 0 0 0 0 127 0" result="hardAlpha"/>
<feOffset dx="-1" dy="-1"/>
<feGaussianBlur stdDeviation="3"/>
<feComposite in2="hardAlpha" operator="out"/>
<feColorMatrix type="matrix" values="0 0 0 0 0.847059 0 0 0 0 0.431373 0 0 0 0 0.431373 0 0 0 1 0"/>
<feBlend mode="normal" in2="effect1_dropShadow_65_861" result="effect2_dropShadow_65_861"/>
<feBlend mode="normal" in="SourceGraphic" in2="effect2_dropShadow_65_861" result="shape"/>
</filter>
<filter id="filter2_dd_65_861" x="31.87" y="114.297" width="21.36" height="110.838" filterUnits="userSpaceOnUse" color-interpolation-filters="sRGB">
<feFlood flood-opacity="0" result="BackgroundImageFix"/>
<feColorMatrix in="SourceAlpha" type="matrix" values="0 0 0 0 0 0 0 0 0 0 0 0 0 0 0 0 0 0 127 0" result="hardAlpha"/>
<feOffset dx="1" dy="1"/>
<feGaussianBlur stdDeviation="1.5"/>
<feComposite in2="hardAlpha" operator="out"/>
<feColorMatrix type="matrix" values="0 0 0 0 0.537255 0 0 0 0 0.141176 0 0 0 0 0.141176 0 0 0 1 0"/>
<feBlend mode="normal" in2="BackgroundImageFix" result="effect1_dropShadow_65_861"/>
<feColorMatrix in="SourceAlpha" type="matrix" values="0 0 0 0 0 0 0 0 0 0 0 0 0 0 0 0 0 0 127 0" result="hardAlpha"/>
<feOffset dx="-1" dy="-1"/>
<feGaussianBlur stdDeviation="3"/>
<feComposite in2="hardAlpha" operator="out"/>
<feColorMatrix type="matrix" values="0 0 0 0 0.847059 0 0 0 0 0.431373 0 0 0 0 0.431373 0 0 0 1 0"/>
<feBlend mode="normal" in2="effect1_dropShadow_65_861" result="effect2_dropShadow_65_861"/>
<feBlend mode="normal" in="SourceGraphic" in2="effect2_dropShadow_65_861" result="shape"/>
</filter>
<filter id="filter3_dd_65_861" x="40" y="36" width="98" height="276.167" filterUnits="userSpaceOnUse" color-interpolation-filters="sRGB">
<feFlood flood-opacity="0" result="BackgroundImageFix"/>
<feColorMatrix in="SourceAlpha" type="matrix" values="0 0 0 0 0 0 0 0 0 0 0 0 0 0 0 0 0 0 127 0" result="hardAlpha"/>
<feOffset dx="3" dy="3"/>
<feGaussianBlur stdDeviation="3"/>
<feComposite in2="hardAlpha" operator="out"/>
<feColorMatrix type="matrix" values="0 0 0 0 0.537255 0 0 0 0 0.141176 0 0 0 0 0.141176 0 0 0 1 0"/>
<feBlend mode="normal" in2="BackgroundImageFix" result="effect1_dropShadow_65_861"/>
<feColorMatrix in="SourceAlpha" type="matrix" values="0 0 0 0 0 0 0 0 0 0 0 0 0 0 0 0 0 0 127 0" result="hardAlpha"/>
<feOffset dx="-3" dy="-3"/>
<feGaussianBlur stdDeviation="6"/>
<feComposite in2="hardAlpha" operator="out"/>
<feColorMatrix type="matrix" values="0 0 0 0 0.847059 0 0 0 0 0.431373 0 0 0 0 0.431373 0 0 0 0.5 0"/>
<feBlend mode="normal" in2="effect1_dropShadow_65_861" result="effect2_dropShadow_65_861"/>
<feBlend mode="normal" in="SourceGraphic" in2="effect2_dropShadow_65_861" result="shape"/>
</filter>
<filter id="filter4_dd_65_861" x="14" y="22" width="142" height="310" filterUnits="userSpaceOnUse" color-interpolation-filters="sRGB">
<feFlood flood-opacity="0" result="BackgroundImageFix"/>
<feColorMatrix in="SourceAlpha" type="matrix" values="0 0 0 0 0 0 0 0 0 0 0 0 0 0 0 0 0 0 127 0" result="hardAlpha"/>
<feOffset dx="6" dy="6"/>
<feGaussianBlur stdDeviation="6"/>
<feComposite in2="hardAlpha" operator="out"/>
<feColorMatrix type="matrix" values="0 0 0 0 0.537255 0 0 0 0 0.141176 0 0 0 0 0.141176 0 0 0 1 0"/>
<feBlend mode="normal" in2="BackgroundImageFix" result="effect1_dropShadow_65_861"/>
<feColorMatrix in="SourceAlpha" type="matrix" values="0 0 0 0 0 0 0 0 0 0 0 0 0 0 0 0 0 0 127 0" result="hardAlpha"/>
<feOffset dx="-6" dy="-6"/>
<feGaussianBlur stdDeviation="6"/>
<feComposite in2="hardAlpha" operator="out"/>
<feColorMatrix type="matrix" values="0 0 0 0 0.847059 0 0 0 0 0.431373 0 0 0 0 0.431373 0 0 0 1 0"/>
<feBlend mode="normal" in2="effect1_dropShadow_65_861" result="effect2_dropShadow_65_861"/>
<feBlend mode="normal" in="SourceGraphic" in2="effect2_dropShadow_65_861" result="shape"/>
</filter>
</defs>
</svg>
