<svg width="24" height="285" viewBox="0 0 24 285" fill="none" xmlns="http://www.w3.org/2000/svg">
<g filter="url(#filter0_dd_496_1434)">
<path d="M19 12.196L14.0912 12.826L16 17.3922L13 13.456L10 17.3922L11.9088 12.826L7 12.196L11.9088 11.566L10 6.99989L13 10.936L16 6.99989L14.0912 11.566L19 12.196Z" fill="#C73535"/>
<path d="M19 64.196L14.0912 64.826L16 69.3922L13 65.456L10 69.3922L11.9088 64.826L7 64.196L11.9088 63.566L10 58.9999L13 62.936L16 58.9999L14.0912 63.566L19 64.196Z" fill="#C73535"/>
<path d="M9 115.576H16V117.556H9V115.576ZM9 110.896H16V112.876H9V110.896ZM11.73 112.736H13.37V115.716H11.73V112.736ZM9 119.913L16 123.003V124.953L9 128.053V125.993L15.03 123.573V124.353L9 121.933V119.913ZM10.36 121.603L11.82 122.113V125.533L10.36 126.043L10.36 121.603ZM9 130.414H16V133.614C16 134.254 15.8967 134.804 15.69 135.264C15.4833 135.731 15.1833 136.091 14.79 136.344C14.4033 136.597 13.9433 136.724 13.41 136.724C12.8833 136.724 12.4267 136.597 12.04 136.344C11.6533 136.091 11.3533 135.731 11.14 135.264C10.9333 134.804 10.83 134.254 10.83 133.614V131.514L11.69 132.394H9V130.414ZM11.48 132.394L12.39 131.514L12.39 133.494C12.39 133.907 12.48 134.214 12.66 134.414C12.84 134.621 13.09 134.724 13.41 134.724C13.7367 134.724 13.99 134.621 14.17 134.414C14.35 134.214 14.44 133.907 14.44 133.494L14.44 131.514L15.35 132.394H11.48ZM9 140.706H14.43V138.556H16L16 144.826H14.43V142.686H9V140.706ZM9 147.364H16V149.344H9V147.364ZM8.86 156.042C8.86 155.489 8.94667 154.976 9.12 154.502C9.3 154.036 9.55333 153.629 9.88 153.282C10.2067 152.942 10.59 152.676 11.03 152.482C11.4767 152.289 11.9667 152.192 12.5 152.192C13.0333 152.192 13.52 152.289 13.96 152.482C14.4067 152.676 14.7933 152.942 15.12 153.282C15.4467 153.629 15.6967 154.036 15.87 154.502C16.05 154.976 16.14 155.489 16.14 156.042C16.14 156.689 16.0267 157.266 15.8 157.772C15.5733 158.286 15.2467 158.712 14.82 159.052L13.68 157.792C13.9467 157.566 14.15 157.316 14.29 157.042C14.43 156.776 14.5 156.476 14.5 156.142C14.5 155.856 14.4533 155.592 14.36 155.352C14.2667 155.112 14.13 154.906 13.95 154.732C13.7767 154.566 13.5667 154.432 13.32 154.332C13.0733 154.239 12.8 154.192 12.5 154.192C12.2 154.192 11.9267 154.239 11.68 154.332C11.4333 154.432 11.22 154.566 11.04 154.732C10.8667 154.906 10.7333 155.112 10.64 155.352C10.5467 155.592 10.5 155.856 10.5 156.142C10.5 156.476 10.57 156.776 10.71 157.042C10.85 157.316 11.0533 157.566 11.32 157.792L10.18 159.052C9.76 158.712 9.43333 158.286 9.2 157.772C8.97333 157.266 8.86 156.689 8.86 156.042ZM9 161.657H16V163.637H10.57V166.977H9V161.657ZM9 169.56H16V175.05H14.47V171.52H10.53V175.18H9V169.56ZM11.81 171.38H13.29V174.63H11.81V171.38Z" fill="#C73535"/>
<path d="M19 222.196L14.0912 222.826L16 227.392L13 223.456L10 227.392L11.9088 222.826L7 222.196L11.9088 221.566L10 217L13 220.936L16 217L14.0912 221.566L19 222.196Z" fill="#C73535"/>
<path d="M19 274.196L14.0912 274.826L16 279.392L13 275.456L10 279.392L11.9088 274.826L7 274.196L11.9088 273.566L10 269L13 272.936L16 269L14.0912 273.566L19 274.196Z" fill="#C73535"/>
</g>
<defs>
<filter id="filter0_dd_496_1434" x="0" y="-0.803955" width="24" height="286" filterUnits="userSpaceOnUse" color-interpolation-filters="sRGB">
<feFlood flood-opacity="0" result="BackgroundImageFix"/>
<feColorMatrix in="SourceAlpha" type="matrix" values="0 0 0 0 0 0 0 0 0 0 0 0 0 0 0 0 0 0 127 0" result="hardAlpha"/>
<feOffset dx="1" dy="1"/>
<feGaussianBlur stdDeviation="1.5"/>
<feComposite in2="hardAlpha" operator="out"/>
<feColorMatrix type="matrix" values="0 0 0 0 0.537255 0 0 0 0 0.141176 0 0 0 0 0.141176 0 0 0 1 0"/>
<feBlend mode="normal" in2="BackgroundImageFix" result="effect1_dropShadow_496_1434"/>
<feColorMatrix in="SourceAlpha" type="matrix" values="0 0 0 0 0 0 0 0 0 0 0 0 0 0 0 0 0 0 127 0" result="hardAlpha"/>
<feOffset dx="-1" dy="-1"/>
<feGaussianBlur stdDeviation="3"/>
<feComposite in2="hardAlpha" operator="out"/>
<feColorMatrix type="matrix" values="0 0 0 0 0.847059 0 0 0 0 0.431373 0 0 0 0 0.431373 0 0 0 1 0"/>
<feBlend mode="normal" in2="effect1_dropShadow_496_1434" result="effect2_dropShadow_496_1434"/>
<feBlend mode="normal" in="SourceGraphic" in2="effect2_dropShadow_496_1434" result="shape"/>
</filter>
</defs>
</svg>
