<svg width="98" height="277" viewBox="0 0 98 277" fill="none" xmlns="http://www.w3.org/2000/svg">
<g filter="url(#filter0_dd_498_1616)">
<path d="M32.4355 43.061H16.2998V22.0859H32.4355V25.9466L71.8334 25.9466V22.6273L59.5524 21.615V15L87.6105 15V50.241H59.5524V43.6495L71.8334 42.6372V39.2002H32.4355V43.061Z" fill="#C73535"/>
<path d="M32.0769 82.8256H16.2998V63.263L32.0769 63.263V67.0295H71.8334V63.263H87.6105V82.8256H71.8334V79.0826H32.0769V82.8256Z" fill="#C73535"/>
<path d="M15 113.103C15 109.619 16.4044 106.449 19.2132 103.593C21.9921 100.705 26.1755 98.3979 31.7632 96.6715C37.3509 94.9609 44.2235 94.1056 52.381 94.1056C59.1938 94.1056 65.3941 94.7569 70.9818 96.0595C76.5098 97.3621 80.8873 99.2689 84.1145 101.78C87.3715 104.307 89 107.359 89 110.937C89 112.758 88.1783 114.39 86.5348 115.834C84.9213 117.294 82.8744 118.345 80.3943 118.988L87.6105 119.954V127.275H58.3422V119.765H59.8213C63.6162 119.765 66.7238 119.302 69.1442 118.376C71.5645 117.466 72.7747 116.109 72.7747 114.304C72.7747 113.095 71.8932 111.981 70.1302 110.961C68.3374 109.957 65.9917 109.164 63.0933 108.583C60.2247 108.003 57.2665 107.712 54.2187 107.712C48.2126 107.712 43.5064 108.497 40.0999 110.066C36.7234 111.636 35.0351 113.786 35.0351 116.517C35.0351 118.447 35.6477 120.236 36.8728 121.884C38.0979 123.548 39.4127 124.913 40.8171 125.98L39.9655 126.498H20.8716C18.6903 124.505 17.1664 122.402 16.2998 120.189C15.4333 117.976 15 115.614 15 113.103Z" fill="#C73535"/>
<path d="M16.2998 159.812V140.25H32.0769V144.016H71.8334V140.25H87.6105V159.059H71.8334V156.069H55.6081L71.8334 162.284H87.6105V176.95H71.8334V173.702L54.5772 166.239H53.9497C53.9497 168.782 53.1131 170.775 51.4397 172.219C49.7963 173.662 46.9277 174.384 42.834 174.384H35.573C34.6467 174.384 33.825 174.518 33.1078 174.785C32.4206 175.067 32.0769 175.452 32.0769 175.938V178.622H16.2998V170.006C16.2998 164.733 20.8865 162.096 30.06 162.096H37.8589C39.3828 162.096 40.8768 161.837 42.341 161.319C43.8351 160.801 44.5821 160.189 44.5821 159.483V156.069H32.0769V159.812H16.2998Z" fill="#C73535"/>
<path d="M46.6887 221.988H16.2998V190.373H32.0769V194.916H71.8334V190.373H87.6105V221.988H59.2386V215.962L71.8334 213.702V206.969H60.1799V212.996H48.4367V206.969H32.0769V213.702L46.6887 215.962V221.988Z" fill="#C73535"/>
<path d="M32.4355 259.987H16.2998V239.012H32.4355V242.873H71.8334V239.554L59.5524 238.541V231.926H87.6105V267.167H59.5524V260.576L71.8334 259.564V256.127H32.4355V259.987Z" fill="#C73535"/>
</g>
<defs>
<filter id="filter0_dd_498_1616" x="0" y="0" width="98" height="276.167" filterUnits="userSpaceOnUse" color-interpolation-filters="sRGB">
<feFlood flood-opacity="0" result="BackgroundImageFix"/>
<feColorMatrix in="SourceAlpha" type="matrix" values="0 0 0 0 0 0 0 0 0 0 0 0 0 0 0 0 0 0 127 0" result="hardAlpha"/>
<feOffset dx="3" dy="3"/>
<feGaussianBlur stdDeviation="3"/>
<feComposite in2="hardAlpha" operator="out"/>
<feColorMatrix type="matrix" values="0 0 0 0 0.537255 0 0 0 0 0.141176 0 0 0 0 0.141176 0 0 0 1 0"/>
<feBlend mode="normal" in2="BackgroundImageFix" result="effect1_dropShadow_498_1616"/>
<feColorMatrix in="SourceAlpha" type="matrix" values="0 0 0 0 0 0 0 0 0 0 0 0 0 0 0 0 0 0 127 0" result="hardAlpha"/>
<feOffset dx="-3" dy="-3"/>
<feGaussianBlur stdDeviation="6"/>
<feComposite in2="hardAlpha" operator="out"/>
<feColorMatrix type="matrix" values="0 0 0 0 0.847059 0 0 0 0 0.431373 0 0 0 0 0.431373 0 0 0 0.5 0"/>
<feBlend mode="normal" in2="effect1_dropShadow_498_1616" result="effect2_dropShadow_498_1616"/>
<feBlend mode="normal" in="SourceGraphic" in2="effect2_dropShadow_498_1616" result="shape"/>
</filter>
</defs>
</svg>
