<svg width="31" height="31" viewBox="0 0 31 31" fill="none" xmlns="http://www.w3.org/2000/svg">
<path d="M15.4 0.15C15.4 0.0671573 15.4672 0 15.55 0C15.6328 0 15.7 0.0671573 15.7 0.15V1.05C15.7 1.13284 15.6328 1.2 15.55 1.2C15.4672 1.2 15.4 1.13284 15.4 1.05V0.15Z" fill="#454545"/>
<path d="M11.3822 0.711861C11.3608 0.631842 11.4083 0.549591 11.4883 0.52815C11.5683 0.506708 11.6506 0.554196 11.672 0.634216L11.9049 1.50355C11.9264 1.58357 11.8789 1.66582 11.7989 1.68726C11.7189 1.7087 11.6366 1.66121 11.6152 1.58119L11.3822 0.711861Z" fill="#454545"/>
<path d="M7.69509 2.28151C7.65367 2.20977 7.67825 2.11803 7.75 2.07661C7.82174 2.03518 7.91348 2.05977 7.9549 2.13151L8.4049 2.91093C8.44632 2.98268 8.42174 3.07441 8.35 3.11584C8.27825 3.15726 8.18651 3.13268 8.14509 3.06093L7.69509 2.28151Z" fill="#454545"/>
<path d="M4.53985 4.75198C4.48127 4.6934 4.48127 4.59842 4.53985 4.53984C4.59843 4.48126 4.6934 4.48126 4.75198 4.53984L5.38838 5.17624C5.44696 5.23482 5.44696 5.32979 5.38838 5.38837C5.3298 5.44695 5.23482 5.44695 5.17624 5.38837L4.53985 4.75198Z" fill="#454545"/>
<path d="M2.13151 7.95491C2.05976 7.91348 2.03518 7.82175 2.0766 7.75C2.11802 7.67826 2.20976 7.65368 2.28151 7.6951L3.06093 8.1451C3.13267 8.18652 3.15726 8.27826 3.11583 8.35C3.07441 8.42175 2.98267 8.44633 2.91093 8.40491L2.13151 7.95491Z" fill="#454545"/>
<path d="M0.63422 11.672C0.5542 11.6506 0.506713 11.5683 0.528154 11.4883C0.549595 11.4083 0.631846 11.3608 0.711866 11.3822L1.5812 11.6152C1.66122 11.6366 1.70871 11.7189 1.68727 11.7989C1.66582 11.8789 1.58357 11.9264 1.50355 11.905L0.63422 11.672Z" fill="#454545"/>
<path d="M0.15 15.7C0.0671573 15.7 0 15.6328 0 15.55C0 15.4672 0.0671573 15.4 0.15 15.4H1.05C1.13284 15.4 1.2 15.4672 1.2 15.55C1.2 15.6328 1.13284 15.7 1.05 15.7H0.15Z" fill="#454545"/>
<path d="M0.711861 19.6178C0.631841 19.6392 0.54959 19.5917 0.528149 19.5117C0.506708 19.4317 0.554195 19.3494 0.634215 19.328L1.50355 19.095C1.58357 19.0736 1.66582 19.1211 1.68726 19.2011C1.7087 19.2811 1.66121 19.3634 1.58119 19.3848L0.711861 19.6178Z" fill="#454545"/>
<path d="M2.28151 23.3049C2.20976 23.3463 2.11803 23.3217 2.0766 23.25C2.03518 23.1783 2.05976 23.0865 2.13151 23.0451L2.91093 22.5951C2.98267 22.5537 3.07441 22.5783 3.11583 22.65C3.15726 22.7217 3.13267 22.8135 3.06093 22.8549L2.28151 23.3049Z" fill="#454545"/>
<path d="M4.78734 26.4248C4.70923 26.5029 4.5826 26.5029 4.50449 26.4248C4.42639 26.3467 4.42639 26.2201 4.50449 26.142L5.49444 25.152C5.57255 25.0739 5.69918 25.0739 5.77729 25.152C5.85539 25.2301 5.85539 25.3567 5.77729 25.4349L4.78734 26.4248Z" fill="#454545"/>
<path d="M7.95491 28.8685C7.91348 28.9402 7.82174 28.9648 7.75 28.9234C7.67826 28.882 7.65368 28.7902 7.6951 28.7185L8.1451 27.9391C8.18652 27.8673 8.27826 27.8427 8.35 27.8842C8.42174 27.9256 8.44633 28.0173 8.40491 28.0891L7.95491 28.8685Z" fill="#454545"/>
<path d="M11.672 30.3658C11.6506 30.4458 11.5683 30.4933 11.4883 30.4719C11.4083 30.4504 11.3608 30.3682 11.3822 30.2881L11.6152 29.4188C11.6366 29.3388 11.7189 29.2913 11.7989 29.3127C11.8789 29.3342 11.9264 29.4164 11.905 29.4965L11.672 30.3658Z" fill="#454545"/>
<path d="M15.7 30.85C15.7 30.9328 15.6328 31 15.55 31C15.4672 31 15.4 30.9328 15.4 30.85V29.95C15.4 29.8672 15.4672 29.8 15.55 29.8C15.6328 29.8 15.7 29.8672 15.7 29.95V30.85Z" fill="#454545"/>
<path d="M19.6178 30.2881C19.6392 30.3682 19.5917 30.4504 19.5117 30.4719C19.4317 30.4933 19.3494 30.4458 19.328 30.3658L19.095 29.4965C19.0736 29.4164 19.1211 29.3342 19.2011 29.3127C19.2811 29.2913 19.3634 29.3388 19.3848 29.4188L19.6178 30.2881Z" fill="#454545"/>
<path d="M23.3049 28.7185C23.3463 28.7902 23.3217 28.882 23.25 28.9234C23.1783 28.9648 23.0865 28.9402 23.0451 28.8685L22.5951 28.0891C22.5537 28.0173 22.5783 27.9256 22.65 27.8842C22.7217 27.8427 22.8135 27.8673 22.8549 27.9391L23.3049 28.7185Z" fill="#454545"/>
<path d="M26.4602 26.248C26.5187 26.3066 26.5187 26.4016 26.4602 26.4602C26.4016 26.5187 26.3066 26.5187 26.248 26.4602L25.6116 25.8238C25.553 25.7652 25.553 25.6702 25.6116 25.6116C25.6702 25.5531 25.7652 25.5531 25.8238 25.6116L26.4602 26.248Z" fill="#454545"/>
<path d="M28.8685 23.0451C28.9402 23.0865 28.9648 23.1783 28.9234 23.25C28.882 23.3217 28.7902 23.3463 28.7185 23.3049L27.9391 22.8549C27.8673 22.8135 27.8427 22.7217 27.8842 22.65C27.9256 22.5783 28.0173 22.5537 28.0891 22.5951L28.8685 23.0451Z" fill="#454545"/>
<path d="M30.3658 19.328C30.4458 19.3494 30.4933 19.4317 30.4718 19.5117C30.4504 19.5917 30.3682 19.6392 30.2881 19.6178L29.4188 19.3848C29.3388 19.3634 29.2913 19.2811 29.3127 19.2011C29.3342 19.1211 29.4164 19.0736 29.4964 19.095L30.3658 19.328Z" fill="#454545"/>
<path d="M30.85 15.3C30.9328 15.3 31 15.3672 31 15.45C31 15.5328 30.9328 15.6 30.85 15.6H29.95C29.8672 15.6 29.8 15.5328 29.8 15.45C29.8 15.3672 29.8672 15.3 29.95 15.3H30.85Z" fill="#454545"/>
<path d="M30.2881 11.3822C30.3682 11.3608 30.4504 11.4083 30.4718 11.4883C30.4933 11.5683 30.4458 11.6506 30.3658 11.672L29.4965 11.905C29.4164 11.9264 29.3342 11.8789 29.3127 11.7989C29.2913 11.7189 29.3388 11.6366 29.4188 11.6152L30.2881 11.3822Z" fill="#454545"/>
<path d="M28.7185 7.6951C28.7902 7.65368 28.882 7.67826 28.9234 7.75C28.9648 7.82174 28.9402 7.91348 28.8685 7.9549L28.0891 8.4049C28.0173 8.44633 27.9256 8.42174 27.8842 8.35C27.8427 8.27826 27.8673 8.18652 27.9391 8.1451L28.7185 7.6951Z" fill="#454545"/>
<path d="M26.248 4.53985C26.3066 4.48127 26.4016 4.48127 26.4602 4.53985C26.5187 4.59843 26.5187 4.6934 26.4602 4.75198L25.8238 5.38838C25.7652 5.44696 25.6702 5.44696 25.6116 5.38838C25.553 5.3298 25.553 5.23483 25.6116 5.17625L26.248 4.53985Z" fill="#454545"/>
<path d="M23.0451 2.13152C23.0865 2.05978 23.1783 2.03519 23.25 2.07662C23.3217 2.11804 23.3463 2.20978 23.3049 2.28152L22.8549 3.06094C22.8135 3.13269 22.7217 3.15727 22.65 3.11585C22.5783 3.07443 22.5537 2.98269 22.5951 2.91094L23.0451 2.13152Z" fill="#454545"/>
<path d="M19.328 0.634219C19.3494 0.554199 19.4317 0.506712 19.5117 0.528153C19.5917 0.549595 19.6392 0.631845 19.6178 0.711865L19.3848 1.5812C19.3634 1.66122 19.2811 1.70871 19.2011 1.68726C19.1211 1.66582 19.0736 1.58357 19.0951 1.50355L19.328 0.634219Z" fill="#454545"/>
<path d="M10 23C10 23.5523 9.55228 24 9 24C8.44772 24 8 23.5523 8 23C8 22.4477 8.44772 22 9 22C9.55228 22 10 22.4477 10 23Z" fill="#C73535"/>
</svg>
