<svg width="30" height="30" viewBox="0 0 30 30" fill="none" xmlns="http://www.w3.org/2000/svg">
<path d="M29.9109 7.88564C29.255 8.95627 29.158 10.1264 29.7438 10.8618L29.8231 10.9547L10.2292 29.0952C9.55623 28.3687 8.32928 28.3499 7.16322 28.9461L5.07536 26.6909C5.77036 25.5691 5.85138 24.334 5.17494 23.603C4.49821 22.8721 3.26002 22.8573 2.08786 23.4641L0 21.2089C0.655857 20.1383 0.753046 18.9681 0.167148 18.2328L0.0870838 18.1406L19.6811 0C20.354 0.726674 21.5816 0.744809 22.7477 0.148522L24.8429 2.41154C24.1693 3.52339 24.0998 4.7397 24.7689 5.46243C25.4381 6.18486 26.6556 6.20861 27.8158 5.62262L29.9109 7.88564Z" fill="#C73535"/>
</svg>
