<svg width="15" height="70" viewBox="0 0 15 70" fill="none" xmlns="http://www.w3.org/2000/svg">
<g filter="url(#filter0_dd_294_1879)">
<path d="M4.52309 61.2848L4.50903 59.1609L10.8089 59.1192L10.823 61.2431L8.50101 61.2585L8.514 63.2205L10.8359 63.2051L10.85 65.329L4.55015 65.3708L4.53609 63.2468L6.76804 63.232L6.75504 61.2701L4.52309 61.2848ZM10.7578 51.3999L9.66259 51.8302L9.67845 54.2242L10.7792 54.6399L10.7935 56.7998L4.47543 54.0876L4.4616 51.9997L10.7432 49.204L10.7578 51.3999ZM8.14461 53.6493L8.1365 52.4253L6.55659 53.0478L8.14461 53.6493ZM4.40792 43.8939C4.3963 42.1389 5.30689 41.0168 6.76485 41.0072C8.22282 40.9975 9.14819 42.1074 9.15981 43.8624L9.16583 44.7714L10.7138 44.7611L10.7279 46.8851L4.428 46.9268L4.40792 43.8939ZM7.52274 44.0082C7.51887 43.4232 7.23803 43.1461 6.77904 43.1491C6.32005 43.1522 6.0429 43.433 6.04678 44.018L6.0519 44.792L7.52787 44.7822L7.52274 44.0082ZM10.6629 37.0773L6.01002 37.1081L6.02223 38.9531L4.37527 38.964L4.33677 33.1501L5.98373 33.1392L5.99595 34.9842L10.6488 34.9534L10.6629 37.0773ZM10.6199 30.5768L4.32 30.6185L4.30593 28.4946L10.6058 28.4528L10.6199 30.5768ZM10.7083 22.1915C10.7217 24.2165 9.37261 25.7105 7.43765 25.7233C5.50269 25.7361 4.13389 24.2601 4.12048 22.2352C4.11231 21.0022 4.55587 20.0272 5.36173 19.4009L6.56759 20.7339C6.10204 21.106 5.83497 21.5488 5.83872 22.1158C5.84457 22.9978 6.46049 23.5877 7.42346 23.5813C8.38644 23.5749 8.9945 22.9769 8.98866 22.0949C8.9849 21.5279 8.71199 21.0887 8.24155 20.7228L9.42965 19.3739C10.2437 19.9896 10.7002 20.9586 10.7083 22.1915ZM10.5284 16.7733L4.22858 16.8151L4.21452 14.6911L8.86742 14.6603L8.84858 11.8164L10.4955 11.8055L10.5284 16.7733ZM8.86276 7.16148L8.8419 4.01155L10.4439 4.00094L10.4785 9.23882L4.17869 9.28054L4.14477 4.15966L5.74674 4.14905L5.76682 7.18198L6.50481 7.17709L6.48717 4.51315L8.01713 4.50302L8.03477 7.16696L8.86276 7.16148Z" fill="#E0E5EC"/>
</g>
<defs>
<filter id="filter0_dd_294_1879" x="0" y="0" width="14.994" height="69.3718" filterUnits="userSpaceOnUse" color-interpolation-filters="sRGB">
<feFlood flood-opacity="0" result="BackgroundImageFix"/>
<feColorMatrix in="SourceAlpha" type="matrix" values="0 0 0 0 0 0 0 0 0 0 0 0 0 0 0 0 0 0 127 0" result="hardAlpha"/>
<feOffset dx="1" dy="1"/>
<feGaussianBlur stdDeviation="1.5"/>
<feComposite in2="hardAlpha" operator="out"/>
<feColorMatrix type="matrix" values="0 0 0 0 0.639216 0 0 0 0 0.694118 0 0 0 0 0.776471 0 0 0 1 0"/>
<feBlend mode="normal" in2="BackgroundImageFix" result="effect1_dropShadow_294_1879"/>
<feColorMatrix in="SourceAlpha" type="matrix" values="0 0 0 0 0 0 0 0 0 0 0 0 0 0 0 0 0 0 127 0" result="hardAlpha"/>
<feOffset dx="-1" dy="-1"/>
<feGaussianBlur stdDeviation="1.5"/>
<feComposite in2="hardAlpha" operator="out"/>
<feColorMatrix type="matrix" values="0 0 0 0 1 0 0 0 0 1 0 0 0 0 1 0 0 0 1 0"/>
<feBlend mode="normal" in2="effect1_dropShadow_294_1879" result="effect2_dropShadow_294_1879"/>
<feBlend mode="normal" in="SourceGraphic" in2="effect2_dropShadow_294_1879" result="shape"/>
</filter>
</defs>
</svg>
