<svg width="117" height="555" viewBox="0 0 117 555" fill="none" xmlns="http://www.w3.org/2000/svg">
<g filter="url(#filter0_ddi_356_1125)">
<path d="M97.0746 260C67.9257 257.293 47.8481 257.334 19.7063 260C19.3281 261.136 19.382 261.662 19.7063 262.5C48.4223 260.749 68.3457 260.432 97.0746 262.5C98.2121 261.5 97.0746 260 97.0746 260Z" fill="#A3B1C6"/>
<path d="M91.6622 18H23.4125C18.9883 107.411 18.2747 163.942 19.7063 251C49.2093 249.152 69.2503 249.117 97.0746 251C96.9364 160.378 95.9531 103.909 91.6622 18Z" fill="#A3B1C6"/>
<path d="M97.0746 266.5H19.7063C18.8921 379.158 23.2342 522.323 27.6875 635H90.2308C94.5723 522.333 98.5486 379.166 97.0746 266.5Z" fill="#A3B1C6"/>
<path d="M97.0746 251C69.2503 249.117 49.2093 249.152 19.7063 251C17.4312 253 17.4312 259 19.7063 260C47.8481 257.334 67.9257 257.293 97.0746 260C99.9183 259 99.3496 253 97.0746 251Z" fill="#E0E5EC" fill-opacity="0.5"/>
<path d="M97.0746 262.5C68.3457 260.432 48.4223 260.749 19.7063 262.5C18.3658 263.794 18.5687 266.5 19.7063 266.5H97.0746C98.7808 266.5 98.2121 263 97.0746 262.5Z" fill="#E0E5EC" fill-opacity="0.5"/>
</g>
<defs>
<filter id="filter0_ddi_356_1125" x="-3" y="0" width="120" height="653" filterUnits="userSpaceOnUse" color-interpolation-filters="sRGB">
<feFlood flood-opacity="0" result="BackgroundImageFix"/>
<feColorMatrix in="SourceAlpha" type="matrix" values="0 0 0 0 0 0 0 0 0 0 0 0 0 0 0 0 0 0 127 0" result="hardAlpha"/>
<feOffset dx="6" dy="6"/>
<feGaussianBlur stdDeviation="6"/>
<feComposite in2="hardAlpha" operator="out"/>
<feColorMatrix type="matrix" values="0 0 0 0 0.639216 0 0 0 0 0.694118 0 0 0 0 0.776471 0 0 0 1 0"/>
<feBlend mode="normal" in2="BackgroundImageFix" result="effect1_dropShadow_356_1125"/>
<feColorMatrix in="SourceAlpha" type="matrix" values="0 0 0 0 0 0 0 0 0 0 0 0 0 0 0 0 0 0 127 0" result="hardAlpha"/>
<feOffset dx="-6" dy="-6"/>
<feGaussianBlur stdDeviation="6"/>
<feComposite in2="hardAlpha" operator="out"/>
<feColorMatrix type="matrix" values="0 0 0 0 1 0 0 0 0 1 0 0 0 0 1 0 0 0 1 0"/>
<feBlend mode="normal" in2="effect1_dropShadow_356_1125" result="effect2_dropShadow_356_1125"/>
<feBlend mode="normal" in="SourceGraphic" in2="effect2_dropShadow_356_1125" result="shape"/>
<feColorMatrix in="SourceAlpha" type="matrix" values="0 0 0 0 0 0 0 0 0 0 0 0 0 0 0 0 0 0 127 0" result="hardAlpha"/>
<feOffset dx="-21" dy="-4"/>
<feGaussianBlur stdDeviation="13.85"/>
<feComposite in2="hardAlpha" operator="arithmetic" k2="-1" k3="1"/>
<feColorMatrix type="matrix" values="0 0 0 0 0.639216 0 0 0 0 0.694118 0 0 0 0 0.776471 0 0 0 1 0"/>
<feBlend mode="normal" in2="shape" result="effect3_innerShadow_356_1125"/>
</filter>
</defs>
</svg>
