<svg width="22" height="111" viewBox="0 0 22 111" fill="none" xmlns="http://www.w3.org/2000/svg">
<g filter="url(#filter0_dd_498_1615)">
<path d="M7.13 7.0001L16.23 11.0951V12.7591L7.13 16.8671V15.0991L15.333 11.5761V12.2521L7.13 8.7421V7.0001ZM9.236 8.8851L10.562 9.3401L10.562 14.2541L9.236 14.7091L9.236 8.8851ZM7.13 20.6244H16.23L16.23 24.6024C16.23 25.5904 16.0393 26.4571 15.658 27.2024C15.2767 27.9477 14.748 28.5284 14.072 28.9444C13.396 29.3604 12.5987 29.5684 11.68 29.5684C10.77 29.5684 9.97267 29.3604 9.288 28.9444C8.612 28.5284 8.08334 27.9477 7.702 27.2024C7.32067 26.4571 7.13 25.5904 7.13 24.6024V20.6244ZM8.56 22.3144V24.5244C8.56 25.2004 8.69 25.7897 8.95 26.2924C9.21 26.7951 9.574 27.1807 10.042 27.4494C10.51 27.7267 11.056 27.8654 11.68 27.8654C12.3127 27.8654 12.8587 27.7267 13.318 27.4494C13.786 27.1807 14.15 26.7951 14.41 26.2924C14.67 25.7897 14.8 25.2004 14.8 24.5244V22.3144H8.56ZM7.13 33.9646H16.23V35.3556L9.58701 39.3336V38.6056L16.23 42.5186V43.9096L7.13 43.9226L7.13 42.3236L13.721 42.3106V42.6486L8.17 39.3206V38.5666L13.721 35.1866L13.721 35.5766H7.13V33.9646ZM7.13 48.9807H16.23V50.6707H7.13V48.9807ZM7.13 57.578H14.8V54.562H16.23V62.284H14.8V59.268H7.13V57.578ZM7 76.6091C7 75.8984 7.117 75.2441 7.351 74.6461C7.585 74.0481 7.91 73.5281 8.326 73.0861C8.75067 72.6441 9.24467 72.3018 9.80801 72.0591C10.38 71.8164 11.004 71.6951 11.68 71.6951C12.356 71.6951 12.9757 71.8164 13.539 72.0591C14.111 72.3018 14.605 72.6441 15.021 73.0861C15.4457 73.5281 15.775 74.0481 16.009 74.6461C16.243 75.2441 16.36 75.8941 16.36 76.5961C16.36 77.3068 16.243 77.9568 16.009 78.5461C15.775 79.1441 15.4457 79.6641 15.021 80.1061C14.605 80.5481 14.111 80.8904 13.539 81.1331C12.9757 81.3758 12.356 81.4971 11.68 81.4971C11.004 81.4971 10.38 81.3758 9.80801 81.1331C9.236 80.8904 8.742 80.5481 8.326 80.1061C7.91 79.6641 7.585 79.1441 7.351 78.5461C7.117 77.9568 7 77.3111 7 76.6091ZM8.482 76.5961C8.482 77.0554 8.56 77.4801 8.716 77.8701C8.872 78.2601 9.093 78.5981 9.379 78.8841C9.67367 79.1701 10.0117 79.3911 10.393 79.5471C10.783 79.7118 11.212 79.7941 11.68 79.7941C12.148 79.7941 12.5727 79.7118 12.954 79.5471C13.344 79.3911 13.682 79.1701 13.968 78.8841C14.2627 78.5981 14.488 78.2601 14.644 77.8701C14.8 77.4801 14.878 77.0554 14.878 76.5961C14.878 76.1368 14.8 75.7121 14.644 75.3221C14.488 74.9408 14.2627 74.6028 13.968 74.3081C13.682 74.0221 13.344 73.7968 12.954 73.6321C12.5727 73.4761 12.148 73.3981 11.68 73.3981C11.2207 73.3981 10.796 73.4761 10.406 73.6321C10.016 73.7968 9.67367 74.0221 9.379 74.3081C9.093 74.5941 8.872 74.9321 8.716 75.3221C8.56 75.7121 8.482 76.1368 8.482 76.5961ZM7.13 85.8885H16.23V87.2795L9.22301 92.9865V92.2975H16.23V93.9745H7.13V92.5835L14.137 86.8765V87.5655H7.13V85.8885ZM7.13 99.0129H16.23V105.656H14.813V100.703H8.547V105.838H7.13L7.13 99.0129ZM11.056 100.573H12.447V105.097H11.056L11.056 100.573Z" fill="#C73535"/>
</g>
<defs>
<filter id="filter0_dd_498_1615" x="0" y="0" width="21.36" height="110.838" filterUnits="userSpaceOnUse" color-interpolation-filters="sRGB">
<feFlood flood-opacity="0" result="BackgroundImageFix"/>
<feColorMatrix in="SourceAlpha" type="matrix" values="0 0 0 0 0 0 0 0 0 0 0 0 0 0 0 0 0 0 127 0" result="hardAlpha"/>
<feOffset dx="1" dy="1"/>
<feGaussianBlur stdDeviation="1.5"/>
<feComposite in2="hardAlpha" operator="out"/>
<feColorMatrix type="matrix" values="0 0 0 0 0.537255 0 0 0 0 0.141176 0 0 0 0 0.141176 0 0 0 1 0"/>
<feBlend mode="normal" in2="BackgroundImageFix" result="effect1_dropShadow_498_1615"/>
<feColorMatrix in="SourceAlpha" type="matrix" values="0 0 0 0 0 0 0 0 0 0 0 0 0 0 0 0 0 0 127 0" result="hardAlpha"/>
<feOffset dx="-1" dy="-1"/>
<feGaussianBlur stdDeviation="3"/>
<feComposite in2="hardAlpha" operator="out"/>
<feColorMatrix type="matrix" values="0 0 0 0 0.847059 0 0 0 0 0.431373 0 0 0 0 0.431373 0 0 0 1 0"/>
<feBlend mode="normal" in2="effect1_dropShadow_498_1615" result="effect2_dropShadow_498_1615"/>
<feBlend mode="normal" in="SourceGraphic" in2="effect2_dropShadow_498_1615" result="shape"/>
</filter>
</defs>
</svg>
